999
dxflib 3.7.0.0
  0
SECTION
  2
HEADER
  9
$ACADVER
  1
AC1015
  9
$HANDSEED
  5
FFFF
  9
$DIMADEC
 70
0
  9
$DIMASZ
 40
2.5
  9
$DIMAUNIT
 70
0
  9
$DIMAZIN
 70
2
  9
$DIMDEC
 70
4
  9
$DIMEXE
 40
1.25
  9
$DIMEXO
 40
0.625
  9
$DIMGAP
 40
0.625
  9
$DIMLUNIT
 70
2
  9
$DIMSCALE
 40
1.0
  9
$DIMTSZ
 40
0.0
  9
$DIMTXT
 40
2.5
  9
$DIMZIN
 70
8
  9
$DWGCODEPAGE
  3
ANSI_1252
  9
$INSUNITS
 70
4
  9
$LTSCALE
 40
1
  0
ENDSEC
  0
SECTION
  2
TABLES
  0
TABLE
  2
VPORT
  5
8
100
AcDbSymbolTable
 70
1
  0
VPORT
  5
30
100
AcDbSymbolTableRecord
100
AcDbViewportTableRecord
  2
*Active
 70
0
 10
0.0
 20
0.0
 11
1.0
 21
1.0
 12
286.3055555555554861
 22
148.5
 13
0.0
 23
0.0
 14
10.0
 24
10.0
 15
10.0
 25
10.0
 16
0.0
 26
0.0
 36
1.0
 17
0.0
 27
0.0
 37
0.0
 40
297.0
 41
1.92798353909465
 42
50.0
 43
0.0
 44
0.0
 50
0.0
 51
0.0
 71
0
 72
100
 73
1
 74
3
 75
1
 76
1
 77
0
 78
0
281
0
 65
1
110
0.0
120
0.0
130
0.0
111
1.0
121
0.0
131
0.0
112
0.0
122
1.0
132
0.0
 79
0
146
0.0
  0
ENDTAB
  0
TABLE
  2
LTYPE
  5
5
100
AcDbSymbolTable
 70
41
  0
LTYPE
  5
16
100
AcDbSymbolTableRecord
100
AcDbLinetypeTableRecord
  2
CONTINUOUS
 70
0
  3
Solid line
 72
65
 73
0
 40
0.0
  0
LTYPE
  5
31
100
AcDbSymbolTableRecord
100
AcDbLinetypeTableRecord
  2
ACAD_ISO15W100
 70
0
  3
ISO double-dash triple-dot __ __ . . . __ __ . .
 72
65
 73
10
 40
39.0000000000000071
 49
12.0
 74
0
 49
-3.0
 74
0
 49
12.0
 74
0
 49
-2.9500000000000002
 74
0
 49
0.1
 74
0
 49
-2.9000000000000004
 74
0
 49
0.1
 74
0
 49
-2.9000000000000004
 74
0
 49
0.1
 74
0
 49
-2.9500000000000002
 74
0
  0
LTYPE
  5
32
100
AcDbSymbolTableRecord
100
AcDbLinetypeTableRecord
  2
DIVIDE
 70
0
  3
Divide ____ . . ____ . . ____ . . ____ . . ____
 72
65
 73
6
 40
31.7500000000000036
 49
12.6999999999999993
 74
0
 49
-6.2999999999999998
 74
0
 49
0.1
 74
0
 49
-6.25
 74
0
 49
0.1
 74
0
 49
-6.2999999999999998
 74
0
  0
LTYPE
  5
33
100
AcDbSymbolTableRecord
100
AcDbLinetypeTableRecord
  2
ACAD_ISO10W100
 70
0
  3
ISO dash dot __ . __ . __ . __ . __ . __ . __ .
 72
65
 73
4
 40
18.0
 49
12.0
 74
0
 49
-2.9500000000000002
 74
0
 49
0.1
 74
0
 49
-2.9500000000000002
 74
0
  0
LTYPE
  5
34
100
AcDbSymbolTableRecord
100
AcDbLinetypeTableRecord
  2
ACAD_ISO04W100
 70
0
  3
ISO long-dash dot ____ . ____ . ____ . ____ . _
 72
65
 73
4
 40
30.0
 49
24.0
 74
0
 49
-2.9500000000000002
 74
0
 49
0.1
 74
0
 49
-2.9500000000000002
 74
0
  0
LTYPE
  5
35
100
AcDbSymbolTableRecord
100
AcDbLinetypeTableRecord
  2
CENTER2
 70
0
  3
Center (.5x) ___ _ ___ _ ___ _ ___ _ ___ _ ___
 72
65
 73
4
 40
28.5750000000000028
 49
19.0500000000000007
 74
0
 49
-3.1749999999999998
 74
0
 49
3.1749999999999998
 74
0
 49
-3.1749999999999998
 74
0
  0
LTYPE
  5
36
100
AcDbSymbolTableRecord
100
AcDbLinetypeTableRecord
  2
ACAD_ISO11W100
 70
0
  3
ISO double-dash dot __ __ . __ __ . __ __ . __ _
 72
65
 73
6
 40
33.0
 49
12.0
 74
0
 49
-3.0
 74
0
 49
12.0
 74
0
 49
-2.9500000000000002
 74
0
 49
0.1
 74
0
 49
-2.9500000000000002
 74
0
  0
LTYPE
  5
37
100
AcDbSymbolTableRecord
100
AcDbLinetypeTableRecord
  2
HIDDEN2
 70
0
  3
Hidden (.5x) _ _ _ _ _ _ _ _ _ _ _ _ _ _ _ _ _
 72
65
 73
2
 40
4.7624999999999993
 49
3.1749999999999998
 74
0
 49
-1.5874999999999999
 74
0
  0
LTYPE
  5
38
100
AcDbSymbolTableRecord
100
AcDbLinetypeTableRecord
  2
BORDERX2
 70
0
  3
Border (2x) ____  ____  .  ____  ____  .  ___
 72
65
 73
6
 40
88.8999999999999773
 49
25.3999999999999986
 74
0
 49
-12.6999999999999993
 74
0
 49
25.3999999999999986
 74
0
 49
-12.6499999999999986
 74
0
 49
0.1
 74
0
 49
-12.6499999999999986
 74
0
  0
LTYPE
  5
39
100
AcDbSymbolTableRecord
100
AcDbLinetypeTableRecord
  2
ACAD_ISO05W100
 70
0
  3
ISO long-dash double-dot ____ .. ____ .. ____ .
 72
65
 73
6
 40
33.0000000000000071
 49
24.0
 74
0
 49
-2.9500000000000002
 74
0
 49
0.1
 74
0
 49
-2.9000000000000004
 74
0
 49
0.1
 74
0
 49
-2.9500000000000002
 74
0
  0
LTYPE
  5
3A
100
AcDbSymbolTableRecord
100
AcDbLinetypeTableRecord
  2
DASHDOTX2
 70
0
  3
Dash dot (2x) ____  .  ____  .  ____  .  ___
 72
65
 73
4
 40
50.7999999999999972
 49
25.3999999999999986
 74
0
 49
-12.6499999999999986
 74
0
 49
0.1
 74
0
 49
-12.6499999999999986
 74
0
  0
LTYPE
  5
3B
100
AcDbSymbolTableRecord
100
AcDbLinetypeTableRecord
  2
HIDDENX2
 70
0
  3
Hidden (2x) ____ ____ ____ ____ ____ ____ ____
 72
65
 73
2
 40
19.0499999999999972
 49
12.6999999999999993
 74
0
 49
-6.3499999999999996
 74
0
  0
LTYPE
  5
3C
100
AcDbSymbolTableRecord
100
AcDbLinetypeTableRecord
  2
CENTERX2
 70
0
  3
Center (2x) ________  __  ________  __  _____
 72
65
 73
4
 40
101.6000000000000085
 49
63.5
 74
0
 49
-12.6999999999999993
 74
0
 49
12.6999999999999993
 74
0
 49
-12.6999999999999993
 74
0
  0
LTYPE
  5
3D
100
AcDbSymbolTableRecord
100
AcDbLinetypeTableRecord
  2
BORDER2
 70
0
  3
Border (.5x) __.__.__.__.__.__.__.__.__.__.__.
 72
65
 73
6
 40
22.2250000000000014
 49
6.3499999999999996
 74
0
 49
-3.1749999999999998
 74
0
 49
6.3499999999999996
 74
0
 49
-3.125
 74
0
 49
0.1
 74
0
 49
-3.125
 74
0
  0
LTYPE
  5
3E
100
AcDbSymbolTableRecord
100
AcDbLinetypeTableRecord
  2
DASHDOT2
 70
0
  3
Dash dot (.5x) _._._._._._._._._._._._._._._.
 72
65
 73
4
 40
12.6999999999999993
 49
6.3499999999999996
 74
0
 49
-3.125
 74
0
 49
0.1
 74
0
 49
-3.125
 74
0
  0
LTYPE
  5
3F
100
AcDbSymbolTableRecord
100
AcDbLinetypeTableRecord
  2
ACAD_ISO12W100
 70
0
  3
ISO dash double-dot __ . . __ . . __ . . __ . .
 72
65
 73
6
 40
21.0
 49
12.0
 74
0
 49
-2.9500000000000002
 74
0
 49
0.1
 74
0
 49
-2.9000000000000004
 74
0
 49
0.1
 74
0
 49
-2.9500000000000002
 74
0
  0
LTYPE
  5
40
100
AcDbSymbolTableRecord
100
AcDbLinetypeTableRecord
  2
ACAD_ISO07W100
 70
0
  3
ISO dot . . . . . . . . . . . . . . . . . . . .
 72
65
 73
2
 40
3.0
 49
0.1
 74
0
 49
-2.8999999999999999
 74
0
  0
LTYPE
  5
41
100
AcDbSymbolTableRecord
100
AcDbLinetypeTableRecord
  2
HIDDEN
 70
0
  3
Hidden __ __ __ __ __ __ __ __ __ __ __ __ __ __
 72
65
 73
2
 40
9.5249999999999986
 49
6.3499999999999996
 74
0
 49
-3.1749999999999998
 74
0
  0
LTYPE
  5
42
100
AcDbSymbolTableRecord
100
AcDbLinetypeTableRecord
  2
ACAD_ISO06W100
 70
0
  3
ISO long-dash triple-dot ____ ... ____ ... ____
 72
65
 73
8
 40
36.0000000000000071
 49
24.0
 74
0
 49
-2.9500000000000002
 74
0
 49
0.1
 74
0
 49
-2.9000000000000004
 74
0
 49
0.1
 74
0
 49
-2.9000000000000004
 74
0
 49
0.1
 74
0
 49
-2.9500000000000002
 74
0
  0
LTYPE
  5
43
100
AcDbSymbolTableRecord
100
AcDbLinetypeTableRecord
  2
CENTER
 70
0
  3
Center ____ _ ____ _ ____ _ ____ _ ____ _ ____
 72
65
 73
4
 40
50.8000000000000043
 49
31.75
 74
0
 49
-6.3499999999999996
 74
0
 49
6.3499999999999996
 74
0
 49
-6.3499999999999996
 74
0
  0
LTYPE
  5
44
100
AcDbSymbolTableRecord
100
AcDbLinetypeTableRecord
  2
DOTX2
 70
0
  3
Dot (2x) .  .  .  .  .  .  .  .  .  .  .  .  .  .
 72
65
 73
2
 40
12.6999999999999993
 49
0.1
 74
0
 49
-12.5999999999999996
 74
0
  0
LTYPE
  5
45
100
AcDbSymbolTableRecord
100
AcDbLinetypeTableRecord
  2
PHANTOM
 70
0
  3
Phantom ______  __  __  ______  __  __  ______
 72
65
 73
6
 40
63.5000000000000071
 49
31.75
 74
0
 49
-6.3499999999999996
 74
0
 49
6.3499999999999996
 74
0
 49
-6.3499999999999996
 74
0
 49
6.3499999999999996
 74
0
 49
-6.3499999999999996
 74
0
  0
LTYPE
  5
46
100
AcDbSymbolTableRecord
100
AcDbLinetypeTableRecord
  2
ACAD_ISO08W100
 70
0
  3
ISO long-dash short-dash ____ __ ____ __ ____ _
 72
65
 73
4
 40
36.0
 49
24.0
 74
0
 49
-3.0
 74
0
 49
6.0
 74
0
 49
-3.0
 74
0
  0
LTYPE
  5
47
100
AcDbSymbolTableRecord
100
AcDbLinetypeTableRecord
  2
DASHEDX2
 70
0
  3
Dashed (2x) ____  ____  ____  ____  ____  ___
 72
65
 73
2
 40
38.0999999999999943
 49
25.3999999999999986
 74
0
 49
-12.6999999999999993
 74
0
  0
LTYPE
  5
48
100
AcDbSymbolTableRecord
100
AcDbLinetypeTableRecord
  2
ACAD_ISO02W100
 70
0
  3
ISO dash __ __ __ __ __ __ __ __ __ __ __ __ __
 72
65
 73
2
 40
15.0
 49
12.0
 74
0
 49
-3.0
 74
0
  0
LTYPE
  5
49
100
AcDbSymbolTableRecord
100
AcDbLinetypeTableRecord
  2
PHANTOM2
 70
0
  3
Phantom (.5x) ___ _ _ ___ _ _ ___ _ _ ___ _ _
 72
65
 73
6
 40
31.7500000000000036
 49
15.875
 74
0
 49
-3.1749999999999998
 74
0
 49
3.1749999999999998
 74
0
 49
-3.1749999999999998
 74
0
 49
3.1749999999999998
 74
0
 49
-3.1749999999999998
 74
0
  0
LTYPE
  5
4A
100
AcDbSymbolTableRecord
100
AcDbLinetypeTableRecord
  2
DASHED2
 70
0
  3
Dashed (.5x) _ _ _ _ _ _ _ _ _ _ _ _ _ _ _ _ _
 72
65
 73
2
 40
9.5249999999999986
 49
6.3499999999999996
 74
0
 49
-3.1749999999999998
 74
0
  0
LTYPE
  5
4B
100
AcDbSymbolTableRecord
100
AcDbLinetypeTableRecord
  2
ACAD_ISO09W100
 70
0
  3
ISO long-dash double-short-dash ____ __ __ ____
 72
65
 73
6
 40
45.0
 49
24.0
 74
0
 49
-3.0
 74
0
 49
6.0
 74
0
 49
-3.0
 74
0
 49
6.0
 74
0
 49
-3.0
 74
0
  0
LTYPE
  5
4C
100
AcDbSymbolTableRecord
100
AcDbLinetypeTableRecord
  2
ACAD_ISO13W100
 70
0
  3
ISO double-dash double-dot __ __ . . __ __ . . _
 72
65
 73
8
 40
36.0000000000000071
 49
12.0
 74
0
 49
-3.0
 74
0
 49
12.0
 74
0
 49
-2.9500000000000002
 74
0
 49
0.1
 74
0
 49
-2.9000000000000004
 74
0
 49
0.1
 74
0
 49
-2.9500000000000002
 74
0
  0
LTYPE
  5
4D
100
AcDbSymbolTableRecord
100
AcDbLinetypeTableRecord
  2
DOT2
 70
0
  3
Dot (.5x) ........................................
 72
65
 73
2
 40
3.1749999999999998
 49
0.1
 74
0
 49
-3.0749999999999997
 74
0
  0
LTYPE
  5
4E
100
AcDbSymbolTableRecord
100
AcDbLinetypeTableRecord
  2
DASHED
 70
0
  3
Dashed __ __ __ __ __ __ __ __ __ __ __ __ __ _
 72
65
 73
2
 40
19.0499999999999972
 49
12.6999999999999993
 74
0
 49
-6.3499999999999996
 74
0
  0
LTYPE
  5
4F
100
AcDbSymbolTableRecord
100
AcDbLinetypeTableRecord
  2
ACAD_ISO14W100
 70
0
  3
ISO dash triple-dot __ . . . __ . . . __ . . . _
 72
65
 73
8
 40
24.0000000000000036
 49
12.0
 74
0
 49
-2.9500000000000002
 74
0
 49
0.1
 74
0
 49
-2.9000000000000004
 74
0
 49
0.1
 74
0
 49
-2.9000000000000004
 74
0
 49
0.1
 74
0
 49
-2.9500000000000002
 74
0
  0
LTYPE
  5
50
100
AcDbSymbolTableRecord
100
AcDbLinetypeTableRecord
  2
PHANTOMX2
 70
0
  3
Phantom (2x) ____________    ____    ____   _
 72
65
 73
6
 40
127.0000000000000142
 49
63.5
 74
0
 49
-12.6999999999999993
 74
0
 49
12.6999999999999993
 74
0
 49
-12.6999999999999993
 74
0
 49
12.6999999999999993
 74
0
 49
-12.6999999999999993
 74
0
  0
LTYPE
  5
14
100
AcDbSymbolTableRecord
100
AcDbLinetypeTableRecord
  2
BYBLOCK
 70
0
  3

 72
65
 73
0
 40
0.0
  0
LTYPE
  5
51
100
AcDbSymbolTableRecord
100
AcDbLinetypeTableRecord
  2
DIVIDEX2
 70
0
  3
Divide (2x) ________  .  .  ________  .  .  _
 72
65
 73
6
 40
63.5
 49
25.3999999999999986
 74
0
 49
-12.6499999999999986
 74
0
 49
0.1
 74
0
 49
-12.5999999999999979
 74
0
 49
0.1
 74
0
 49
-12.6499999999999986
 74
0
  0
LTYPE
  5
52
100
AcDbSymbolTableRecord
100
AcDbLinetypeTableRecord
  2
BORDER
 70
0
  3
Border __ __ . __ __ . __ __ . __ __ . __ __ .
 72
65
 73
6
 40
44.4499999999999957
 49
12.6999999999999993
 74
0
 49
-6.3499999999999996
 74
0
 49
12.6999999999999993
 74
0
 49
-6.2999999999999998
 74
0
 49
0.1
 74
0
 49
-6.2999999999999998
 74
0
  0
LTYPE
  5
53
100
AcDbSymbolTableRecord
100
AcDbLinetypeTableRecord
  2
DIVIDE2
 70
0
  3
Divide (.5x) __..__..__..__..__..__..__..__.._
 72
65
 73
6
 40
15.8749999999999982
 49
6.3499999999999996
 74
0
 49
-3.125
 74
0
 49
0.1
 74
0
 49
-3.0750000000000002
 74
0
 49
0.1
 74
0
 49
-3.125
 74
0
  0
LTYPE
  5
54
100
AcDbSymbolTableRecord
100
AcDbLinetypeTableRecord
  2
DOT
 70
0
  3
Dot . . . . . . . . . . . . . . . . . . . . . . . .
 72
65
 73
2
 40
6.3499999999999996
 49
0.1
 74
0
 49
-6.25
 74
0
  0
LTYPE
  5
55
100
AcDbSymbolTableRecord
100
AcDbLinetypeTableRecord
  2
DASHDOT
 70
0
  3
Dash dot __ . __ . __ . __ . __ . __ . __ . __
 72
65
 73
4
 40
25.4000000000000021
 49
12.6999999999999993
 74
0
 49
-6.2999999999999998
 74
0
 49
0.1
 74
0
 49
-6.2999999999999998
 74
0
  0
LTYPE
  5
56
100
AcDbSymbolTableRecord
100
AcDbLinetypeTableRecord
  2
ACAD_ISO03W100
 70
0
  3
ISO dash space __    __    __    __    __    __
 72
65
 73
2
 40
30.0
 49
12.0
 74
0
 49
-18.0
 74
0
  0
LTYPE
  5
15
100
AcDbSymbolTableRecord
100
AcDbLinetypeTableRecord
  2
ByLayer
 70
0
  3

 72
65
 73
0
 40
0.0
  0
ENDTAB
  0
TABLE
  2
LAYER
  5
2
100
AcDbSymbolTable
 70
2
  0
LAYER
  5
10
100
AcDbSymbolTableRecord
100
AcDbLayerTableRecord
  2
0
 70
0
 62
7
420
16777215
  6
CONTINUOUS
370
25
390
F
  0
LAYER
  5
57
100
AcDbSymbolTableRecord
100
AcDbLayerTableRecord
  2
COLOR
 70
0
 62
134
420
32639
  6
CONTINUOUS
370
-3
390
F
  0
ENDTAB
  0
TABLE
  2
STYLE
  5
3
100
AcDbSymbolTable
 70
12
  0
STYLE
  5
58
100
AcDbSymbolTableRecord
100
AcDbTextStyleTableRecord
  2
Standard
 70
0
 40
0.0
 41
1.0
 50
0.0
 71
0
 42
2.5
  3

  4

1001
ACAD
1000
txt
1071
0
  0
STYLE
  5
59
100
AcDbSymbolTableRecord
100
AcDbTextStyleTableRecord
  2
textstyle0
 70
0
 40
0.0
 41
1.0
 50
0.0
 71
0
 42
4.0
  3

  4

1001
ACAD
1000
Verdana
1071
0
  0
STYLE
  5
5A
100
AcDbSymbolTableRecord
100
AcDbTextStyleTableRecord
  2
textstyle1
 70
0
 40
0.0
 41
1.0
 50
0.0
 71
0
 42
4.0
  3

  4

1001
ACAD
1000
Verdana
1071
0
  0
STYLE
  5
5B
100
AcDbSymbolTableRecord
100
AcDbTextStyleTableRecord
  2
textstyle2
 70
0
 40
0.0
 41
1.0
 50
0.0
 71
0
 42
4.0
  3

  4

1001
ACAD
1000
Verdana
1071
0
  0
STYLE
  5
5C
100
AcDbSymbolTableRecord
100
AcDbTextStyleTableRecord
  2
textstyle3
 70
0
 40
0.0
 41
1.0
 50
0.0
 71
0
 42
4.0
  3

  4

1001
ACAD
1000
Verdana
1071
0
  0
STYLE
  5
5D
100
AcDbSymbolTableRecord
100
AcDbTextStyleTableRecord
  2
textstyle4
 70
0
 40
0.0
 41
1.0
 50
0.0
 71
0
 42
4.0
  3

  4

1001
ACAD
1000
Verdana
1071
0
  0
STYLE
  5
5E
100
AcDbSymbolTableRecord
100
AcDbTextStyleTableRecord
  2
textstyle5
 70
0
 40
0.0
 41
1.0
 50
0.0
 71
0
 42
4.0
  3

  4

1001
ACAD
1000
Verdana
1071
0
  0
STYLE
  5
5F
100
AcDbSymbolTableRecord
100
AcDbTextStyleTableRecord
  2
textstyle6
 70
0
 40
0.0
 41
1.0
 50
0.0
 71
0
 42
3.0
  3

  4

1001
ACAD
1000
Arial
1071
0
  0
STYLE
  5
60
100
AcDbSymbolTableRecord
100
AcDbTextStyleTableRecord
  2
textstyle7
 70
0
 40
0.0
 41
1.0
 50
0.0
 71
0
 42
3.0
  3

  4

1001
ACAD
1000
Arial
1071
0
  0
STYLE
  5
61
100
AcDbSymbolTableRecord
100
AcDbTextStyleTableRecord
  2
textstyle8
 70
0
 40
0.0
 41
1.0
 50
0.0
 71
0
 42
3.0
  3

  4

1001
ACAD
1000
Arial
1071
0
  0
STYLE
  5
62
100
AcDbSymbolTableRecord
100
AcDbTextStyleTableRecord
  2
textstyle9
 70
0
 40
0.0
 41
1.0
 50
0.0
 71
0
 42
5.0
  3

  4

1001
ACAD
1000
Arial
1071
0
  0
STYLE
  5
63
100
AcDbSymbolTableRecord
100
AcDbTextStyleTableRecord
  2
textstyle10
 70
0
 40
0.0
 41
1.0
 50
0.0
 71
0
 42
3.0
  3

  4

1001
ACAD
1000
Arial
1071
0
  0
ENDTAB
  0
TABLE
  2
VIEW
  5
6
100
AcDbSymbolTable
 70
0
  0
ENDTAB
  0
TABLE
  2
UCS
  5
7
100
AcDbSymbolTable
 70
0
  0
ENDTAB
  0
TABLE
  2
APPID
  5
9
100
AcDbSymbolTable
 70
1
  0
APPID
  5
12
100
AcDbSymbolTableRecord
100
AcDbRegAppTableRecord
  2
ACAD
 70
0
  0
APPID
  5
64
100
AcDbSymbolTableRecord
100
AcDbRegAppTableRecord
  2
QCAD
 70
0
  0
ENDTAB
  0
TABLE
  2
DIMSTYLE
  5
A
100
AcDbSymbolTable
 70
1
100
AcDbDimStyleTable
 71
0
  0
DIMSTYLE
105
27
100
AcDbSymbolTableRecord
100
AcDbDimStyleTableRecord
  2
Standard
 41
2.5
 42
0.625
 43
3.75
 44
1.25
 70
0
 73
0
 74
0
 77
1
 78
8
140
2.5
141
2.5
143
0.03937007874016
147
0.625
171
3
172
1
271
2
272
2
274
3
278
44
283
0
284
8
340
58
  0
ENDTAB
  0
TABLE
  2
BLOCK_RECORD
  5
1
100
AcDbSymbolTable
 70
1
  0
BLOCK_RECORD
  5
1F
100
AcDbSymbolTableRecord
100
AcDbBlockTableRecord
  2
*Model_Space
340
22
  0
BLOCK_RECORD
  5
1B
100
AcDbSymbolTableRecord
100
AcDbBlockTableRecord
  2
*Paper_Space
340
1E
  0
BLOCK_RECORD
  5
23
100
AcDbSymbolTableRecord
100
AcDbBlockTableRecord
  2
*Paper_Space0
340
26
  0
ENDTAB
  0
ENDSEC
  0
SECTION
  2
BLOCKS
  0
BLOCK
  5
20
100
AcDbEntity
  8
0
100
AcDbBlockBegin
  2
*Model_Space
 70
0
 10
0.0
 20
0.0
 30
0.0
  3
*Model_Space
  1

  0
ENDBLK
  5
21
100
AcDbEntity
  8
0
100
AcDbBlockEnd
  0
BLOCK
  5
1C
100
AcDbEntity
 67
1
  8
0
100
AcDbBlockBegin
  2
*Paper_Space
 70
0
 10
0.0
 20
0.0
 30
0.0
  3
*Paper_Space
  1

  0
ENDBLK
  5
1D
100
AcDbEntity
 67
1
  8
0
100
AcDbBlockEnd
  0
BLOCK
  5
24
100
AcDbEntity
  8
0
100
AcDbBlockBegin
  2
*Paper_Space0
 70
0
 10
0.0
 20
0.0
 30
0.0
  3
*Paper_Space0
  1

  0
ENDBLK
  5
25
100
AcDbEntity
  8
0
100
AcDbBlockEnd
  0
ENDSEC
  0
SECTION
  2
ENTITIES
  0
LINE
  5
65
100
AcDbEntity
100
AcDbLine
  8
0
 62
256
370
-1
 48
1.0
  6
ByLayer
 10
-90.0
 20
93.0000000000000568
 30
0.0
 11
90.0
 21
93.0
 31
0.0
  0
LINE
  5
66
100
AcDbEntity
100
AcDbLine
  8
0
 62
256
370
-1
 48
1.0
  6
ByLayer
 10
90.0
 20
120.0
 30
0.0
 11
-90.0
 21
120.0
 31
0.0
  0
LINE
  5
67
100
AcDbEntity
100
AcDbLine
  8
0
 62
256
370
-1
 48
1.0
  6
ByLayer
 10
110.0
 20
120.0
 30
0.0
 11
110.0
 21
93.0
 31
0.0
  0
LINE
  5
68
100
AcDbEntity
100
AcDbLine
  8
0
 62
256
370
-1
 48
1.0
  6
ByLayer
 10
-125.0
 20
140.0
 30
0.0
 11
125.0
 21
140.0
 31
0.0
  0
LINE
  5
69
100
AcDbEntity
100
AcDbLine
  8
0
 62
256
370
-1
 48
1.0
  6
ByLayer
 10
125.0
 20
80.0
 30
0.0
 11
-125.0
 21
80.0
 31
0.0
  0
ARC
  5
6A
100
AcDbEntity
  8
0
 62
256
370
-1
 48
1.0
  6
ByLayer
100
AcDbCircle
 10
-125.0
 20
135.0
 30
0.0
 40
5.0
100
AcDbArc
 50
90.0
 51
180.0
  0
ARC
  5
6B
100
AcDbEntity
  8
0
 62
256
370
-1
 48
1.0
  6
ByLayer
100
AcDbCircle
 10
125.0
 20
135.0
 30
0.0
 40
5.0
100
AcDbArc
 50
0.0
 51
90.0
  0
ARC
  5
6C
100
AcDbEntity
  8
0
 62
256
370
-1
 48
1.0
  6
ByLayer
100
AcDbCircle
 10
-125.0
 20
85.0
 30
0.0
 40
5.0
100
AcDbArc
 50
180.0
 51
270.0
  0
ARC
  5
6D
100
AcDbEntity
  8
0
 62
256
370
-1
 48
1.0
  6
ByLayer
100
AcDbCircle
 10
125.0
 20
85.0
 30
0.0
 40
5.0
100
AcDbArc
 50
270.0
 51
0.0
  0
LINE
  5
6E
100
AcDbEntity
100
AcDbLine
  8
0
 62
256
370
-1
 48
1.0
  6
ByLayer
 10
-89.0
 20
122.0
 30
0.0
 11
-89.0
 21
122.0
 31
0.0
  0
LINE
  5
6F
100
AcDbEntity
100
AcDbLine
  8
0
 62
256
370
-1
 48
1.0
  6
ByLayer
 10
89.0
 20
122.0
 30
0.0
 11
89.0
 21
122.0
 31
0.0
  0
LINE
  5
70
100
AcDbEntity
100
AcDbLine
  8
0
 62
256
370
-1
 48
1.0
  6
ByLayer
 10
108.0
 20
91.0
 30
0.0
 11
110.0
 21
93.0
 31
0.0
  0
MTEXT
  5
71
100
AcDbEntity
100
AcDbMText
  8
0
 62
256
370
-1
 48
1.0
  6
ByLayer
 10
-122.0
 20
135.0
 30
0.0
 40
4.0
 41
0.0
 71
1
 72
1
  1
Jos\U+00e9 \U+00c1ngel Jim\U+00e9nez Vadillo
  7
textstyle0
 50
0.0
 73
2
 44
1.0
  0
HATCH
  5
72
  8
0
 62
256
370
-1
 48
1.0
  6
ByLayer
100
AcDbEntity
100
AcDbHatch
 10
0.0
 20
0.0
 30
0.0
210
0.0
220
0.0
230
1.0
  2
SOLID
 70
1
 71
0
 91
1
 92
1
 93
64
 72
2
 10
50.0000000000000924
 20
131.9028803819159634
 40
1.1488712885744876
 50
294.7150320400102146
 51
245.2849679599898707
 73
1
 72
2
 10
49.497700159611135
 20
130.8115564871183096
 40
0.0524999999999993
 50
294.715032040010783
 51
22.2104053024059596
 73
0
 72
1
 10
49.5463047620433841
 20
130.7917110185574074
 11
48.8575423979880483
 21
129.1048261373772448
 72
2
 10
48.8089377955557993
 20
129.1246716059380333
 40
0.0524999999999996
 50
22.2104053024049399
 51
112.4999999999996163
 73
0
 72
1
 10
48.7888469153565794
 20
129.0761679304811764
 11
48.4147332962070962
 21
129.2311308654013828
 72
2
 10
48.3946424160078763
 20
129.1826271899445828
 40
0.0525000000000003
 50
67.4999999999997442
 51
124.0803113827821988
 73
1
 72
1
 10
48.3652238092673983
 20
129.2261104692303206
 11
47.5424559952050956
 21
128.6694670155116569
 72
2
 10
47.5130373884645181
 20
128.7129502947974515
 40
0.0525000000000003
 50
55.9196886172179077
 51
135.0000000000005116
 73
0
 72
1
 10
47.47591428245223
 20
128.6758271887851492
 11
46.7729468068692924
 21
129.3787946643681153
 72
2
 10
46.8100699128815805
 20
129.4159177703803607
 40
0.0525
 50
134.9999999999993747
 51
214.0803113827814741
 73
0
 72
1
 10
46.7665866335957858
 20
129.4453363771209524
 11
47.3232300873144922
 21
130.2681041911832267
 72
2
 10
47.2797468080286976
 20
130.2975227979237616
 40
0.0524999999999996
 50
325.9196886172172754
 51
22.4999999999996696
 73
1
 72
1
 10
47.3282504834855402
 20
130.3176136781229388
 11
46.9898349629994598
 21
131.134621017397933
 72
2
 10
46.9413312875426172
 20
131.1145301371987557
 40
0.0525
 50
22.50000000000027
 51
79.0803113827827104
 73
1
 72
1
 10
46.951276512874621
 20
131.1660795551692331
 11
45.9758854513815365
 21
131.3542578950071515
 72
2
 10
45.9858306767134408
 20
131.4058073129776858
 40
0.0525000000000003
 50
100.9196886172178012
 51
180.000000000000199
 73
0
 72
1
 10
45.9333306767133891
 20
131.4058073129776858
 11
45.9333306767133891
 21
132.3999534508542411
 72
2
 10
45.9858306767134408
 20
132.3999534508542411
 40
0.0525
 50
180.0000000000001137
 51
259.080311382782611
 73
0
 72
1
 10
45.9758854513815365
 20
132.4515028688247185
 11
46.951276512874621
 21
132.6396812086626369
 72
2
 10
46.9413312875426172
 20
132.6912306266331143
 40
0.0525
 50
280.9196886172176164
 51
337.4999999999998863
 73
1
 72
1
 10
46.9898349629994598
 20
132.671139746433937
 11
47.3282504834855402
 21
133.4881470857089312
 72
2
 10
47.2797468080286976
 20
133.5082379659081653
 40
0.0525000000000003
 50
337.4999999999997158
 51
34.0803113827821988
 73
1
 72
1
 10
47.3232300873144922
 20
133.5376565726486433
 11
46.7665866335957858
 21
134.3604243867109744
 72
2
 10
46.8100699128815805
 20
134.3898429934514525
 40
0.052500000000001
 50
145.9196886172177869
 51
225.0000000000003979
 73
0
 72
1
 10
46.7729468068692924
 20
134.4269660994638116
 11
47.47591428245223
 21
135.1299335750467208
 72
2
 10
47.5130373884645181
 20
135.0928104690344185
 40
0.0525000000000003
 50
225.0000000000007105
 51
304.0803113827822131
 73
0
 72
1
 10
47.5424559952050956
 20
135.1362937483202131
 11
48.3652238092673983
 21
134.5796502946014925
 72
2
 10
48.3946424160078763
 20
134.623133573887344
 40
0.0524999999999996
 50
235.9196886172177301
 51
292.5000000000002274
 73
1
 72
1
 10
48.4147332962070962
 20
134.5746298984304303
 11
49.2317406354821188
 21
134.9130454189165675
 72
2
 10
49.2116497552828989
 20
134.9615490943733676
 40
0.0524999999999986
 50
292.49999999999892
 51
349.0803113827813036
 73
1
 72
1
 10
49.2631991732534189
 20
134.9516038690414916
 11
49.4513775130913373
 21
135.9269949305345335
 72
2
 10
49.5029269310617579
 20
135.9170497052026008
 40
0.0525000000000007
 50
190.919688617217929
 51
270.0
 73
0
 72
1
 10
49.5029269310617579
 20
135.9695497052026099
 11
50.4970730689384268
 21
135.9695497052026099
 72
2
 10
50.4970730689384268
 20
135.9170497052026008
 40
0.0525
 50
270.0000000000003979
 51
349.080311382782611
 73
0
 72
1
 10
50.5486224869088474
 20
135.9269949305345335
 11
50.7368008267467658
 21
134.9516038690414916
 72
2
 10
50.7883502447172859
 20
134.9615490943733676
 40
0.0525000000000014
 50
190.9196886172171048
 51
247.4999999999996021
 73
1
 72
1
 10
50.768259364518066
 20
134.9130454189165675
 11
51.5852667037930885
 21
134.5746298984304303
 72
2
 10
51.6053575839923084
 20
134.623133573887344
 40
0.0525000000000003
 50
247.4999999999996874
 51
304.0803113827822699
 73
1
 72
1
 10
51.6347761907327865
 20
134.5796502946014925
 11
52.4575440047950892
 21
135.1362937483202131
 72
2
 10
52.4869626115356667
 20
135.0928104690344185
 40
0.0525000000000014
 50
235.9196886172177301
 51
314.9999999999992042
 73
0
 72
1
 10
52.5240857175479547
 20
135.1299335750467208
 11
53.2270531931308923
 21
134.4269660994638116
 72
2
 10
53.1899300871186043
 20
134.3898429934514525
 40
0.0525000000000007
 50
315.0000000000001137
 51
34.0803113827830089
 73
0
 72
1
 10
53.2334133664043989
 20
134.3604243867109744
 11
52.6767699126856925
 21
133.5376565726486433
 72
2
 10
52.7202531919714872
 20
133.5082379659081653
 40
0.0524999999999989
 50
145.9196886172177017
 51
202.5
 73
1
 72
1
 10
52.6717495165146445
 20
133.4881470857089312
 11
53.0101650370007249
 21
132.671139746433937
 72
2
 10
53.0586687124575676
 20
132.6912306266331143
 40
0.0525
 50
202.5
 51
259.0803113827823836
 73
1
 72
1
 10
53.0487234871255637
 20
132.6396812086626369
 11
54.0241145486186483
 21
132.4515028688247185
 72
2
 10
54.0141693232867439
 20
132.3999534508542411
 40
0.0525
 50
280.919688617217389
 51
359.9999999999996021
 73
0
 72
1
 10
54.0666693232867956
 20
132.3999534508542411
 11
54.0666693232867956
 21
131.4058073129776858
 72
2
 10
54.0141693232867439
 20
131.4058073129776858
 40
0.0525
 50
0.0000000000004071
 51
79.0803113827825541
 73
0
 72
1
 10
54.0241145486186483
 20
131.3542578950071515
 11
53.0487234871255637
 21
131.1660795551692331
 72
2
 10
53.0586687124575676
 20
131.1145301371987557
 40
0.0525000000000003
 50
100.9196886172182985
 51
157.5000000000007105
 73
1
 72
1
 10
53.0101650370007249
 20
131.134621017397933
 11
52.6717495165146445
 21
130.3176136781229388
 72
2
 10
52.7202531919714872
 20
130.2975227979237616
 40
0.0524999999999996
 50
157.4999999999998863
 51
214.0803113827822131
 73
1
 72
1
 10
52.6767699126856925
 20
130.2681041911832267
 11
53.2334133664043989
 21
129.4453363771209524
 72
2
 10
53.1899300871186043
 20
129.4159177703803607
 40
0.0525000000000003
 50
325.9196886172177869
 51
44.9999999999992824
 73
0
 72
1
 10
53.2270531931308923
 20
129.3787946643681153
 11
52.5240857175479547
 21
128.6758271887851492
 72
2
 10
52.4869626115356667
 20
128.7129502947974515
 40
0.0525
 50
44.9999999999997442
 51
124.0803113827817867
 73
0
 72
1
 10
52.4575440047950892
 20
128.6694670155116569
 11
51.6347761907327865
 21
129.2261104692303206
 72
2
 10
51.6053575839923084
 20
129.1826271899445828
 40
0.0524999999999996
 50
55.9196886172177301
 51
112.500000000000199
 73
1
 72
1
 10
51.5852667037930885
 20
129.2311308654013828
 11
51.2111530846436054
 21
129.0761679304811764
 72
2
 10
51.1910622044443855
 20
129.1246716059380333
 40
0.0525
 50
67.5000000000002274
 51
157.7895946975949073
 73
0
 72
1
 10
51.1424576020121364
 20
129.1048261373772448
 11
50.4536952379568007
 21
130.7917110185574074
 72
2
 10
50.5022998403890497
 20
130.8115564871183096
 40
0.0525
 50
157.7895946975943104
 51
245.2849679599895865
 73
0
 97
0
 75
0
 76
1
 98
0
1001
ACAD
1010
0.0
1020
0.0
1030
0
  0
MTEXT
  5
73
100
AcDbEntity
100
AcDbMText
  8
0
 62
256
370
-1
 48
1.0
  6
ByLayer
 10
122.0
 20
134.0
 30
0.0
 40
4.0
 41
0.0
 71
3
 72
1
  1
Open Source Hardware
  7
textstyle1
 50
0.0
 73
2
 44
1.0
  0
LINE
  5
74
100
AcDbEntity
100
AcDbLine
  8
0
 62
256
370
-1
 48
1.0
  6
ByLayer
 10
-139.9000000000000057
 20
119.0
 30
0.0
 11
-139.9000000000000057
 21
81.0
 31
0.0
  0
LINE
  5
75
100
AcDbEntity
100
AcDbLine
  8
0
 62
256
370
-1
 48
1.0
  6
ByLayer
 10
-133.0999999999999943
 20
81.0
 30
0.0
 11
-133.0999999999999943
 21
99.0
 31
0.0
  0
LINE
  5
76
100
AcDbEntity
100
AcDbLine
  8
0
 62
256
370
-1
 48
1.0
  6
ByLayer
 10
-138.9000000000000057
 20
80.0
 30
0.0
 11
-134.0999999999999943
 21
80.0
 31
0.0
  0
ARC
  5
77
100
AcDbEntity
  8
0
 62
256
370
-1
 48
1.0
  6
ByLayer
100
AcDbCircle
 10
-134.0999999999999943
 20
81.0
 30
0.0
 40
1.0
100
AcDbArc
 50
270.0
 51
0.0
  0
ARC
  5
78
100
AcDbEntity
  8
0
 62
256
370
-1
 48
1.0
  6
ByLayer
100
AcDbCircle
 10
-138.9000000000000057
 20
81.0
 30
0.0
 40
1.0
100
AcDbArc
 50
180.0
 51
270.0
  0
ARC
  5
79
100
AcDbEntity
  8
0
 62
256
370
-1
 48
1.0
  6
ByLayer
100
AcDbCircle
 10
-132.0999999999999943
 20
99.0
 30
0.0
 40
1.0
100
AcDbArc
 50
90.0
 51
180.0
  0
ARC
  5
7A
100
AcDbEntity
  8
0
 62
256
370
-1
 48
1.0
  6
ByLayer
100
AcDbCircle
 10
-131.0
 20
99.0
 30
0.0
 40
1.0
100
AcDbArc
 50
0.0
 51
90.0
  0
LINE
  5
7B
100
AcDbEntity
100
AcDbLine
  8
0
 62
256
370
-1
 48
1.0
  6
ByLayer
 10
92.0
 20
122.0
 30
0.0
 11
90.0
 21
120.0
 31
0.0
  0
LINE
  5
7C
100
AcDbEntity
100
AcDbLine
  8
0
 62
256
370
-1
 48
1.0
  6
ByLayer
 10
92.0
 20
91.0
 30
0.0
 11
90.0
 21
93.0
 31
0.0
  0
LINE
  5
7D
100
AcDbEntity
100
AcDbLine
  8
0
 62
256
370
-1
 48
1.0
  6
ByLayer
 10
108.0
 20
122.0
 30
0.0
 11
110.0
 21
120.0
 31
0.0
  0
LINE
  5
7E
100
AcDbEntity
100
AcDbLine
  8
0
 62
256
370
-1
 48
1.0
  6
ByLayer
 10
92.0
 20
122.0
 30
0.0
 11
108.0
 21
122.0
 31
0.0
  0
LINE
  5
7F
100
AcDbEntity
100
AcDbLine
  8
0
 62
256
370
-1
 48
1.0
  6
ByLayer
 10
92.0
 20
91.0
 30
0.0
 11
108.0
 21
91.0
 31
0.0
  0
LINE
  5
80
100
AcDbEntity
100
AcDbLine
  8
0
 62
256
370
-1
 48
1.0
  6
ByLayer
 10
-89.0
 20
122.0
 30
0.0
 11
-89.0
 21
122.0
 31
0.0
  0
LINE
  5
81
100
AcDbEntity
100
AcDbLine
  8
0
 62
256
370
-1
 48
1.0
  6
ByLayer
 10
-110.0
 20
120.0
 30
0.0
 11
-110.0
 21
93.0000000000003411
 31
0.0
  0
LINE
  5
82
100
AcDbEntity
100
AcDbLine
  8
0
 62
256
370
-1
 48
1.0
  6
ByLayer
 10
-94.0
 20
124.0
 30
0.0
 11
-90.0
 21
120.0
 31
0.0
  0
LINE
  5
83
100
AcDbEntity
100
AcDbLine
  8
0
 62
256
370
-1
 48
1.0
  6
ByLayer
 10
-106.0
 20
124.0
 30
0.0
 11
-110.0
 21
120.0
 31
0.0
  0
LINE
  5
84
100
AcDbEntity
100
AcDbLine
  8
0
 62
256
370
-1
 48
1.0
  6
ByLayer
 10
-94.0000000000000284
 20
124.0
 30
0.0
 11
-106.0000000000000568
 21
124.0
 31
0.0
  0
LINE
  5
85
100
AcDbEntity
100
AcDbLine
  8
0
 62
256
370
-1
 48
1.0
  6
ByLayer
 10
-94.0
 20
89.0
 30
0.0
 11
-90.0
 21
93.0000000000000568
 31
0.0
  0
LINE
  5
86
100
AcDbEntity
100
AcDbLine
  8
0
 62
256
370
-1
 48
1.0
  6
ByLayer
 10
-106.0
 20
89.0
 30
0.0
 11
-110.0
 21
93.0000000000000568
 31
0.0
  0
LINE
  5
87
100
AcDbEntity
100
AcDbLine
  8
0
 62
256
370
-1
 48
1.0
  6
ByLayer
 10
-94.0
 20
89.0
 30
0.0
 11
-106.0000000000000284
 21
89.0000000000000568
 31
0.0
  0
LINE
  5
88
100
AcDbEntity
100
AcDbLine
  8
0
 62
256
370
-1
 48
1.0
  6
ByLayer
 10
-130.0
 20
135.0
 30
0.0
 11
-130.0
 21
121.0
 31
0.0
  0
LINE
  5
89
100
AcDbEntity
100
AcDbLine
  8
0
 62
256
370
-1
 48
1.0
  6
ByLayer
 10
-130.0
 20
99.0
 30
0.0
 11
-130.0
 21
85.0
 31
0.0
  0
LINE
  5
8A
100
AcDbEntity
100
AcDbLine
  8
0
 62
256
370
-1
 48
1.0
  6
ByLayer
 10
139.9000000000000057
 20
118.9999999999999432
 30
0.0
 11
139.9000000000000057
 21
81.0
 31
0.0
  0
LINE
  5
8B
100
AcDbEntity
100
AcDbLine
  8
0
 62
256
370
-1
 48
1.0
  6
ByLayer
 10
133.0999999999999943
 20
80.9999999999998863
 30
0.0
 11
133.0999999999999943
 21
99.0000000000000568
 31
0.0
  0
LINE
  5
8C
100
AcDbEntity
100
AcDbLine
  8
0
 62
256
370
-1
 48
1.0
  6
ByLayer
 10
138.9000000000000341
 20
80.0000000000001137
 30
0.0
 11
134.0999999999999943
 21
80.0000000000000568
 31
0.0
  0
ARC
  5
8D
100
AcDbEntity
  8
0
 62
256
370
-1
 48
1.0
  6
ByLayer
100
AcDbCircle
 10
134.0999999999999943
 20
81.0
 30
0.0
 40
1.0
100
AcDbArc
 50
180.0
 51
270.0
  0
ARC
  5
8E
100
AcDbEntity
  8
0
 62
256
370
-1
 48
1.0
  6
ByLayer
100
AcDbCircle
 10
138.9000000000000057
 20
80.9999999999999432
 30
0.0
 40
1.0
100
AcDbArc
 50
270.0
 51
360.0
  0
ARC
  5
8F
100
AcDbEntity
  8
0
 62
256
370
-1
 48
1.0
  6
ByLayer
100
AcDbCircle
 10
132.0999999999999943
 20
99.0000000000001705
 30
0.0
 40
1.0
100
AcDbArc
 50
360.0
 51
89.9999999999999858
  0
LINE
  5
90
100
AcDbEntity
100
AcDbLine
  8
0
 62
256
370
-1
 48
1.0
  6
ByLayer
 10
130.0
 20
98.9999999999999432
 30
0.0
 11
130.0
 21
84.9999999999999432
 31
0.0
  0
ARC
  5
91
100
AcDbEntity
  8
0
 62
256
370
-1
 48
1.0
  6
ByLayer
100
AcDbCircle
 10
131.0
 20
99.0000000000001137
 30
0.0
 40
1.0
100
AcDbArc
 50
89.9999999999999858
 51
180.0
  0
LINE
  5
92
100
AcDbEntity
100
AcDbLine
  8
0
 62
256
370
-1
 48
1.0
  6
ByLayer
 10
130.0
 20
135.0
 30
0.0
 11
130.0
 21
120.9999999999998295
 31
0.0
  0
LINE
  5
93
100
AcDbEntity
100
AcDbLine
  8
0
 62
256
370
-1
 48
1.0
  6
ByLayer
 10
-125.0
 20
205.0
 30
0.0
 11
125.0
 21
205.0
 31
0.0
  0
LINE
  5
94
100
AcDbEntity
100
AcDbLine
  8
0
 62
256
370
-1
 48
1.0
  6
ByLayer
 10
125.0
 20
145.0
 30
0.0
 11
-125.0
 21
145.0
 31
0.0
  0
ARC
  5
95
100
AcDbEntity
  8
0
 62
256
370
-1
 48
1.0
  6
ByLayer
100
AcDbCircle
 10
-125.0
 20
200.0
 30
0.0
 40
5.0
100
AcDbArc
 50
90.0
 51
180.0
  0
ARC
  5
96
100
AcDbEntity
  8
0
 62
256
370
-1
 48
1.0
  6
ByLayer
100
AcDbCircle
 10
125.0
 20
200.0
 30
0.0
 40
5.0
100
AcDbArc
 50
0.0
 51
90.0
  0
ARC
  5
97
100
AcDbEntity
  8
0
 62
256
370
-1
 48
1.0
  6
ByLayer
100
AcDbCircle
 10
-125.0
 20
150.0
 30
0.0
 40
5.0
100
AcDbArc
 50
180.0
 51
270.0
  0
ARC
  5
98
100
AcDbEntity
  8
0
 62
256
370
-1
 48
1.0
  6
ByLayer
100
AcDbCircle
 10
125.0
 20
150.0
 30
0.0
 40
5.0
100
AcDbArc
 50
270.0
 51
0.0
  0
MTEXT
  5
99
100
AcDbEntity
100
AcDbMText
  8
0
 62
256
370
-1
 48
1.0
  6
ByLayer
 10
-122.0
 20
200.0
 30
0.0
 40
4.0
 41
0.0
 71
1
 72
1
  1
Makespace Madrid
  7
textstyle2
 50
0.0
 73
2
 44
1.0
  0
MTEXT
  5
9A
100
AcDbEntity
100
AcDbMText
  8
0
 62
256
370
-1
 48
1.0
  6
ByLayer
 10
122.0
 20
199.0
 30
0.0
 40
4.0
 41
0.0
 71
3
 72
1
  1
Gu\U+00eda de supervivencia Maker
  7
textstyle3
 50
0.0
 73
2
 44
1.0
  0
LINE
  5
9B
100
AcDbEntity
100
AcDbLine
  8
0
 62
256
370
-1
 48
1.0
  6
ByLayer
 10
-130.0
 20
200.0
 30
0.0
 11
-130.0
 21
186.0
 31
0.0
  0
LINE
  5
9C
100
AcDbEntity
100
AcDbLine
  8
0
 62
256
370
-1
 48
1.0
  6
ByLayer
 10
-130.0
 20
164.0
 30
0.0
 11
-130.0
 21
150.0
 31
0.0
  0
LINE
  5
9D
100
AcDbEntity
100
AcDbLine
  8
0
 62
256
370
-1
 48
1.0
  6
ByLayer
 10
130.0
 20
163.9999999999999432
 30
0.0
 11
130.0
 21
149.9999999999999432
 31
0.0
  0
ARC
  5
9E
100
AcDbEntity
  8
0
 62
256
370
-1
 48
1.0
  6
ByLayer
100
AcDbCircle
 10
131.0
 20
164.0000000000001137
 30
0.0
 40
1.0
100
AcDbArc
 50
89.9999999999999858
 51
180.0
  0
LINE
  5
9F
100
AcDbEntity
100
AcDbLine
  8
0
 62
256
370
-1
 48
1.0
  6
ByLayer
 10
130.0
 20
200.0
 30
0.0
 11
130.0
 21
185.9999999999998295
 31
0.0
  0
LINE
  5
A0
100
AcDbEntity
100
AcDbLine
  8
0
 62
256
370
-1
 48
1.0
  6
ByLayer
 10
-87.0
 20
158.0
 30
0.0
 11
90.0
 21
158.0
 31
0.0
  0
LINE
  5
A1
100
AcDbEntity
100
AcDbLine
  8
0
 62
256
370
-1
 48
1.0
  6
ByLayer
 10
90.0
 20
185.0
 30
0.0
 11
-87.0
 21
185.0
 31
0.0
  0
LINE
  5
A2
100
AcDbEntity
100
AcDbLine
  8
0
 62
256
370
-1
 48
1.0
  6
ByLayer
 10
-91.0
 20
189.0
 30
0.0
 11
-112.0
 21
189.0
 31
0.0
  0
LINE
  5
A3
100
AcDbEntity
100
AcDbLine
  8
0
 62
256
370
-1
 48
1.0
  6
ByLayer
 10
-115.0
 20
186.0
 30
0.0
 11
-115.0
 21
157.0
 31
0.0
  0
LINE
  5
A4
100
AcDbEntity
100
AcDbLine
  8
0
 62
256
370
-1
 48
1.0
  6
ByLayer
 10
113.0
 20
187.0
 30
0.0
 11
92.0
 21
187.0
 31
0.0
  0
LINE
  5
A5
100
AcDbEntity
100
AcDbLine
  8
0
 62
256
370
-1
 48
1.0
  6
ByLayer
 10
115.0
 20
185.0
 30
0.0
 11
115.0
 21
158.0
 31
0.0
  0
LINE
  5
A6
100
AcDbEntity
100
AcDbLine
  8
0
 62
256
370
-1
 48
1.0
  6
ByLayer
 10
-85.0
 20
187.0
 30
0.0
 11
-85.0
 21
187.0
 31
0.0
  0
LINE
  5
A7
100
AcDbEntity
100
AcDbLine
  8
0
 62
256
370
-1
 48
1.0
  6
ByLayer
 10
-85.0
 20
156.0
 30
0.0
 11
-85.0
 21
156.0
 31
0.0
  0
LINE
  5
A8
100
AcDbEntity
100
AcDbLine
  8
0
 62
256
370
-1
 48
1.0
  6
ByLayer
 10
85.0
 20
156.0
 30
0.0
 11
85.0
 21
156.0
 31
0.0
  0
LINE
  5
A9
100
AcDbEntity
100
AcDbLine
  8
0
 62
256
370
-1
 48
1.0
  6
ByLayer
 10
85.0
 20
187.0
 30
0.0
 11
85.0
 21
187.0
 31
0.0
  0
LINE
  5
AA
100
AcDbEntity
100
AcDbLine
  8
0
 62
256
370
-1
 48
1.0
  6
ByLayer
 10
-112.0
 20
189.0
 30
0.0
 11
-115.0
 21
186.0
 31
0.0
  0
LINE
  5
AB
100
AcDbEntity
100
AcDbLine
  8
0
 62
256
370
-1
 48
1.0
  6
ByLayer
 10
-115.0
 20
157.0
 30
0.0
 11
-112.0
 21
154.0
 31
0.0
  0
LINE
  5
AC
100
AcDbEntity
100
AcDbLine
  8
0
 62
256
370
-1
 48
1.0
  6
ByLayer
 10
113.0
 20
187.0
 30
0.0
 11
115.0
 21
185.0
 31
0.0
  0
LINE
  5
AD
100
AcDbEntity
100
AcDbLine
  8
0
 62
256
370
-1
 48
1.0
  6
ByLayer
 10
-91.0
 20
189.0
 30
0.0
 11
-87.0
 21
185.0
 31
0.0
  0
LINE
  5
AE
100
AcDbEntity
100
AcDbLine
  8
0
 62
256
370
-1
 48
1.0
  6
ByLayer
 10
-91.0
 20
154.0
 30
0.0
 11
-112.0
 21
154.0
 31
0.0
  0
LINE
  5
AF
100
AcDbEntity
100
AcDbLine
  8
0
 62
256
370
-1
 48
1.0
  6
ByLayer
 10
-91.0
 20
154.0
 30
0.0
 11
-87.0
 21
158.0
 31
0.0
  0
LINE
  5
B0
100
AcDbEntity
100
AcDbLine
  8
0
 62
256
370
-1
 48
1.0
  6
ByLayer
 10
90.0
 20
185.0
 30
0.0
 11
92.0
 21
187.0
 31
0.0
  0
LINE
  5
B1
100
AcDbEntity
100
AcDbLine
  8
0
 62
256
370
-1
 48
1.0
  6
ByLayer
 10
113.0
 20
156.0
 30
0.0
 11
92.0
 21
156.0
 31
0.0
  0
LINE
  5
B2
100
AcDbEntity
100
AcDbLine
  8
0
 62
256
370
-1
 48
1.0
  6
ByLayer
 10
90.0
 20
158.0
 30
0.0
 11
92.0
 21
156.0
 31
0.0
  0
LINE
  5
B3
100
AcDbEntity
100
AcDbLine
  8
0
 62
256
370
-1
 48
1.0
  6
ByLayer
 10
113.0
 20
156.0
 30
0.0
 11
115.0
 21
158.0
 31
0.0
  0
LINE
  5
B4
100
AcDbEntity
100
AcDbLine
  8
0
 62
256
370
-1
 48
1.0
  6
ByLayer
 10
-125.0
 20
270.0
 30
0.0
 11
125.0
 21
270.0
 31
0.0
  0
LINE
  5
B5
100
AcDbEntity
100
AcDbLine
  8
0
 62
256
370
-1
 48
1.0
  6
ByLayer
 10
125.0
 20
210.0
 30
0.0
 11
-125.0
 21
210.0
 31
0.0
  0
ARC
  5
B6
100
AcDbEntity
  8
0
 62
256
370
-1
 48
1.0
  6
ByLayer
100
AcDbCircle
 10
-125.0
 20
265.0
 30
0.0
 40
5.0
100
AcDbArc
 50
90.0
 51
180.0
  0
ARC
  5
B7
100
AcDbEntity
  8
0
 62
256
370
-1
 48
1.0
  6
ByLayer
100
AcDbCircle
 10
125.0
 20
265.0
 30
0.0
 40
5.0
100
AcDbArc
 50
0.0
 51
90.0
  0
ARC
  5
B8
100
AcDbEntity
  8
0
 62
256
370
-1
 48
1.0
  6
ByLayer
100
AcDbCircle
 10
-125.0
 20
215.0
 30
0.0
 40
5.0
100
AcDbArc
 50
180.0
 51
270.0
  0
ARC
  5
B9
100
AcDbEntity
  8
0
 62
256
370
-1
 48
1.0
  6
ByLayer
100
AcDbCircle
 10
125.0
 20
215.0
 30
0.0
 40
5.0
100
AcDbArc
 50
270.0
 51
0.0
  0
MTEXT
  5
BA
100
AcDbEntity
100
AcDbMText
  8
0
 62
256
370
-1
 48
1.0
  6
ByLayer
 10
-122.0
 20
265.0
 30
0.0
 40
4.0
 41
0.0
 71
1
 72
1
  1
Detector de rayos c\U+00f3smicos
  7
textstyle4
 50
0.0
 73
2
 44
1.0
  0
MTEXT
  5
BB
100
AcDbEntity
100
AcDbMText
  8
0
 62
256
370
-1
 48
1.0
  6
ByLayer
 10
122.0
 20
264.0
 30
0.0
 40
4.0
 41
0.0
 71
3
 72
1
  1
"We are not alone!"
  7
textstyle5
 50
0.0
 73
2
 44
1.0
  0
LINE
  5
BC
100
AcDbEntity
100
AcDbLine
  8
0
 62
256
370
-1
 48
1.0
  6
ByLayer
 10
-130.0
 20
265.0
 30
0.0
 11
-130.0
 21
251.0
 31
0.0
  0
LINE
  5
BD
100
AcDbEntity
100
AcDbLine
  8
0
 62
256
370
-1
 48
1.0
  6
ByLayer
 10
-130.0
 20
229.0
 30
0.0
 11
-130.0
 21
215.0
 31
0.0
  0
LINE
  5
BE
100
AcDbEntity
100
AcDbLine
  8
0
 62
256
370
-1
 48
1.0
  6
ByLayer
 10
130.0
 20
228.9999999999999432
 30
0.0
 11
130.0
 21
214.9999999999999432
 31
0.0
  0
ARC
  5
BF
100
AcDbEntity
  8
0
 62
256
370
-1
 48
1.0
  6
ByLayer
100
AcDbCircle
 10
131.0
 20
229.0000000000001137
 30
0.0
 40
1.0
100
AcDbArc
 50
89.9999999999999858
 51
180.0
  0
LINE
  5
C0
100
AcDbEntity
100
AcDbLine
  8
0
 62
256
370
-1
 48
1.0
  6
ByLayer
 10
130.0
 20
265.0
 30
0.0
 11
130.0
 21
250.9999999999998295
 31
0.0
  0
LINE
  5
C1
100
AcDbEntity
100
AcDbLine
  8
0
 62
256
370
-1
 48
1.0
  6
ByLayer
 10
-87.0
 20
223.0
 30
0.0
 11
90.0
 21
223.0
 31
0.0
  0
LINE
  5
C2
100
AcDbEntity
100
AcDbLine
  8
0
 62
256
370
-1
 48
1.0
  6
ByLayer
 10
90.0
 20
250.0
 30
0.0
 11
-87.0
 21
250.0
 31
0.0
  0
LINE
  5
C3
100
AcDbEntity
100
AcDbLine
  8
0
 62
256
370
-1
 48
1.0
  6
ByLayer
 10
-91.0
 20
254.0
 30
0.0
 11
-112.0
 21
254.0
 31
0.0
  0
LINE
  5
C4
100
AcDbEntity
100
AcDbLine
  8
0
 62
256
370
-1
 48
1.0
  6
ByLayer
 10
-115.0
 20
251.0
 30
0.0
 11
-115.0
 21
222.0
 31
0.0
  0
LINE
  5
C5
100
AcDbEntity
100
AcDbLine
  8
0
 62
256
370
-1
 48
1.0
  6
ByLayer
 10
113.0
 20
252.0
 30
0.0
 11
92.0
 21
252.0
 31
0.0
  0
LINE
  5
C6
100
AcDbEntity
100
AcDbLine
  8
0
 62
256
370
-1
 48
1.0
  6
ByLayer
 10
115.0
 20
250.0
 30
0.0
 11
115.0
 21
223.0
 31
0.0
  0
LINE
  5
C7
100
AcDbEntity
100
AcDbLine
  8
0
 62
256
370
-1
 48
1.0
  6
ByLayer
 10
-85.0
 20
252.0
 30
0.0
 11
-85.0
 21
252.0
 31
0.0
  0
LINE
  5
C8
100
AcDbEntity
100
AcDbLine
  8
0
 62
256
370
-1
 48
1.0
  6
ByLayer
 10
-85.0
 20
221.0
 30
0.0
 11
-85.0
 21
221.0
 31
0.0
  0
LINE
  5
C9
100
AcDbEntity
100
AcDbLine
  8
0
 62
256
370
-1
 48
1.0
  6
ByLayer
 10
85.0
 20
221.0
 30
0.0
 11
85.0
 21
221.0
 31
0.0
  0
LINE
  5
CA
100
AcDbEntity
100
AcDbLine
  8
0
 62
256
370
-1
 48
1.0
  6
ByLayer
 10
85.0
 20
252.0
 30
0.0
 11
85.0
 21
252.0
 31
0.0
  0
LINE
  5
CB
100
AcDbEntity
100
AcDbLine
  8
0
 62
256
370
-1
 48
1.0
  6
ByLayer
 10
-112.0
 20
254.0
 30
0.0
 11
-115.0
 21
251.0
 31
0.0
  0
LINE
  5
CC
100
AcDbEntity
100
AcDbLine
  8
0
 62
256
370
-1
 48
1.0
  6
ByLayer
 10
-115.0
 20
222.0
 30
0.0
 11
-112.0
 21
219.0
 31
0.0
  0
LINE
  5
CD
100
AcDbEntity
100
AcDbLine
  8
0
 62
256
370
-1
 48
1.0
  6
ByLayer
 10
113.0
 20
252.0
 30
0.0
 11
115.0
 21
250.0
 31
0.0
  0
LINE
  5
CE
100
AcDbEntity
100
AcDbLine
  8
0
 62
256
370
-1
 48
1.0
  6
ByLayer
 10
-91.0
 20
254.0
 30
0.0
 11
-87.0
 21
250.0
 31
0.0
  0
LINE
  5
CF
100
AcDbEntity
100
AcDbLine
  8
0
 62
256
370
-1
 48
1.0
  6
ByLayer
 10
-91.0
 20
219.0
 30
0.0
 11
-112.0
 21
219.0
 31
0.0
  0
LINE
  5
D0
100
AcDbEntity
100
AcDbLine
  8
0
 62
256
370
-1
 48
1.0
  6
ByLayer
 10
-91.0
 20
219.0
 30
0.0
 11
-87.0
 21
223.0
 31
0.0
  0
LINE
  5
D1
100
AcDbEntity
100
AcDbLine
  8
0
 62
256
370
-1
 48
1.0
  6
ByLayer
 10
90.0
 20
250.0
 30
0.0
 11
92.0
 21
252.0
 31
0.0
  0
LINE
  5
D2
100
AcDbEntity
100
AcDbLine
  8
0
 62
256
370
-1
 48
1.0
  6
ByLayer
 10
113.0
 20
221.0
 30
0.0
 11
92.0
 21
221.0
 31
0.0
  0
LINE
  5
D3
100
AcDbEntity
100
AcDbLine
  8
0
 62
256
370
-1
 48
1.0
  6
ByLayer
 10
90.0
 20
223.0
 30
0.0
 11
92.0
 21
221.0
 31
0.0
  0
LINE
  5
D4
100
AcDbEntity
100
AcDbLine
  8
0
 62
256
370
-1
 48
1.0
  6
ByLayer
 10
113.0
 20
221.0
 30
0.0
 11
115.0
 21
223.0
 31
0.0
  0
LINE
  5
D5
100
AcDbEntity
100
AcDbLine
  8
0
 62
256
370
-1
 48
1.0
  6
ByLayer
 10
-125.0
 20
75.0
 30
0.0
 11
125.0
 21
75.0
 31
0.0
  0
LINE
  5
D6
100
AcDbEntity
100
AcDbLine
  8
0
 62
256
370
-1
 48
1.0
  6
ByLayer
 10
125.0
 20
0.0
 30
0.0
 11
-125.0
 21
0.0
 31
0.0
  0
ARC
  5
D7
100
AcDbEntity
  8
0
 62
256
370
-1
 48
1.0
  6
ByLayer
100
AcDbCircle
 10
-125.0
 20
70.0
 30
0.0
 40
5.0
100
AcDbArc
 50
90.0
 51
180.0
  0
ARC
  5
D8
100
AcDbEntity
  8
0
 62
256
370
-1
 48
1.0
  6
ByLayer
100
AcDbCircle
 10
125.0
 20
70.0
 30
0.0
 40
5.0
100
AcDbArc
 50
0.0
 51
90.0
  0
ARC
  5
D9
100
AcDbEntity
  8
0
 62
256
370
-1
 48
1.0
  6
ByLayer
100
AcDbCircle
 10
-125.0
 20
5.0
 30
0.0
 40
5.0
100
AcDbArc
 50
180.0
 51
270.0
  0
ARC
  5
DA
100
AcDbEntity
  8
0
 62
256
370
-1
 48
1.0
  6
ByLayer
100
AcDbCircle
 10
125.0
 20
5.0
 30
0.0
 40
5.0
100
AcDbArc
 50
270.0
 51
0.0
  0
LINE
  5
DB
100
AcDbEntity
100
AcDbLine
  8
0
 62
256
370
-1
 48
1.0
  6
ByLayer
 10
-108.0
 20
11.0
 30
0.0
 11
2.0
 21
11.0
 31
0.0
  0
LINE
  5
DC
100
AcDbEntity
100
AcDbLine
  8
0
 62
256
370
-1
 48
1.0
  6
ByLayer
 10
4.0
 20
13.0
 30
0.0
 11
4.0
 21
20.0
 31
0.0
  0
LINE
  5
DD
100
AcDbEntity
100
AcDbLine
  8
0
 62
256
370
-1
 48
1.0
  6
ByLayer
 10
2.0
 20
22.0
 30
0.0
 11
-108.0
 21
22.0000000000000568
 31
0.0
  0
ARC
  5
DE
100
AcDbEntity
  8
0
 62
256
370
-1
 48
1.0
  6
ByLayer
100
AcDbCircle
 10
2.0
 20
13.0
 30
0.0
 40
2.0
100
AcDbArc
 50
270.0
 51
0.0
  0
ARC
  5
DF
100
AcDbEntity
  8
0
 62
256
370
-1
 48
1.0
  6
ByLayer
100
AcDbCircle
 10
2.0
 20
20.0
 30
0.0
 40
2.0
100
AcDbArc
 50
0.0
 51
90.0
  0
LINE
  5
E0
100
AcDbEntity
100
AcDbLine
  8
0
 62
256
370
-1
 48
1.0
  6
ByLayer
 10
-110.0
 20
12.9999999999999432
 30
0.0
 11
-110.0
 21
20.0000000000003411
 31
0.0
  0
ARC
  5
E1
100
AcDbEntity
  8
0
 62
256
370
-1
 48
1.0
  6
ByLayer
100
AcDbCircle
 10
-108.0
 20
13.0
 30
0.0
 40
2.0
100
AcDbArc
 50
180.0
 51
270.0
  0
ARC
  5
E2
100
AcDbEntity
  8
0
 62
256
370
-1
 48
1.0
  6
ByLayer
100
AcDbCircle
 10
-108.0
 20
20.0000000000000568
 30
0.0
 40
2.0
100
AcDbArc
 50
89.9999999999999858
 51
180.0
  0
LINE
  5
E3
100
AcDbEntity
100
AcDbLine
  8
0
 62
256
370
-1
 48
1.0
  6
ByLayer
 10
-108.0
 20
32.0
 30
0.0
 11
2.0
 21
32.0
 31
0.0
  0
LINE
  5
E4
100
AcDbEntity
100
AcDbLine
  8
0
 62
256
370
-1
 48
1.0
  6
ByLayer
 10
4.0
 20
34.0
 30
0.0
 11
4.0
 21
41.0
 31
0.0
  0
LINE
  5
E5
100
AcDbEntity
100
AcDbLine
  8
0
 62
256
370
-1
 48
1.0
  6
ByLayer
 10
2.0
 20
43.0
 30
0.0
 11
-108.0
 21
43.0000000000000568
 31
0.0
  0
ARC
  5
E6
100
AcDbEntity
  8
0
 62
256
370
-1
 48
1.0
  6
ByLayer
100
AcDbCircle
 10
2.0
 20
34.0
 30
0.0
 40
2.0
100
AcDbArc
 50
270.0
 51
0.0
  0
ARC
  5
E7
100
AcDbEntity
  8
0
 62
256
370
-1
 48
1.0
  6
ByLayer
100
AcDbCircle
 10
2.0
 20
41.0
 30
0.0
 40
2.0
100
AcDbArc
 50
0.0
 51
90.0
  0
LINE
  5
E8
100
AcDbEntity
100
AcDbLine
  8
0
 62
256
370
-1
 48
1.0
  6
ByLayer
 10
-110.0
 20
33.9999999999999432
 30
0.0
 11
-110.0
 21
41.0000000000003411
 31
0.0
  0
ARC
  5
E9
100
AcDbEntity
  8
0
 62
256
370
-1
 48
1.0
  6
ByLayer
100
AcDbCircle
 10
-108.0
 20
34.0
 30
0.0
 40
2.0
100
AcDbArc
 50
180.0
 51
270.0
  0
ARC
  5
EA
100
AcDbEntity
  8
0
 62
256
370
-1
 48
1.0
  6
ByLayer
100
AcDbCircle
 10
-108.0
 20
41.0000000000000568
 30
0.0
 40
2.0
100
AcDbArc
 50
89.9999999999999858
 51
180.0
  0
LINE
  5
EB
100
AcDbEntity
100
AcDbLine
  8
0
 62
256
370
-1
 48
1.0
  6
ByLayer
 10
-108.0
 20
53.0
 30
0.0
 11
2.0
 21
53.0
 31
0.0
  0
LINE
  5
EC
100
AcDbEntity
100
AcDbLine
  8
0
 62
256
370
-1
 48
1.0
  6
ByLayer
 10
4.0
 20
55.0
 30
0.0
 11
4.0
 21
62.0
 31
0.0
  0
LINE
  5
ED
100
AcDbEntity
100
AcDbLine
  8
0
 62
256
370
-1
 48
1.0
  6
ByLayer
 10
2.0
 20
64.0
 30
0.0
 11
-108.0
 21
64.0000000000000568
 31
0.0
  0
ARC
  5
EE
100
AcDbEntity
  8
0
 62
256
370
-1
 48
1.0
  6
ByLayer
100
AcDbCircle
 10
2.0
 20
55.0
 30
0.0
 40
2.0
100
AcDbArc
 50
270.0
 51
0.0
  0
ARC
  5
EF
100
AcDbEntity
  8
0
 62
256
370
-1
 48
1.0
  6
ByLayer
100
AcDbCircle
 10
2.0
 20
62.0
 30
0.0
 40
2.0
100
AcDbArc
 50
0.0
 51
90.0
  0
LINE
  5
F0
100
AcDbEntity
100
AcDbLine
  8
0
 62
256
370
-1
 48
1.0
  6
ByLayer
 10
-110.0
 20
54.9999999999999432
 30
0.0
 11
-110.0
 21
62.0000000000003411
 31
0.0
  0
ARC
  5
F1
100
AcDbEntity
  8
0
 62
256
370
-1
 48
1.0
  6
ByLayer
100
AcDbCircle
 10
-108.0
 20
55.0
 30
0.0
 40
2.0
100
AcDbArc
 50
180.0
 51
270.0
  0
ARC
  5
F2
100
AcDbEntity
  8
0
 62
256
370
-1
 48
1.0
  6
ByLayer
100
AcDbCircle
 10
-108.0
 20
62.0000000000000568
 30
0.0
 40
2.0
100
AcDbArc
 50
89.9999999999999858
 51
180.0
  0
LINE
  5
F3
100
AcDbEntity
100
AcDbLine
  8
0
 62
256
370
-1
 48
1.0
  6
ByLayer
 10
20.0
 20
22.5
 30
0.0
 11
110.0
 21
22.5
 31
0.0
  0
LINE
  5
F4
100
AcDbEntity
100
AcDbLine
  8
0
 62
256
370
-1
 48
1.0
  6
ByLayer
 10
110.0
 20
22.5
 30
0.0
 11
110.0
 21
52.5
 31
0.0
  0
LINE
  5
F5
100
AcDbEntity
100
AcDbLine
  8
0
 62
256
370
-1
 48
1.0
  6
ByLayer
 10
110.0
 20
52.5
 30
0.0
 11
20.0
 21
52.5
 31
0.0
  0
LINE
  5
F6
100
AcDbEntity
100
AcDbLine
  8
0
 62
256
370
-1
 48
1.0
  6
ByLayer
 10
20.0
 20
52.5
 30
0.0
 11
20.0
 21
22.5
 31
0.0
  0
MTEXT
  5
F7
100
AcDbEntity
100
AcDbMText
  8
0
 62
256
370
-1
 48
1.0
  6
ByLayer
 10
-109.0
 20
69.0
 30
0.0
 40
3.0
 41
0.0
 71
1
 72
1
  1
tube #\fAmerican Typewriter|b0|i0|c0|p0;1
  7
textstyle6
 50
0.0
 73
2
 44
1.0
  0
MTEXT
  5
F8
100
AcDbEntity
100
AcDbMText
  8
0
 62
256
370
-1
 48
1.0
  6
ByLayer
 10
-109.0
 20
48.0
 30
0.0
 40
3.0
 41
0.0
 71
1
 72
1
  1
tube #2
  7
textstyle7
 50
0.0
 73
2
 44
1.0
  0
MTEXT
  5
F9
100
AcDbEntity
100
AcDbMText
  8
0
 62
256
370
-1
 48
1.0
  6
ByLayer
 10
-109.0
 20
27.0
 30
0.0
 40
3.0
 41
0.0
 71
1
 72
1
  1
tube #3
  7
textstyle8
 50
0.0
 73
2
 44
1.0
  0
MTEXT
  5
FA
100
AcDbEntity
100
AcDbMText
  8
0
 62
256
370
-1
 48
1.0
  6
ByLayer
 10
21.0
 20
64.0
 30
0.0
 40
5.0
 41
0.0
 71
1
 72
1
  1
\fAmerican Typewriter|b0|i0|c0|p0;\U+00a1PELIGRO! \U+00a1Alta tensi\U+00f3n!
  7
textstyle9
 50
0.0
 73
2
 44
1.0
  0
MTEXT
  5
FB
100
AcDbEntity
100
AcDbMText
  8
0
 62
256
370
-1
 48
1.0
  6
ByLayer
 10
23.0
 20
19.5
 30
0.0
 40
3.0
 41
0.0
 71
1
 72
1
  1
\fAmerican Typewriter|b0|i0|c0|p0;Triple contador Geiger-M\U+00fcller
  7
textstyle10
 50
0.0
 73
2
 44
1.0
  0
LINE
  5
FC
100
AcDbEntity
100
AcDbLine
  8
0
 62
256
370
-1
 48
1.0
  6
ByLayer
 10
201.0
 20
0.0
 30
0.0
 11
250.0
 21
0.0
 31
0.0
  0
LINE
  5
FD
100
AcDbEntity
100
AcDbLine
  8
0
 62
256
370
-1
 48
1.0
  6
ByLayer
 10
250.0
 20
285.0
 30
0.0
 11
240.0
 21
285.0
 31
0.0
  0
LINE
  5
FE
100
AcDbEntity
100
AcDbLine
  8
0
 62
256
370
-1
 48
1.0
  6
ByLayer
 10
235.0
 20
280.0
 30
0.0
 11
235.0
 21
125.0
 31
0.0
  0
LINE
  5
FF
100
AcDbEntity
100
AcDbLine
  8
0
 62
256
370
-1
 48
1.0
  6
ByLayer
 10
200.0
 20
1.0
 30
0.0
 11
200.0
 21
25.0
 31
0.0
  0
LINE
  5
100
100
AcDbEntity
100
AcDbLine
  8
0
 62
256
370
-1
 48
1.0
  6
ByLayer
 10
200.0
 20
25.0
 30
0.0
 11
235.0
 21
125.0
 31
0.0
  0
LINE
  5
101
100
AcDbEntity
100
AcDbLine
  8
0
 62
256
370
-1
 48
1.0
  6
ByLayer
 10
298.9999999999998863
 20
0.0
 30
0.0
 11
249.9999999999999432
 21
0.0
 31
0.0
  0
LINE
  5
102
100
AcDbEntity
100
AcDbLine
  8
0
 62
256
370
-1
 48
1.0
  6
ByLayer
 10
250.0
 20
285.0
 30
0.0
 11
260.0
 21
285.0
 31
0.0
  0
LINE
  5
103
100
AcDbEntity
100
AcDbLine
  8
0
 62
256
370
-1
 48
1.0
  6
ByLayer
 10
265.0
 20
280.0
 30
0.0
 11
264.9999999999999432
 21
125.0
 31
0.0
  0
LINE
  5
104
100
AcDbEntity
100
AcDbLine
  8
0
 62
256
370
-1
 48
1.0
  6
ByLayer
 10
299.9999999999998863
 20
1.0
 30
0.0
 11
299.9999999999999432
 21
25.0
 31
0.0
  0
LINE
  5
105
100
AcDbEntity
100
AcDbLine
  8
0
 62
256
370
-1
 48
1.0
  6
ByLayer
 10
299.9999999999999432
 20
24.9999999999999432
 30
0.0
 11
264.9999999999999432
 21
125.0
 31
0.0
  0
ARC
  5
106
100
AcDbEntity
  8
0
 62
256
370
-1
 48
1.0
  6
ByLayer
100
AcDbCircle
 10
240.0
 20
280.0
 30
0.0
 40
5.0
100
AcDbArc
 50
90.0
 51
180.0
  0
ARC
  5
107
100
AcDbEntity
  8
0
 62
256
370
-1
 48
1.0
  6
ByLayer
100
AcDbCircle
 10
260.0
 20
280.0
 30
0.0
 40
5.0
100
AcDbArc
 50
0.0
 51
90.0
  0
ARC
  5
108
100
AcDbEntity
  8
0
 62
256
370
-1
 48
1.0
  6
ByLayer
100
AcDbCircle
 10
298.9999999999998863
 20
1.0
 30
0.0
 40
1.0
100
AcDbArc
 50
270.0
 51
360.0
  0
ARC
  5
109
100
AcDbEntity
  8
0
 62
256
370
-1
 48
1.0
  6
ByLayer
100
AcDbCircle
 10
201.0
 20
1.0
 30
0.0
 40
1.0
100
AcDbArc
 50
180.0
 51
270.0
  0
LINE
  5
10A
100
AcDbEntity
100
AcDbLine
  8
0
 62
256
370
-1
 48
1.0
  6
ByLayer
 10
130.0
 20
120.9999999999998295
 30
0.0
 11
139.9000000000000057
 21
118.9999999999999432
 31
0.0
  0
LINE
  5
10B
100
AcDbEntity
100
AcDbLine
  8
0
 62
256
370
-1
 48
1.0
  6
ByLayer
 10
131.0
 20
100.0000000000001137
 30
0.0
 11
132.0999999999999943
 21
100.0000000000001705
 31
0.0
  0
LINE
  5
10C
100
AcDbEntity
100
AcDbLine
  8
0
 62
256
370
-1
 48
1.0
  6
ByLayer
 10
139.9000000000000057
 20
183.9999999999999432
 30
0.0
 11
139.9000000000000057
 21
146.0
 31
0.0
  0
LINE
  5
10D
100
AcDbEntity
100
AcDbLine
  8
0
 62
256
370
-1
 48
1.0
  6
ByLayer
 10
133.0999999999999943
 20
145.9999999999998863
 30
0.0
 11
133.0999999999999943
 21
164.0000000000000568
 31
0.0
  0
LINE
  5
10E
100
AcDbEntity
100
AcDbLine
  8
0
 62
256
370
-1
 48
1.0
  6
ByLayer
 10
138.9000000000000341
 20
145.0000000000001137
 30
0.0
 11
134.0999999999999943
 21
145.0000000000000568
 31
0.0
  0
ARC
  5
10F
100
AcDbEntity
  8
0
 62
256
370
-1
 48
1.0
  6
ByLayer
100
AcDbCircle
 10
134.0999999999999943
 20
146.0
 30
0.0
 40
1.0
100
AcDbArc
 50
180.0
 51
270.0
  0
ARC
  5
110
100
AcDbEntity
  8
0
 62
256
370
-1
 48
1.0
  6
ByLayer
100
AcDbCircle
 10
138.9000000000000057
 20
145.9999999999999432
 30
0.0
 40
1.0
100
AcDbArc
 50
270.0
 51
360.0
  0
ARC
  5
111
100
AcDbEntity
  8
0
 62
256
370
-1
 48
1.0
  6
ByLayer
100
AcDbCircle
 10
132.0999999999999943
 20
164.0000000000001705
 30
0.0
 40
1.0
100
AcDbArc
 50
360.0
 51
89.9999999999999858
  0
LINE
  5
112
100
AcDbEntity
100
AcDbLine
  8
0
 62
256
370
-1
 48
1.0
  6
ByLayer
 10
130.0
 20
185.9999999999998295
 30
0.0
 11
139.9000000000000057
 21
183.9999999999999432
 31
0.0
  0
LINE
  5
113
100
AcDbEntity
100
AcDbLine
  8
0
 62
256
370
-1
 48
1.0
  6
ByLayer
 10
131.0
 20
165.0000000000001137
 30
0.0
 11
132.0999999999999943
 21
165.0000000000001705
 31
0.0
  0
LINE
  5
114
100
AcDbEntity
100
AcDbLine
  8
0
 62
256
370
-1
 48
1.0
  6
ByLayer
 10
139.9000000000000057
 20
248.9999999999999432
 30
0.0
 11
139.9000000000000057
 21
211.0
 31
0.0
  0
LINE
  5
115
100
AcDbEntity
100
AcDbLine
  8
0
 62
256
370
-1
 48
1.0
  6
ByLayer
 10
133.0999999999999943
 20
210.9999999999998863
 30
0.0
 11
133.0999999999999943
 21
229.0000000000000568
 31
0.0
  0
LINE
  5
116
100
AcDbEntity
100
AcDbLine
  8
0
 62
256
370
-1
 48
1.0
  6
ByLayer
 10
138.9000000000000341
 20
210.0000000000001137
 30
0.0
 11
134.0999999999999943
 21
210.0000000000000568
 31
0.0
  0
ARC
  5
117
100
AcDbEntity
  8
0
 62
256
370
-1
 48
1.0
  6
ByLayer
100
AcDbCircle
 10
134.0999999999999943
 20
211.0
 30
0.0
 40
1.0
100
AcDbArc
 50
180.0
 51
270.0
  0
ARC
  5
118
100
AcDbEntity
  8
0
 62
256
370
-1
 48
1.0
  6
ByLayer
100
AcDbCircle
 10
138.9000000000000057
 20
210.9999999999999432
 30
0.0
 40
1.0
100
AcDbArc
 50
270.0
 51
360.0
  0
ARC
  5
119
100
AcDbEntity
  8
0
 62
256
370
-1
 48
1.0
  6
ByLayer
100
AcDbCircle
 10
132.0999999999999943
 20
229.0000000000001705
 30
0.0
 40
1.0
100
AcDbArc
 50
360.0
 51
89.9999999999999858
  0
LINE
  5
11A
100
AcDbEntity
100
AcDbLine
  8
0
 62
256
370
-1
 48
1.0
  6
ByLayer
 10
130.0
 20
250.9999999999998295
 30
0.0
 11
139.9000000000000057
 21
248.9999999999999432
 31
0.0
  0
LINE
  5
11B
100
AcDbEntity
100
AcDbLine
  8
0
 62
256
370
-1
 48
1.0
  6
ByLayer
 10
131.0
 20
230.0000000000001137
 30
0.0
 11
132.0999999999999943
 21
230.0000000000001705
 31
0.0
  0
LINE
  5
11C
100
AcDbEntity
100
AcDbLine
  8
0
 62
256
370
-1
 48
1.0
  6
ByLayer
 10
139.9000000000000057
 20
48.9999999999999432
 30
0.0
 11
139.9000000000000057
 21
11.0
 31
0.0
  0
LINE
  5
11D
100
AcDbEntity
100
AcDbLine
  8
0
 62
256
370
-1
 48
1.0
  6
ByLayer
 10
133.0999999999999943
 20
10.9999999999998863
 30
0.0
 11
133.0999999999999943
 21
29.0000000000000568
 31
0.0
  0
LINE
  5
11E
100
AcDbEntity
100
AcDbLine
  8
0
 62
256
370
-1
 48
1.0
  6
ByLayer
 10
138.9000000000000341
 20
10.0000000000001137
 30
0.0
 11
134.0999999999999943
 21
10.0000000000000568
 31
0.0
  0
ARC
  5
11F
100
AcDbEntity
  8
0
 62
256
370
-1
 48
1.0
  6
ByLayer
100
AcDbCircle
 10
134.0999999999999943
 20
11.0
 30
0.0
 40
1.0
100
AcDbArc
 50
180.0
 51
270.0
  0
ARC
  5
120
100
AcDbEntity
  8
0
 62
256
370
-1
 48
1.0
  6
ByLayer
100
AcDbCircle
 10
138.9000000000000057
 20
10.9999999999999432
 30
0.0
 40
1.0
100
AcDbArc
 50
270.0
 51
360.0
  0
ARC
  5
121
100
AcDbEntity
  8
0
 62
256
370
-1
 48
1.0
  6
ByLayer
100
AcDbCircle
 10
132.0999999999999943
 20
29.0000000000001705
 30
0.0
 40
1.0
100
AcDbArc
 50
360.0
 51
89.9999999999999858
  0
LINE
  5
122
100
AcDbEntity
100
AcDbLine
  8
0
 62
256
370
-1
 48
1.0
  6
ByLayer
 10
130.0
 20
28.9999999999999432
 30
0.0
 11
130.0
 21
5.0
 31
0.0
  0
ARC
  5
123
100
AcDbEntity
  8
0
 62
256
370
-1
 48
1.0
  6
ByLayer
100
AcDbCircle
 10
131.0
 20
29.0000000000001137
 30
0.0
 40
1.0
100
AcDbArc
 50
89.9999999999999858
 51
180.0
  0
LINE
  5
124
100
AcDbEntity
100
AcDbLine
  8
0
 62
256
370
-1
 48
1.0
  6
ByLayer
 10
130.0
 20
70.0
 30
0.0
 11
130.0
 21
50.9999999999998295
 31
0.0
  0
LINE
  5
125
100
AcDbEntity
100
AcDbLine
  8
0
 62
256
370
-1
 48
1.0
  6
ByLayer
 10
130.0
 20
50.9999999999998295
 30
0.0
 11
139.9000000000000057
 21
48.9999999999999432
 31
0.0
  0
LINE
  5
126
100
AcDbEntity
100
AcDbLine
  8
0
 62
256
370
-1
 48
1.0
  6
ByLayer
 10
131.0
 20
30.0000000000001137
 30
0.0
 11
132.0999999999999943
 21
30.0000000000001705
 31
0.0
  0
LINE
  5
127
100
AcDbEntity
100
AcDbLine
  8
0
 62
256
370
-1
 48
1.0
  6
ByLayer
 10
-132.0999999999999943
 20
100.0
 30
0.0
 11
-131.0
 21
100.0
 31
0.0
  0
LINE
  5
128
100
AcDbEntity
100
AcDbLine
  8
0
 62
256
370
-1
 48
1.0
  6
ByLayer
 10
-139.9000000000000057
 20
119.0
 30
0.0
 11
-130.0
 21
121.0
 31
0.0
  0
LINE
  5
129
100
AcDbEntity
100
AcDbLine
  8
0
 62
256
370
-1
 48
1.0
  6
ByLayer
 10
-139.9000000000000057
 20
184.0
 30
0.0
 11
-139.9000000000000057
 21
146.0
 31
0.0
  0
LINE
  5
12A
100
AcDbEntity
100
AcDbLine
  8
0
 62
256
370
-1
 48
1.0
  6
ByLayer
 10
-133.0999999999999943
 20
146.0
 30
0.0
 11
-133.0999999999999943
 21
164.0
 31
0.0
  0
LINE
  5
12B
100
AcDbEntity
100
AcDbLine
  8
0
 62
256
370
-1
 48
1.0
  6
ByLayer
 10
-138.9000000000000057
 20
145.0
 30
0.0
 11
-134.0999999999999943
 21
145.0
 31
0.0
  0
ARC
  5
12C
100
AcDbEntity
  8
0
 62
256
370
-1
 48
1.0
  6
ByLayer
100
AcDbCircle
 10
-134.0999999999999943
 20
146.0
 30
0.0
 40
1.0
100
AcDbArc
 50
270.0
 51
0.0
  0
ARC
  5
12D
100
AcDbEntity
  8
0
 62
256
370
-1
 48
1.0
  6
ByLayer
100
AcDbCircle
 10
-138.9000000000000057
 20
146.0
 30
0.0
 40
1.0
100
AcDbArc
 50
180.0
 51
270.0
  0
ARC
  5
12E
100
AcDbEntity
  8
0
 62
256
370
-1
 48
1.0
  6
ByLayer
100
AcDbCircle
 10
-132.0999999999999943
 20
164.0
 30
0.0
 40
1.0
100
AcDbArc
 50
90.0
 51
180.0
  0
ARC
  5
12F
100
AcDbEntity
  8
0
 62
256
370
-1
 48
1.0
  6
ByLayer
100
AcDbCircle
 10
-131.0
 20
164.0
 30
0.0
 40
1.0
100
AcDbArc
 50
0.0
 51
90.0
  0
LINE
  5
130
100
AcDbEntity
100
AcDbLine
  8
0
 62
256
370
-1
 48
1.0
  6
ByLayer
 10
-132.0999999999999943
 20
165.0
 30
0.0
 11
-131.0
 21
165.0
 31
0.0
  0
LINE
  5
131
100
AcDbEntity
100
AcDbLine
  8
0
 62
256
370
-1
 48
1.0
  6
ByLayer
 10
-139.9000000000000057
 20
184.0
 30
0.0
 11
-130.0
 21
186.0
 31
0.0
  0
LINE
  5
132
100
AcDbEntity
100
AcDbLine
  8
0
 62
256
370
-1
 48
1.0
  6
ByLayer
 10
-139.9000000000000057
 20
249.0
 30
0.0
 11
-139.9000000000000057
 21
211.0
 31
0.0
  0
LINE
  5
133
100
AcDbEntity
100
AcDbLine
  8
0
 62
256
370
-1
 48
1.0
  6
ByLayer
 10
-133.0999999999999943
 20
211.0
 30
0.0
 11
-133.0999999999999943
 21
229.0
 31
0.0
  0
LINE
  5
134
100
AcDbEntity
100
AcDbLine
  8
0
 62
256
370
-1
 48
1.0
  6
ByLayer
 10
-138.9000000000000057
 20
210.0
 30
0.0
 11
-134.0999999999999943
 21
210.0
 31
0.0
  0
ARC
  5
135
100
AcDbEntity
  8
0
 62
256
370
-1
 48
1.0
  6
ByLayer
100
AcDbCircle
 10
-134.0999999999999943
 20
211.0
 30
0.0
 40
1.0
100
AcDbArc
 50
270.0
 51
0.0
  0
ARC
  5
136
100
AcDbEntity
  8
0
 62
256
370
-1
 48
1.0
  6
ByLayer
100
AcDbCircle
 10
-138.9000000000000057
 20
211.0
 30
0.0
 40
1.0
100
AcDbArc
 50
180.0
 51
270.0
  0
ARC
  5
137
100
AcDbEntity
  8
0
 62
256
370
-1
 48
1.0
  6
ByLayer
100
AcDbCircle
 10
-132.0999999999999943
 20
229.0
 30
0.0
 40
1.0
100
AcDbArc
 50
90.0
 51
180.0
  0
ARC
  5
138
100
AcDbEntity
  8
0
 62
256
370
-1
 48
1.0
  6
ByLayer
100
AcDbCircle
 10
-131.0
 20
229.0
 30
0.0
 40
1.0
100
AcDbArc
 50
0.0
 51
90.0
  0
LINE
  5
139
100
AcDbEntity
100
AcDbLine
  8
0
 62
256
370
-1
 48
1.0
  6
ByLayer
 10
-132.0999999999999943
 20
230.0
 30
0.0
 11
-131.0
 21
230.0
 31
0.0
  0
LINE
  5
13A
100
AcDbEntity
100
AcDbLine
  8
0
 62
256
370
-1
 48
1.0
  6
ByLayer
 10
-139.9000000000000057
 20
249.0
 30
0.0
 11
-130.0
 21
251.0
 31
0.0
  0
LINE
  5
13B
100
AcDbEntity
100
AcDbLine
  8
0
 62
256
370
-1
 48
1.0
  6
ByLayer
 10
-139.9000000000000057
 20
49.0
 30
0.0
 11
-139.9000000000000057
 21
11.0
 31
0.0
  0
LINE
  5
13C
100
AcDbEntity
100
AcDbLine
  8
0
 62
256
370
-1
 48
1.0
  6
ByLayer
 10
-133.0999999999999943
 20
11.0
 30
0.0
 11
-133.0999999999999943
 21
29.0
 31
0.0
  0
LINE
  5
13D
100
AcDbEntity
100
AcDbLine
  8
0
 62
256
370
-1
 48
1.0
  6
ByLayer
 10
-138.9000000000000057
 20
10.0
 30
0.0
 11
-134.0999999999999943
 21
10.0
 31
0.0
  0
ARC
  5
13E
100
AcDbEntity
  8
0
 62
256
370
-1
 48
1.0
  6
ByLayer
100
AcDbCircle
 10
-134.0999999999999943
 20
11.0
 30
0.0
 40
1.0
100
AcDbArc
 50
270.0
 51
0.0
  0
ARC
  5
13F
100
AcDbEntity
  8
0
 62
256
370
-1
 48
1.0
  6
ByLayer
100
AcDbCircle
 10
-138.9000000000000057
 20
11.0
 30
0.0
 40
1.0
100
AcDbArc
 50
180.0
 51
270.0
  0
ARC
  5
140
100
AcDbEntity
  8
0
 62
256
370
-1
 48
1.0
  6
ByLayer
100
AcDbCircle
 10
-132.0999999999999943
 20
29.0
 30
0.0
 40
1.0
100
AcDbArc
 50
90.0
 51
180.0
  0
ARC
  5
141
100
AcDbEntity
  8
0
 62
256
370
-1
 48
1.0
  6
ByLayer
100
AcDbCircle
 10
-131.0
 20
29.0
 30
0.0
 40
1.0
100
AcDbArc
 50
0.0
 51
90.0
  0
LINE
  5
142
100
AcDbEntity
100
AcDbLine
  8
0
 62
256
370
-1
 48
1.0
  6
ByLayer
 10
-130.0
 20
70.0
 30
0.0
 11
-130.0
 21
51.0
 31
0.0
  0
LINE
  5
143
100
AcDbEntity
100
AcDbLine
  8
0
 62
256
370
-1
 48
1.0
  6
ByLayer
 10
-130.0
 20
29.0
 30
0.0
 11
-130.0
 21
5.0
 31
0.0
  0
LINE
  5
144
100
AcDbEntity
100
AcDbLine
  8
0
 62
256
370
-1
 48
1.0
  6
ByLayer
 10
-132.0999999999999943
 20
30.0
 30
0.0
 11
-131.0
 21
30.0
 31
0.0
  0
LINE
  5
145
100
AcDbEntity
100
AcDbLine
  8
0
 62
256
370
-1
 48
1.0
  6
ByLayer
 10
-139.9000000000000057
 20
49.0
 30
0.0
 11
-130.0
 21
51.0
 31
0.0
  0
LINE
  5
146
100
AcDbEntity
100
AcDbLine
  8
0
 62
256
370
-1
 48
1.0
  6
ByLayer
 10
248.4499999999999886
 20
35.0
 30
0.0
 11
251.5499999999999829
 21
35.0
 31
0.0
  0
LINE
  5
147
100
AcDbEntity
100
AcDbLine
  8
0
 62
256
370
-1
 48
1.0
  6
ByLayer
 10
251.5499999999999829
 20
35.0
 30
0.0
 11
251.5499999999999829
 21
77.0
 31
0.0
  0
LINE
  5
148
100
AcDbEntity
100
AcDbLine
  8
0
 62
256
370
-1
 48
1.0
  6
ByLayer
 10
251.5499999999999829
 20
77.0
 30
0.0
 11
248.4499999999999886
 21
77.0
 31
0.0
  0
LINE
  5
149
100
AcDbEntity
100
AcDbLine
  8
0
 62
256
370
-1
 48
1.0
  6
ByLayer
 10
248.4499999999999886
 20
77.0
 30
0.0
 11
248.4499999999999886
 21
35.0
 31
0.0
  0
LINE
  5
14A
100
AcDbEntity
100
AcDbLine
  8
0
 62
256
370
-1
 48
1.0
  6
ByLayer
 10
248.4499999999999886
 20
105.0
 30
0.0
 11
251.5499999999999829
 21
105.0
 31
0.0
  0
LINE
  5
14B
100
AcDbEntity
100
AcDbLine
  8
0
 62
256
370
-1
 48
1.0
  6
ByLayer
 10
251.5499999999999829
 20
105.0
 30
0.0
 11
251.5499999999999829
 21
147.0
 31
0.0
  0
LINE
  5
14C
100
AcDbEntity
100
AcDbLine
  8
0
 62
256
370
-1
 48
1.0
  6
ByLayer
 10
251.5499999999999829
 20
147.0
 30
0.0
 11
248.4499999999999886
 21
147.0
 31
0.0
  0
LINE
  5
14D
100
AcDbEntity
100
AcDbLine
  8
0
 62
256
370
-1
 48
1.0
  6
ByLayer
 10
248.4499999999999886
 20
147.0
 30
0.0
 11
248.4499999999999886
 21
105.0
 31
0.0
  0
LINE
  5
14E
100
AcDbEntity
100
AcDbLine
  8
0
 62
256
370
-1
 48
1.0
  6
ByLayer
 10
248.4499999999999886
 20
170.0
 30
0.0
 11
251.5499999999999829
 21
170.0
 31
0.0
  0
LINE
  5
14F
100
AcDbEntity
100
AcDbLine
  8
0
 62
256
370
-1
 48
1.0
  6
ByLayer
 10
251.5499999999999829
 20
170.0
 30
0.0
 11
251.5499999999999829
 21
212.0
 31
0.0
  0
LINE
  5
150
100
AcDbEntity
100
AcDbLine
  8
0
 62
256
370
-1
 48
1.0
  6
ByLayer
 10
251.5499999999999829
 20
212.0
 30
0.0
 11
248.4499999999999886
 21
212.0
 31
0.0
  0
LINE
  5
151
100
AcDbEntity
100
AcDbLine
  8
0
 62
256
370
-1
 48
1.0
  6
ByLayer
 10
248.4499999999999886
 20
212.0
 30
0.0
 11
248.4499999999999886
 21
170.0
 31
0.0
  0
LINE
  5
152
100
AcDbEntity
100
AcDbLine
  8
0
 62
256
370
-1
 48
1.0
  6
ByLayer
 10
248.4499999999999886
 20
235.0
 30
0.0
 11
251.5499999999999829
 21
235.0
 31
0.0
  0
LINE
  5
153
100
AcDbEntity
100
AcDbLine
  8
0
 62
256
370
-1
 48
1.0
  6
ByLayer
 10
251.5499999999999829
 20
235.0
 30
0.0
 11
251.5499999999999829
 21
277.0
 31
0.0
  0
LINE
  5
154
100
AcDbEntity
100
AcDbLine
  8
0
 62
256
370
-1
 48
1.0
  6
ByLayer
 10
251.5499999999999829
 20
277.0
 30
0.0
 11
248.4499999999999886
 21
277.0
 31
0.0
  0
LINE
  5
155
100
AcDbEntity
100
AcDbLine
  8
0
 62
256
370
-1
 48
1.0
  6
ByLayer
 10
248.4499999999999886
 20
277.0
 30
0.0
 11
248.4499999999999886
 21
235.0
 31
0.0
  0
LINE
  5
156
100
AcDbEntity
100
AcDbLine
  8
0
 62
256
370
-1
 48
1.0
  6
ByLayer
 10
378.9999999999998863
 20
285.0000000000000568
 30
0.0
 11
329.9999999999998863
 21
285.0000000000000568
 31
0.0
  0
LINE
  5
157
100
AcDbEntity
100
AcDbLine
  8
0
 62
256
370
-1
 48
1.0
  6
ByLayer
 10
329.9999999999998863
 20
0.0000000000000568
 30
0.0
 11
339.9999999999998863
 21
0.0000000000000853
 31
0.0
  0
LINE
  5
158
100
AcDbEntity
100
AcDbLine
  8
0
 62
256
370
-1
 48
1.0
  6
ByLayer
 10
344.9999999999998863
 20
5.0000000000000568
 30
0.0
 11
344.9999999999998863
 21
160.0000000000000568
 31
0.0
  0
LINE
  5
159
100
AcDbEntity
100
AcDbLine
  8
0
 62
256
370
-1
 48
1.0
  6
ByLayer
 10
379.9999999999998863
 20
284.0000000000000568
 30
0.0
 11
379.9999999999998863
 21
260.0
 31
0.0
  0
LINE
  5
15A
100
AcDbEntity
100
AcDbLine
  8
0
 62
256
370
-1
 48
1.0
  6
ByLayer
 10
379.9999999999998863
 20
260.0
 30
0.0
 11
344.9999999999998863
 21
160.0000000000000568
 31
0.0
  0
LINE
  5
15B
100
AcDbEntity
100
AcDbLine
  8
0
 62
256
370
-1
 48
1.0
  6
ByLayer
 10
281.0000000000000568
 20
285.0000000000000568
 30
0.0
 11
330.0
 21
285.0
 31
0.0
  0
LINE
  5
15C
100
AcDbEntity
100
AcDbLine
  8
0
 62
256
370
-1
 48
1.0
  6
ByLayer
 10
329.9999999999998863
 20
0.0000000000000568
 30
0.0
 11
319.9999999999997726
 21
0.0000000000000284
 31
0.0
  0
LINE
  5
15D
100
AcDbEntity
100
AcDbLine
  8
0
 62
256
370
-1
 48
1.0
  6
ByLayer
 10
314.9999999999998863
 20
5.0000000000000568
 30
0.0
 11
314.9999999999998863
 21
160.0000000000000568
 31
0.0
  0
LINE
  5
15E
100
AcDbEntity
100
AcDbLine
  8
0
 62
256
370
-1
 48
1.0
  6
ByLayer
 10
280.0
 20
284.0000000000000568
 30
0.0
 11
280.0
 21
260.0000000000000568
 31
0.0
  0
LINE
  5
15F
100
AcDbEntity
100
AcDbLine
  8
0
 62
256
370
-1
 48
1.0
  6
ByLayer
 10
280.0
 20
260.0000000000001137
 30
0.0
 11
314.9999999999998863
 21
160.0000000000000568
 31
0.0
  0
ARC
  5
160
100
AcDbEntity
  8
0
 62
256
370
-1
 48
1.0
  6
ByLayer
100
AcDbCircle
 10
339.9999999999998863
 20
5.0000000000000568
 30
0.0
 40
5.0
100
AcDbArc
 50
270.0
 51
0.0
  0
ARC
  5
161
100
AcDbEntity
  8
0
 62
256
370
-1
 48
1.0
  6
ByLayer
100
AcDbCircle
 10
319.9999999999998863
 20
5.0000000000000284
 30
0.0
 40
5.0
100
AcDbArc
 50
180.0
 51
270.0
  0
ARC
  5
162
100
AcDbEntity
  8
0
 62
256
370
-1
 48
1.0
  6
ByLayer
100
AcDbCircle
 10
281.0000000000000568
 20
284.0000000000000568
 30
0.0
 40
1.0
100
AcDbArc
 50
90.0
 51
180.0
  0
ARC
  5
163
100
AcDbEntity
  8
0
 62
256
370
-1
 48
1.0
  6
ByLayer
100
AcDbCircle
 10
378.9999999999998863
 20
284.0000000000000568
 30
0.0
 40
1.0
100
AcDbArc
 50
0.0
 51
90.0
  0
LINE
  5
164
100
AcDbEntity
100
AcDbLine
  8
0
 62
256
370
-1
 48
1.0
  6
ByLayer
 10
331.5499999999998408
 20
250.0000000000000568
 30
0.0
 11
328.4499999999999318
 21
250.0000000000000284
 31
0.0
  0
LINE
  5
165
100
AcDbEntity
100
AcDbLine
  8
0
 62
256
370
-1
 48
1.0
  6
ByLayer
 10
328.4499999999999318
 20
250.0000000000000284
 30
0.0
 11
328.4499999999999318
 21
208.0000000000000568
 31
0.0
  0
LINE
  5
166
100
AcDbEntity
100
AcDbLine
  8
0
 62
256
370
-1
 48
1.0
  6
ByLayer
 10
328.4499999999999318
 20
208.0000000000000568
 30
0.0
 11
331.5499999999999545
 21
208.0000000000000568
 31
0.0
  0
LINE
  5
167
100
AcDbEntity
100
AcDbLine
  8
0
 62
256
370
-1
 48
1.0
  6
ByLayer
 10
331.5499999999999545
 20
208.0000000000000568
 30
0.0
 11
331.5499999999998408
 21
250.0000000000000568
 31
0.0
  0
LINE
  5
168
100
AcDbEntity
100
AcDbLine
  8
0
 62
256
370
-1
 48
1.0
  6
ByLayer
 10
331.5499999999998408
 20
180.0000000000001137
 30
0.0
 11
328.4499999999999318
 21
180.0000000000000853
 31
0.0
  0
LINE
  5
169
100
AcDbEntity
100
AcDbLine
  8
0
 62
256
370
-1
 48
1.0
  6
ByLayer
 10
328.4499999999999318
 20
180.0000000000000853
 30
0.0
 11
328.4499999999999318
 21
138.0000000000000568
 31
0.0
  0
LINE
  5
16A
100
AcDbEntity
100
AcDbLine
  8
0
 62
256
370
-1
 48
1.0
  6
ByLayer
 10
328.4499999999999318
 20
138.0000000000000568
 30
0.0
 11
331.5499999999998408
 21
138.0000000000000284
 31
0.0
  0
LINE
  5
16B
100
AcDbEntity
100
AcDbLine
  8
0
 62
256
370
-1
 48
1.0
  6
ByLayer
 10
331.5499999999998408
 20
138.0000000000000284
 30
0.0
 11
331.5499999999998408
 21
180.0000000000001137
 31
0.0
  0
LINE
  5
16C
100
AcDbEntity
100
AcDbLine
  8
0
 62
256
370
-1
 48
1.0
  6
ByLayer
 10
331.5499999999999545
 20
115.0000000000000711
 30
0.0
 11
328.4499999999999318
 21
115.0000000000000426
 31
0.0
  0
LINE
  5
16D
100
AcDbEntity
100
AcDbLine
  8
0
 62
256
370
-1
 48
1.0
  6
ByLayer
 10
328.4499999999999318
 20
115.0000000000000426
 30
0.0
 11
328.4499999999999318
 21
73.0000000000000711
 31
0.0
  0
LINE
  5
16E
100
AcDbEntity
100
AcDbLine
  8
0
 62
256
370
-1
 48
1.0
  6
ByLayer
 10
328.4499999999999318
 20
73.0000000000000711
 30
0.0
 11
331.5499999999998408
 21
73.0000000000000568
 31
0.0
  0
LINE
  5
16F
100
AcDbEntity
100
AcDbLine
  8
0
 62
256
370
-1
 48
1.0
  6
ByLayer
 10
331.5499999999998408
 20
73.0000000000000568
 30
0.0
 11
331.5499999999999545
 21
115.0000000000000711
 31
0.0
  0
LINE
  5
170
100
AcDbEntity
100
AcDbLine
  8
0
 62
256
370
-1
 48
1.0
  6
ByLayer
 10
331.5499999999999545
 20
50.0000000000000853
 30
0.0
 11
328.4499999999999318
 21
50.0000000000000568
 31
0.0
  0
LINE
  5
171
100
AcDbEntity
100
AcDbLine
  8
0
 62
256
370
-1
 48
1.0
  6
ByLayer
 10
328.4499999999999318
 20
50.0000000000000568
 30
0.0
 11
328.4499999999998181
 21
8.0000000000000284
 31
0.0
  0
LINE
  5
172
100
AcDbEntity
100
AcDbLine
  8
0
 62
256
370
-1
 48
1.0
  6
ByLayer
 10
328.4499999999998181
 20
8.0000000000000284
 30
0.0
 11
331.5499999999999545
 21
8.0000000000000853
 31
0.0
  0
LINE
  5
173
100
AcDbEntity
100
AcDbLine
  8
0
 62
256
370
-1
 48
1.0
  6
ByLayer
 10
331.5499999999999545
 20
8.0000000000000853
 30
0.0
 11
331.5499999999999545
 21
50.0000000000000853
 31
0.0
  0
ENDSEC
  0
SECTION
  2
OBJECTS
  0
DICTIONARY
  5
C
100
AcDbDictionary
280
0
281
1
  3
ACAD_GROUP
350
D
  3
ACAD_LAYOUT
350
1A
  3
ACAD_MLINESTYLE
350
17
  3
ACAD_PLOTSETTINGS
350
19
  3
ACAD_PLOTSTYLENAME
350
E
  3
AcDbVariableDictionary
350
174
  3
QCAD_OBJECTS
350
175
  0
DICTIONARY
  5
D
100
AcDbDictionary
280
0
281
1
  0
ACDBDICTIONARYWDFLT
  5
E
100
AcDbDictionary
281
1
  3
Normal
350
F
100
AcDbDictionaryWithDefault
340
F
  0
ACDBPLACEHOLDER
  5
F
  0
DICTIONARY
  5
17
100
AcDbDictionary
280
0
281
1
  3
Standard
350
18
  0
MLINESTYLE
  5
18
100
AcDbMlineStyle
  2
STANDARD
 70
0
  3

 62
256
 51
90.0
 52
90.0
 71
2
 49
0.5
 62
256
  6
BYLAYER
 49
-0.5
 62
256
  6
BYLAYER
  0
DICTIONARY
  5
19
100
AcDbDictionary
280
0
281
1
  0
DICTIONARY
  5
1A
100
AcDbDictionary
281
1
  3
Layout1
350
1E
  3
Layout2
350
26
  3
Model
350
22
  0
LAYOUT
  5
1E
100
AcDbPlotSettings
  1

  2
none_device
  4

  6

 40
0.0
 41
0.0
 42
0.0
 43
0.0
 44
0.0
 45
0.0
 46
0.0
 47
0.0
 48
0.0
 49
0.0
140
0.0
141
0.0
142
1.0
143
1.0
 70
688
 72
0
 73
0
 74
5
  7

 75
16
147
1.0
148
0.0
149
0.0
100
AcDbLayout
  1
Layout1
 70
1
 71
1
 10
0.0
 20
0.0
 11
420.0
 21
297.0
 12
0.0
 22
0.0
 32
0.0
 14
100000000000000000000.0
 24
100000000000000000000.0
 34
100000000000000000000.0
 15
-100000000000000000000.0
 25
-100000000000000000000.0
 35
-100000000000000000000.0
146
0.0
 13
0.0
 23
0.0
 33
0.0
 16
1.0
 26
0.0
 36
0.0
 17
0.0
 27
1.0
 37
0.0
 76
0
330
1B
  0
LAYOUT
  5
22
100
AcDbPlotSettings
  1

  2
none_device
  4

  6

 40
0.0
 41
0.0
 42
0.0
 43
0.0
 44
0.0
 45
0.0
 46
0.0
 47
0.0
 48
0.0
 49
0.0
140
0.0
141
0.0
142
1.0
143
1.0
 70
1712
 72
0
 73
0
 74
0
  7

 75
0
147
1.0
148
0.0
149
0.0
100
AcDbLayout
  1
Model
 70
1
 71
0
 10
0.0
 20
0.0
 11
12.0
 21
9.0
 12
0.0
 22
0.0
 32
0.0
 14
0.0
 24
0.0
 34
0.0
 15
0.0
 25
0.0
 35
0.0
146
0.0
 13
0.0
 23
0.0
 33
0.0
 16
1.0
 26
0.0
 36
0.0
 17
0.0
 27
1.0
 37
0.0
 76
0
330
1F
  0
LAYOUT
  5
26
100
AcDbPlotSettings
  1

  2
none_device
  4

  6

 40
0.0
 41
0.0
 42
0.0
 43
0.0
 44
0.0
 45
0.0
 46
0.0
 47
0.0
 48
0.0
 49
0.0
140
0.0
141
0.0
142
1.0
143
1.0
 70
688
 72
0
 73
0
 74
5
  7

 75
16
147
1.0
148
0.0
149
0.0
100
AcDbLayout
  1
Layout2
 70
1
 71
2
 10
0.0
 20
0.0
 11
12.0
 21
9.0
 12
0.0
 22
0.0
 32
0.0
 14
0.0
 24
0.0
 34
0.0
 15
0.0
 25
0.0
 35
0.0
146
0.0
 13
0.0
 23
0.0
 33
0.0
 16
1.0
 26
0.0
 36
0.0
 17
0.0
 27
1.0
 37
0.0
 76
0
330
23
  0
DICTIONARY
  5
174
100
AcDbDictionary
281
1
  3
DIMASSOC
350
177
  3
HIDETEXT
350
176
  0
DICTIONARYVAR
  5
176
100
DictionaryVariables
280
0
  1
2
  0
DICTIONARYVAR
  5
177
100
DictionaryVariables
280
0
  1
1
  0
DICTIONARY
  5
175
100
AcDbDictionary
281
1
  3
Grid/DisplayGrid00
350
178
  3
Grid/DisplayGrid01
350
179
  3
Grid/DisplayGrid02
350
17A
  3
Grid/DisplayGrid03
350
17B
  3
Grid/GridSpacingX00
350
17C
  3
Grid/GridSpacingX01
350
17D
  3
Grid/GridSpacingX02
350
17E
  3
Grid/GridSpacingX03
350
17F
  3
Grid/GridSpacingY00
350
180
  3
Grid/GridSpacingY01
350
181
  3
Grid/GridSpacingY02
350
182
  3
Grid/GridSpacingY03
350
183
  3
Grid/IsometricGrid00
350
184
  3
Grid/IsometricGrid01
350
185
  3
Grid/IsometricGrid02
350
186
  3
Grid/IsometricGrid03
350
187
  3
Grid/IsometricProjection00
350
188
  3
Grid/IsometricProjection01
350
189
  3
Grid/IsometricProjection02
350
18A
  3
Grid/IsometricProjection03
350
18B
  3
Grid/MetaGridSpacingX00
350
18C
  3
Grid/MetaGridSpacingX01
350
18D
  3
Grid/MetaGridSpacingX02
350
18E
  3
Grid/MetaGridSpacingX03
350
18F
  3
Grid/MetaGridSpacingY00
350
190
  3
Grid/MetaGridSpacingY01
350
191
  3
Grid/MetaGridSpacingY02
350
192
  3
Grid/MetaGridSpacingY03
350
193
  3
MultiPageSettings/Columns
350
194
  3
MultiPageSettings/GlueMarginsBottom
350
195
  3
MultiPageSettings/GlueMarginsLeft
350
196
  3
MultiPageSettings/GlueMarginsRight
350
197
  3
MultiPageSettings/GlueMarginsTop
350
198
  3
MultiPageSettings/PrintCropMarks
350
199
  3
MultiPageSettings/Rows
350
19A
  3
PageSettings/OffsetX
350
19B
  3
PageSettings/OffsetY
350
19C
  3
PageSettings/PageOrientation
350
19D
  3
PageSettings/PaperHeight
350
19E
  3
PageSettings/PaperWidth
350
19F
  3
PageSettings/Scale
350
1A0
  3
PageSettings/ShowPaperBorders
350
1A1
  3
UnitSettings/PaperUnit
350
1A2
  0
XRECORD
  5
178
330
175
100
AcDbXrecord
280
1
290
1
  0
XRECORD
  5
179
330
175
100
AcDbXrecord
280
1
290
1
  0
XRECORD
  5
17A
330
175
100
AcDbXrecord
280
1
290
1
  0
XRECORD
  5
17B
330
175
100
AcDbXrecord
280
1
290
1
  0
XRECORD
  5
17C
330
175
100
AcDbXrecord
280
1
1000
auto
  0
XRECORD
  5
17D
330
175
100
AcDbXrecord
280
1
1000
auto
  0
XRECORD
  5
17E
330
175
100
AcDbXrecord
280
1
1000
auto
  0
XRECORD
  5
17F
330
175
100
AcDbXrecord
280
1
1000
auto
  0
XRECORD
  5
180
330
175
100
AcDbXrecord
280
1
1000
auto
  0
XRECORD
  5
181
330
175
100
AcDbXrecord
280
1
1000
auto
  0
XRECORD
  5
182
330
175
100
AcDbXrecord
280
1
1000
auto
  0
XRECORD
  5
183
330
175
100
AcDbXrecord
280
1
1000
auto
  0
XRECORD
  5
184
330
175
100
AcDbXrecord
280
1
290
0
  0
XRECORD
  5
185
330
175
100
AcDbXrecord
280
1
290
0
  0
XRECORD
  5
186
330
175
100
AcDbXrecord
280
1
290
0
  0
XRECORD
  5
187
330
175
100
AcDbXrecord
280
1
290
0
  0
XRECORD
  5
188
330
175
100
AcDbXrecord
280
1
 90
0
  0
XRECORD
  5
189
330
175
100
AcDbXrecord
280
1
 90
0
  0
XRECORD
  5
18A
330
175
100
AcDbXrecord
280
1
 90
0
  0
XRECORD
  5
18B
330
175
100
AcDbXrecord
280
1
 90
0
  0
XRECORD
  5
18C
330
175
100
AcDbXrecord
280
1
1000
auto
  0
XRECORD
  5
18D
330
175
100
AcDbXrecord
280
1
1000
auto
  0
XRECORD
  5
18E
330
175
100
AcDbXrecord
280
1
1000
auto
  0
XRECORD
  5
18F
330
175
100
AcDbXrecord
280
1
1000
auto
  0
XRECORD
  5
190
330
175
100
AcDbXrecord
280
1
1000
auto
  0
XRECORD
  5
191
330
175
100
AcDbXrecord
280
1
1000
auto
  0
XRECORD
  5
192
330
175
100
AcDbXrecord
280
1
1000
auto
  0
XRECORD
  5
193
330
175
100
AcDbXrecord
280
1
1000
auto
  0
XRECORD
  5
194
330
175
100
AcDbXrecord
280
1
 90
1
  0
XRECORD
  5
195
330
175
100
AcDbXrecord
280
1
 40
10.0
  0
XRECORD
  5
196
330
175
100
AcDbXrecord
280
1
 40
10.0
  0
XRECORD
  5
197
330
175
100
AcDbXrecord
280
1
 40
10.0
  0
XRECORD
  5
198
330
175
100
AcDbXrecord
280
1
 40
10.0
  0
XRECORD
  5
199
330
175
100
AcDbXrecord
280
1
290
0
  0
XRECORD
  5
19A
330
175
100
AcDbXrecord
280
1
 90
1
  0
XRECORD
  5
19B
330
175
100
AcDbXrecord
280
1
 40
0.0
  0
XRECORD
  5
19C
330
175
100
AcDbXrecord
280
1
 40
0.0
  0
XRECORD
  5
19D
330
175
100
AcDbXrecord
280
1
1000
Portrait
  0
XRECORD
  5
19E
330
175
100
AcDbXrecord
280
1
 40
297.0
  0
XRECORD
  5
19F
330
175
100
AcDbXrecord
280
1
 40
210.0
  0
XRECORD
  5
1A0
330
175
100
AcDbXrecord
280
1
1000
1:1
  0
XRECORD
  5
1A1
330
175
100
AcDbXrecord
280
1
290
1
  0
XRECORD
  5
1A2
330
175
100
AcDbXrecord
280
1
 90
4
  0
ENDSEC
  0
EOF
