999
dxflib 3.7.0.0
  0
SECTION
  2
HEADER
  9
$ACADVER
  1
AC1015
  9
$HANDSEED
  5
FFFF
  9
$DIMADEC
 70
0
  9
$DIMASZ
 40
2.5
  9
$DIMAUNIT
 70
0
  9
$DIMAZIN
 70
2
  9
$DIMDEC
 70
4
  9
$DIMEXE
 40
1.25
  9
$DIMEXO
 40
0.625
  9
$DIMGAP
 40
0.625
  9
$DIMLUNIT
 70
2
  9
$DIMSCALE
 40
1.0
  9
$DIMTSZ
 40
0.0
  9
$DIMTXT
 40
2.5
  9
$DIMZIN
 70
8
  9
$DWGCODEPAGE
  3
ANSI_1252
  9
$INSUNITS
 70
4
  9
$LTSCALE
 40
1
  0
ENDSEC
  0
SECTION
  2
TABLES
  0
TABLE
  2
VPORT
  5
8
100
AcDbSymbolTable
 70
1
  0
VPORT
  5
30
100
AcDbSymbolTableRecord
100
AcDbViewportTableRecord
  2
*Active
 70
0
 10
0.0
 20
0.0
 11
1.0
 21
1.0
 12
286.3055555555554861
 22
148.5
 13
0.0
 23
0.0
 14
10.0
 24
10.0
 15
10.0
 25
10.0
 16
0.0
 26
0.0
 36
1.0
 17
0.0
 27
0.0
 37
0.0
 40
297.0
 41
1.92798353909465
 42
50.0
 43
0.0
 44
0.0
 50
0.0
 51
0.0
 71
0
 72
100
 73
1
 74
3
 75
1
 76
1
 77
0
 78
0
281
0
 65
1
110
0.0
120
0.0
130
0.0
111
1.0
121
0.0
131
0.0
112
0.0
122
1.0
132
0.0
 79
0
146
0.0
  0
ENDTAB
  0
TABLE
  2
LTYPE
  5
5
100
AcDbSymbolTable
 70
41
  0
LTYPE
  5
16
100
AcDbSymbolTableRecord
100
AcDbLinetypeTableRecord
  2
CONTINUOUS
 70
0
  3
Solid line
 72
65
 73
0
 40
0.0
  0
LTYPE
  5
31
100
AcDbSymbolTableRecord
100
AcDbLinetypeTableRecord
  2
ACAD_ISO15W100
 70
0
  3
ISO double-dash triple-dot __ __ . . . __ __ . .
 72
65
 73
10
 40
39.0000000000000071
 49
12.0
 74
0
 49
-3.0
 74
0
 49
12.0
 74
0
 49
-2.9500000000000002
 74
0
 49
0.1
 74
0
 49
-2.9000000000000004
 74
0
 49
0.1
 74
0
 49
-2.9000000000000004
 74
0
 49
0.1
 74
0
 49
-2.9500000000000002
 74
0
  0
LTYPE
  5
32
100
AcDbSymbolTableRecord
100
AcDbLinetypeTableRecord
  2
DIVIDE
 70
0
  3
Divide ____ . . ____ . . ____ . . ____ . . ____
 72
65
 73
6
 40
31.7500000000000036
 49
12.6999999999999993
 74
0
 49
-6.2999999999999998
 74
0
 49
0.1
 74
0
 49
-6.25
 74
0
 49
0.1
 74
0
 49
-6.2999999999999998
 74
0
  0
LTYPE
  5
33
100
AcDbSymbolTableRecord
100
AcDbLinetypeTableRecord
  2
ACAD_ISO10W100
 70
0
  3
ISO dash dot __ . __ . __ . __ . __ . __ . __ .
 72
65
 73
4
 40
18.0
 49
12.0
 74
0
 49
-2.9500000000000002
 74
0
 49
0.1
 74
0
 49
-2.9500000000000002
 74
0
  0
LTYPE
  5
34
100
AcDbSymbolTableRecord
100
AcDbLinetypeTableRecord
  2
ACAD_ISO04W100
 70
0
  3
ISO long-dash dot ____ . ____ . ____ . ____ . _
 72
65
 73
4
 40
30.0
 49
24.0
 74
0
 49
-2.9500000000000002
 74
0
 49
0.1
 74
0
 49
-2.9500000000000002
 74
0
  0
LTYPE
  5
35
100
AcDbSymbolTableRecord
100
AcDbLinetypeTableRecord
  2
CENTER2
 70
0
  3
Center (.5x) ___ _ ___ _ ___ _ ___ _ ___ _ ___
 72
65
 73
4
 40
28.5750000000000028
 49
19.0500000000000007
 74
0
 49
-3.1749999999999998
 74
0
 49
3.1749999999999998
 74
0
 49
-3.1749999999999998
 74
0
  0
LTYPE
  5
36
100
AcDbSymbolTableRecord
100
AcDbLinetypeTableRecord
  2
ACAD_ISO11W100
 70
0
  3
ISO double-dash dot __ __ . __ __ . __ __ . __ _
 72
65
 73
6
 40
33.0
 49
12.0
 74
0
 49
-3.0
 74
0
 49
12.0
 74
0
 49
-2.9500000000000002
 74
0
 49
0.1
 74
0
 49
-2.9500000000000002
 74
0
  0
LTYPE
  5
37
100
AcDbSymbolTableRecord
100
AcDbLinetypeTableRecord
  2
HIDDEN2
 70
0
  3
Hidden (.5x) _ _ _ _ _ _ _ _ _ _ _ _ _ _ _ _ _
 72
65
 73
2
 40
4.7624999999999993
 49
3.1749999999999998
 74
0
 49
-1.5874999999999999
 74
0
  0
LTYPE
  5
38
100
AcDbSymbolTableRecord
100
AcDbLinetypeTableRecord
  2
BORDERX2
 70
0
  3
Border (2x) ____  ____  .  ____  ____  .  ___
 72
65
 73
6
 40
88.8999999999999773
 49
25.3999999999999986
 74
0
 49
-12.6999999999999993
 74
0
 49
25.3999999999999986
 74
0
 49
-12.6499999999999986
 74
0
 49
0.1
 74
0
 49
-12.6499999999999986
 74
0
  0
LTYPE
  5
39
100
AcDbSymbolTableRecord
100
AcDbLinetypeTableRecord
  2
ACAD_ISO05W100
 70
0
  3
ISO long-dash double-dot ____ .. ____ .. ____ .
 72
65
 73
6
 40
33.0000000000000071
 49
24.0
 74
0
 49
-2.9500000000000002
 74
0
 49
0.1
 74
0
 49
-2.9000000000000004
 74
0
 49
0.1
 74
0
 49
-2.9500000000000002
 74
0
  0
LTYPE
  5
3A
100
AcDbSymbolTableRecord
100
AcDbLinetypeTableRecord
  2
DASHDOTX2
 70
0
  3
Dash dot (2x) ____  .  ____  .  ____  .  ___
 72
65
 73
4
 40
50.7999999999999972
 49
25.3999999999999986
 74
0
 49
-12.6499999999999986
 74
0
 49
0.1
 74
0
 49
-12.6499999999999986
 74
0
  0
LTYPE
  5
3B
100
AcDbSymbolTableRecord
100
AcDbLinetypeTableRecord
  2
HIDDENX2
 70
0
  3
Hidden (2x) ____ ____ ____ ____ ____ ____ ____
 72
65
 73
2
 40
19.0499999999999972
 49
12.6999999999999993
 74
0
 49
-6.3499999999999996
 74
0
  0
LTYPE
  5
3C
100
AcDbSymbolTableRecord
100
AcDbLinetypeTableRecord
  2
CENTERX2
 70
0
  3
Center (2x) ________  __  ________  __  _____
 72
65
 73
4
 40
101.6000000000000085
 49
63.5
 74
0
 49
-12.6999999999999993
 74
0
 49
12.6999999999999993
 74
0
 49
-12.6999999999999993
 74
0
  0
LTYPE
  5
3D
100
AcDbSymbolTableRecord
100
AcDbLinetypeTableRecord
  2
BORDER2
 70
0
  3
Border (.5x) __.__.__.__.__.__.__.__.__.__.__.
 72
65
 73
6
 40
22.2250000000000014
 49
6.3499999999999996
 74
0
 49
-3.1749999999999998
 74
0
 49
6.3499999999999996
 74
0
 49
-3.125
 74
0
 49
0.1
 74
0
 49
-3.125
 74
0
  0
LTYPE
  5
3E
100
AcDbSymbolTableRecord
100
AcDbLinetypeTableRecord
  2
DASHDOT2
 70
0
  3
Dash dot (.5x) _._._._._._._._._._._._._._._.
 72
65
 73
4
 40
12.6999999999999993
 49
6.3499999999999996
 74
0
 49
-3.125
 74
0
 49
0.1
 74
0
 49
-3.125
 74
0
  0
LTYPE
  5
3F
100
AcDbSymbolTableRecord
100
AcDbLinetypeTableRecord
  2
ACAD_ISO12W100
 70
0
  3
ISO dash double-dot __ . . __ . . __ . . __ . .
 72
65
 73
6
 40
21.0
 49
12.0
 74
0
 49
-2.9500000000000002
 74
0
 49
0.1
 74
0
 49
-2.9000000000000004
 74
0
 49
0.1
 74
0
 49
-2.9500000000000002
 74
0
  0
LTYPE
  5
40
100
AcDbSymbolTableRecord
100
AcDbLinetypeTableRecord
  2
ACAD_ISO07W100
 70
0
  3
ISO dot . . . . . . . . . . . . . . . . . . . .
 72
65
 73
2
 40
3.0
 49
0.1
 74
0
 49
-2.8999999999999999
 74
0
  0
LTYPE
  5
41
100
AcDbSymbolTableRecord
100
AcDbLinetypeTableRecord
  2
HIDDEN
 70
0
  3
Hidden __ __ __ __ __ __ __ __ __ __ __ __ __ __
 72
65
 73
2
 40
9.5249999999999986
 49
6.3499999999999996
 74
0
 49
-3.1749999999999998
 74
0
  0
LTYPE
  5
42
100
AcDbSymbolTableRecord
100
AcDbLinetypeTableRecord
  2
ACAD_ISO06W100
 70
0
  3
ISO long-dash triple-dot ____ ... ____ ... ____
 72
65
 73
8
 40
36.0000000000000071
 49
24.0
 74
0
 49
-2.9500000000000002
 74
0
 49
0.1
 74
0
 49
-2.9000000000000004
 74
0
 49
0.1
 74
0
 49
-2.9000000000000004
 74
0
 49
0.1
 74
0
 49
-2.9500000000000002
 74
0
  0
LTYPE
  5
43
100
AcDbSymbolTableRecord
100
AcDbLinetypeTableRecord
  2
CENTER
 70
0
  3
Center ____ _ ____ _ ____ _ ____ _ ____ _ ____
 72
65
 73
4
 40
50.8000000000000043
 49
31.75
 74
0
 49
-6.3499999999999996
 74
0
 49
6.3499999999999996
 74
0
 49
-6.3499999999999996
 74
0
  0
LTYPE
  5
44
100
AcDbSymbolTableRecord
100
AcDbLinetypeTableRecord
  2
DOTX2
 70
0
  3
Dot (2x) .  .  .  .  .  .  .  .  .  .  .  .  .  .
 72
65
 73
2
 40
12.6999999999999993
 49
0.1
 74
0
 49
-12.5999999999999996
 74
0
  0
LTYPE
  5
45
100
AcDbSymbolTableRecord
100
AcDbLinetypeTableRecord
  2
PHANTOM
 70
0
  3
Phantom ______  __  __  ______  __  __  ______
 72
65
 73
6
 40
63.5000000000000071
 49
31.75
 74
0
 49
-6.3499999999999996
 74
0
 49
6.3499999999999996
 74
0
 49
-6.3499999999999996
 74
0
 49
6.3499999999999996
 74
0
 49
-6.3499999999999996
 74
0
  0
LTYPE
  5
46
100
AcDbSymbolTableRecord
100
AcDbLinetypeTableRecord
  2
ACAD_ISO08W100
 70
0
  3
ISO long-dash short-dash ____ __ ____ __ ____ _
 72
65
 73
4
 40
36.0
 49
24.0
 74
0
 49
-3.0
 74
0
 49
6.0
 74
0
 49
-3.0
 74
0
  0
LTYPE
  5
47
100
AcDbSymbolTableRecord
100
AcDbLinetypeTableRecord
  2
DASHEDX2
 70
0
  3
Dashed (2x) ____  ____  ____  ____  ____  ___
 72
65
 73
2
 40
38.0999999999999943
 49
25.3999999999999986
 74
0
 49
-12.6999999999999993
 74
0
  0
LTYPE
  5
48
100
AcDbSymbolTableRecord
100
AcDbLinetypeTableRecord
  2
ACAD_ISO02W100
 70
0
  3
ISO dash __ __ __ __ __ __ __ __ __ __ __ __ __
 72
65
 73
2
 40
15.0
 49
12.0
 74
0
 49
-3.0
 74
0
  0
LTYPE
  5
49
100
AcDbSymbolTableRecord
100
AcDbLinetypeTableRecord
  2
PHANTOM2
 70
0
  3
Phantom (.5x) ___ _ _ ___ _ _ ___ _ _ ___ _ _
 72
65
 73
6
 40
31.7500000000000036
 49
15.875
 74
0
 49
-3.1749999999999998
 74
0
 49
3.1749999999999998
 74
0
 49
-3.1749999999999998
 74
0
 49
3.1749999999999998
 74
0
 49
-3.1749999999999998
 74
0
  0
LTYPE
  5
4A
100
AcDbSymbolTableRecord
100
AcDbLinetypeTableRecord
  2
DASHED2
 70
0
  3
Dashed (.5x) _ _ _ _ _ _ _ _ _ _ _ _ _ _ _ _ _
 72
65
 73
2
 40
9.5249999999999986
 49
6.3499999999999996
 74
0
 49
-3.1749999999999998
 74
0
  0
LTYPE
  5
4B
100
AcDbSymbolTableRecord
100
AcDbLinetypeTableRecord
  2
ACAD_ISO09W100
 70
0
  3
ISO long-dash double-short-dash ____ __ __ ____
 72
65
 73
6
 40
45.0
 49
24.0
 74
0
 49
-3.0
 74
0
 49
6.0
 74
0
 49
-3.0
 74
0
 49
6.0
 74
0
 49
-3.0
 74
0
  0
LTYPE
  5
4C
100
AcDbSymbolTableRecord
100
AcDbLinetypeTableRecord
  2
ACAD_ISO13W100
 70
0
  3
ISO double-dash double-dot __ __ . . __ __ . . _
 72
65
 73
8
 40
36.0000000000000071
 49
12.0
 74
0
 49
-3.0
 74
0
 49
12.0
 74
0
 49
-2.9500000000000002
 74
0
 49
0.1
 74
0
 49
-2.9000000000000004
 74
0
 49
0.1
 74
0
 49
-2.9500000000000002
 74
0
  0
LTYPE
  5
4D
100
AcDbSymbolTableRecord
100
AcDbLinetypeTableRecord
  2
DOT2
 70
0
  3
Dot (.5x) ........................................
 72
65
 73
2
 40
3.1749999999999998
 49
0.1
 74
0
 49
-3.0749999999999997
 74
0
  0
LTYPE
  5
4E
100
AcDbSymbolTableRecord
100
AcDbLinetypeTableRecord
  2
DASHED
 70
0
  3
Dashed __ __ __ __ __ __ __ __ __ __ __ __ __ _
 72
65
 73
2
 40
19.0499999999999972
 49
12.6999999999999993
 74
0
 49
-6.3499999999999996
 74
0
  0
LTYPE
  5
4F
100
AcDbSymbolTableRecord
100
AcDbLinetypeTableRecord
  2
ACAD_ISO14W100
 70
0
  3
ISO dash triple-dot __ . . . __ . . . __ . . . _
 72
65
 73
8
 40
24.0000000000000036
 49
12.0
 74
0
 49
-2.9500000000000002
 74
0
 49
0.1
 74
0
 49
-2.9000000000000004
 74
0
 49
0.1
 74
0
 49
-2.9000000000000004
 74
0
 49
0.1
 74
0
 49
-2.9500000000000002
 74
0
  0
LTYPE
  5
50
100
AcDbSymbolTableRecord
100
AcDbLinetypeTableRecord
  2
PHANTOMX2
 70
0
  3
Phantom (2x) ____________    ____    ____   _
 72
65
 73
6
 40
127.0000000000000142
 49
63.5
 74
0
 49
-12.6999999999999993
 74
0
 49
12.6999999999999993
 74
0
 49
-12.6999999999999993
 74
0
 49
12.6999999999999993
 74
0
 49
-12.6999999999999993
 74
0
  0
LTYPE
  5
14
100
AcDbSymbolTableRecord
100
AcDbLinetypeTableRecord
  2
BYBLOCK
 70
0
  3

 72
65
 73
0
 40
0.0
  0
LTYPE
  5
51
100
AcDbSymbolTableRecord
100
AcDbLinetypeTableRecord
  2
DIVIDEX2
 70
0
  3
Divide (2x) ________  .  .  ________  .  .  _
 72
65
 73
6
 40
63.5
 49
25.3999999999999986
 74
0
 49
-12.6499999999999986
 74
0
 49
0.1
 74
0
 49
-12.5999999999999979
 74
0
 49
0.1
 74
0
 49
-12.6499999999999986
 74
0
  0
LTYPE
  5
52
100
AcDbSymbolTableRecord
100
AcDbLinetypeTableRecord
  2
BORDER
 70
0
  3
Border __ __ . __ __ . __ __ . __ __ . __ __ .
 72
65
 73
6
 40
44.4499999999999957
 49
12.6999999999999993
 74
0
 49
-6.3499999999999996
 74
0
 49
12.6999999999999993
 74
0
 49
-6.2999999999999998
 74
0
 49
0.1
 74
0
 49
-6.2999999999999998
 74
0
  0
LTYPE
  5
53
100
AcDbSymbolTableRecord
100
AcDbLinetypeTableRecord
  2
DIVIDE2
 70
0
  3
Divide (.5x) __..__..__..__..__..__..__..__.._
 72
65
 73
6
 40
15.8749999999999982
 49
6.3499999999999996
 74
0
 49
-3.125
 74
0
 49
0.1
 74
0
 49
-3.0750000000000002
 74
0
 49
0.1
 74
0
 49
-3.125
 74
0
  0
LTYPE
  5
54
100
AcDbSymbolTableRecord
100
AcDbLinetypeTableRecord
  2
DOT
 70
0
  3
Dot . . . . . . . . . . . . . . . . . . . . . . . .
 72
65
 73
2
 40
6.3499999999999996
 49
0.1
 74
0
 49
-6.25
 74
0
  0
LTYPE
  5
55
100
AcDbSymbolTableRecord
100
AcDbLinetypeTableRecord
  2
DASHDOT
 70
0
  3
Dash dot __ . __ . __ . __ . __ . __ . __ . __
 72
65
 73
4
 40
25.4000000000000021
 49
12.6999999999999993
 74
0
 49
-6.2999999999999998
 74
0
 49
0.1
 74
0
 49
-6.2999999999999998
 74
0
  0
LTYPE
  5
56
100
AcDbSymbolTableRecord
100
AcDbLinetypeTableRecord
  2
ACAD_ISO03W100
 70
0
  3
ISO dash space __    __    __    __    __    __
 72
65
 73
2
 40
30.0
 49
12.0
 74
0
 49
-18.0
 74
0
  0
LTYPE
  5
15
100
AcDbSymbolTableRecord
100
AcDbLinetypeTableRecord
  2
ByLayer
 70
0
  3

 72
65
 73
0
 40
0.0
  0
ENDTAB
  0
TABLE
  2
LAYER
  5
2
100
AcDbSymbolTable
 70
2
  0
LAYER
  5
10
100
AcDbSymbolTableRecord
100
AcDbLayerTableRecord
  2
0
 70
0
 62
7
420
16777215
  6
CONTINUOUS
370
25
390
F
  0
LAYER
  5
57
100
AcDbSymbolTableRecord
100
AcDbLayerTableRecord
  2
COLOR
 70
0
 62
134
420
32639
  6
CONTINUOUS
370
-3
390
F
  0
ENDTAB
  0
TABLE
  2
STYLE
  5
3
100
AcDbSymbolTable
 70
10
  0
STYLE
  5
58
100
AcDbSymbolTableRecord
100
AcDbTextStyleTableRecord
  2
Standard
 70
0
 40
0.0
 41
1.0
 50
0.0
 71
0
 42
2.5
  3

  4

1001
ACAD
1000
txt
1071
0
  0
STYLE
  5
59
100
AcDbSymbolTableRecord
100
AcDbTextStyleTableRecord
  2
textstyle0
 70
0
 40
0.0
 41
1.0
 50
0.0
 71
0
 42
5.0
  3

  4

1001
ACAD
1000
Arial
1071
0
  0
STYLE
  5
5A
100
AcDbSymbolTableRecord
100
AcDbTextStyleTableRecord
  2
textstyle1
 70
0
 40
0.0
 41
1.0
 50
0.0
 71
0
 42
5.0
  3

  4

1001
ACAD
1000
Arial
1071
0
  0
STYLE
  5
5B
100
AcDbSymbolTableRecord
100
AcDbTextStyleTableRecord
  2
textstyle2
 70
0
 40
0.0
 41
1.0
 50
0.0
 71
0
 42
5.0
  3

  4

1001
ACAD
1000
Arial
1071
0
  0
STYLE
  5
5C
100
AcDbSymbolTableRecord
100
AcDbTextStyleTableRecord
  2
textstyle3
 70
0
 40
0.0
 41
1.0
 50
0.0
 71
0
 42
4.0
  3

  4

1001
ACAD
1000
Verdana
1071
0
  0
STYLE
  5
5D
100
AcDbSymbolTableRecord
100
AcDbTextStyleTableRecord
  2
textstyle4
 70
0
 40
0.0
 41
1.0
 50
0.0
 71
0
 42
4.0
  3

  4

1001
ACAD
1000
Verdana
1071
0
  0
STYLE
  5
5E
100
AcDbSymbolTableRecord
100
AcDbTextStyleTableRecord
  2
textstyle5
 70
0
 40
0.0
 41
1.0
 50
0.0
 71
0
 42
4.0
  3

  4

1001
ACAD
1000
Verdana
1071
0
  0
STYLE
  5
5F
100
AcDbSymbolTableRecord
100
AcDbTextStyleTableRecord
  2
textstyle6
 70
0
 40
0.0
 41
1.0
 50
0.0
 71
0
 42
4.0
  3

  4

1001
ACAD
1000
Verdana
1071
0
  0
STYLE
  5
60
100
AcDbSymbolTableRecord
100
AcDbTextStyleTableRecord
  2
textstyle7
 70
0
 40
0.0
 41
1.0
 50
0.0
 71
0
 42
4.0
  3

  4

1001
ACAD
1000
Verdana
1071
0
  0
STYLE
  5
61
100
AcDbSymbolTableRecord
100
AcDbTextStyleTableRecord
  2
textstyle8
 70
0
 40
0.0
 41
1.0
 50
0.0
 71
0
 42
4.0
  3

  4

1001
ACAD
1000
Verdana
1071
0
  0
ENDTAB
  0
TABLE
  2
VIEW
  5
6
100
AcDbSymbolTable
 70
0
  0
ENDTAB
  0
TABLE
  2
UCS
  5
7
100
AcDbSymbolTable
 70
0
  0
ENDTAB
  0
TABLE
  2
APPID
  5
9
100
AcDbSymbolTable
 70
1
  0
APPID
  5
12
100
AcDbSymbolTableRecord
100
AcDbRegAppTableRecord
  2
ACAD
 70
0
  0
APPID
  5
62
100
AcDbSymbolTableRecord
100
AcDbRegAppTableRecord
  2
QCAD
 70
0
  0
ENDTAB
  0
TABLE
  2
DIMSTYLE
  5
A
100
AcDbSymbolTable
 70
1
100
AcDbDimStyleTable
 71
0
  0
DIMSTYLE
105
27
100
AcDbSymbolTableRecord
100
AcDbDimStyleTableRecord
  2
Standard
 41
2.5
 42
0.625
 43
3.75
 44
1.25
 70
0
 73
0
 74
0
 77
1
 78
8
140
2.5
141
2.5
143
0.03937007874016
147
0.625
171
3
172
1
271
2
272
2
274
3
278
44
283
0
284
8
340
58
  0
ENDTAB
  0
TABLE
  2
BLOCK_RECORD
  5
1
100
AcDbSymbolTable
 70
1
  0
BLOCK_RECORD
  5
1F
100
AcDbSymbolTableRecord
100
AcDbBlockTableRecord
  2
*Model_Space
340
22
  0
BLOCK_RECORD
  5
1B
100
AcDbSymbolTableRecord
100
AcDbBlockTableRecord
  2
*Paper_Space
340
1E
  0
BLOCK_RECORD
  5
23
100
AcDbSymbolTableRecord
100
AcDbBlockTableRecord
  2
*Paper_Space0
340
26
  0
ENDTAB
  0
ENDSEC
  0
SECTION
  2
BLOCKS
  0
BLOCK
  5
20
100
AcDbEntity
  8
0
100
AcDbBlockBegin
  2
*Model_Space
 70
0
 10
0.0
 20
0.0
 30
0.0
  3
*Model_Space
  1

  0
ENDBLK
  5
21
100
AcDbEntity
  8
0
100
AcDbBlockEnd
  0
BLOCK
  5
1C
100
AcDbEntity
 67
1
  8
0
100
AcDbBlockBegin
  2
*Paper_Space
 70
0
 10
0.0
 20
0.0
 30
0.0
  3
*Paper_Space
  1

  0
ENDBLK
  5
1D
100
AcDbEntity
 67
1
  8
0
100
AcDbBlockEnd
  0
BLOCK
  5
24
100
AcDbEntity
  8
0
100
AcDbBlockBegin
  2
*Paper_Space0
 70
0
 10
0.0
 20
0.0
 30
0.0
  3
*Paper_Space0
  1

  0
ENDBLK
  5
25
100
AcDbEntity
  8
0
100
AcDbBlockEnd
  0
ENDSEC
  0
SECTION
  2
ENTITIES
  0
LINE
  5
63
100
AcDbEntity
100
AcDbLine
  8
0
 62
256
370
-1
 48
1.0
  6
ByLayer
 10
-53.0
 20
10.0
 30
0.0
 11
53.0
 21
10.0
 31
0.0
  0
LINE
  5
64
100
AcDbEntity
100
AcDbLine
  8
0
 62
256
370
-1
 48
1.0
  6
ByLayer
 10
55.0
 20
12.0
 30
0.0
 11
55.0
 21
19.0
 31
0.0
  0
LINE
  5
65
100
AcDbEntity
100
AcDbLine
  8
0
 62
256
370
-1
 48
1.0
  6
ByLayer
 10
53.0
 20
21.0
 30
0.0
 11
-53.0
 21
21.0
 31
0.0
  0
LINE
  5
66
100
AcDbEntity
100
AcDbLine
  8
0
 62
256
370
-1
 48
1.0
  6
ByLayer
 10
-55.0
 20
19.0
 30
0.0
 11
-55.0
 21
12.0
 31
0.0
  0
LINE
  5
67
100
AcDbEntity
100
AcDbLine
  8
0
 62
256
370
-1
 48
1.0
  6
ByLayer
 10
-83.0
 20
35.0
 30
0.0
 11
83.0
 21
35.0
 31
0.0
  0
LINE
  5
68
100
AcDbEntity
100
AcDbLine
  8
0
 62
256
370
-1
 48
1.0
  6
ByLayer
 10
83.0
 20
62.0
 30
0.0
 11
-83.0
 21
62.0
 31
0.0
  0
LINE
  5
69
100
AcDbEntity
100
AcDbLine
  8
0
 62
256
370
-1
 48
1.0
  6
ByLayer
 10
-112.0
 20
31.0
 30
0.0
 11
-87.0
 21
31.0
 31
0.0
  0
LINE
  5
6A
100
AcDbEntity
100
AcDbLine
  8
0
 62
256
370
-1
 48
1.0
  6
ByLayer
 10
-87.0
 20
66.0
 30
0.0
 11
-112.0
 21
66.0
 31
0.0
  0
LINE
  5
6B
100
AcDbEntity
100
AcDbLine
  8
0
 62
256
370
-1
 48
1.0
  6
ByLayer
 10
-115.0
 20
63.0
 30
0.0
 11
-115.0
 21
34.0
 31
0.0
  0
LINE
  5
6C
100
AcDbEntity
100
AcDbLine
  8
0
 62
256
370
-1
 48
1.0
  6
ByLayer
 10
87.0
 20
31.0
 30
0.0
 11
112.0
 21
31.0
 31
0.0
  0
LINE
  5
6D
100
AcDbEntity
100
AcDbLine
  8
0
 62
256
370
-1
 48
1.0
  6
ByLayer
 10
112.0
 20
66.0
 30
0.0
 11
87.0
 21
66.0
 31
0.0
  0
LINE
  5
6E
100
AcDbEntity
100
AcDbLine
  8
0
 62
256
370
-1
 48
1.0
  6
ByLayer
 10
115.0
 20
63.0
 30
0.0
 11
115.0
 21
34.0
 31
0.0
  0
LINE
  5
6F
100
AcDbEntity
100
AcDbLine
  8
0
 62
256
370
-1
 48
1.0
  6
ByLayer
 10
-125.0
 20
85.0
 30
0.0
 11
125.0
 21
85.0
 31
0.0
  0
LINE
  5
70
100
AcDbEntity
100
AcDbLine
  8
0
 62
256
370
-1
 48
1.0
  6
ByLayer
 10
125.0
 20
0.0
 30
0.0
 11
-125.0
 21
0.0
 31
0.0
  0
ARC
  5
71
100
AcDbEntity
  8
0
 62
256
370
-1
 48
1.0
  6
ByLayer
100
AcDbCircle
 10
-125.0
 20
80.0
 30
0.0
 40
5.0
100
AcDbArc
 50
90.0
 51
180.0
  0
ARC
  5
72
100
AcDbEntity
  8
0
 62
256
370
-1
 48
1.0
  6
ByLayer
100
AcDbCircle
 10
125.0
 20
80.0
 30
0.0
 40
5.0
100
AcDbArc
 50
0.0
 51
90.0
  0
ARC
  5
73
100
AcDbEntity
  8
0
 62
256
370
-1
 48
1.0
  6
ByLayer
100
AcDbCircle
 10
-125.0
 20
5.0
 30
0.0
 40
5.0
100
AcDbArc
 50
180.0
 51
270.0
  0
ARC
  5
74
100
AcDbEntity
  8
0
 62
256
370
-1
 48
1.0
  6
ByLayer
100
AcDbCircle
 10
125.0
 20
5.0
 30
0.0
 40
5.0
100
AcDbArc
 50
270.0
 51
0.0
  0
ARC
  5
75
100
AcDbEntity
  8
0
 62
256
370
-1
 48
1.0
  6
ByLayer
100
AcDbCircle
 10
-53.0
 20
19.0
 30
0.0
 40
2.0
100
AcDbArc
 50
90.0
 51
180.0
  0
ARC
  5
76
100
AcDbEntity
  8
0
 62
256
370
-1
 48
1.0
  6
ByLayer
100
AcDbCircle
 10
-53.0
 20
12.0
 30
0.0
 40
2.0
100
AcDbArc
 50
180.0
 51
270.0
  0
ARC
  5
77
100
AcDbEntity
  8
0
 62
256
370
-1
 48
1.0
  6
ByLayer
100
AcDbCircle
 10
53.0
 20
12.0
 30
0.0
 40
2.0
100
AcDbArc
 50
270.0
 51
0.0
  0
ARC
  5
78
100
AcDbEntity
  8
0
 62
256
370
-1
 48
1.0
  6
ByLayer
100
AcDbCircle
 10
53.0
 20
19.0
 30
0.0
 40
2.0
100
AcDbArc
 50
0.0
 51
90.0
  0
LINE
  5
79
100
AcDbEntity
100
AcDbLine
  8
0
 62
256
370
-1
 48
1.0
  6
ByLayer
 10
-85.0
 20
64.0
 30
0.0
 11
-85.0
 21
64.0
 31
0.0
  0
LINE
  5
7A
100
AcDbEntity
100
AcDbLine
  8
0
 62
256
370
-1
 48
1.0
  6
ByLayer
 10
-85.0
 20
33.0
 30
0.0
 11
-85.0
 21
33.0
 31
0.0
  0
LINE
  5
7B
100
AcDbEntity
100
AcDbLine
  8
0
 62
256
370
-1
 48
1.0
  6
ByLayer
 10
85.0
 20
33.0
 30
0.0
 11
85.0
 21
33.0
 31
0.0
  0
LINE
  5
7C
100
AcDbEntity
100
AcDbLine
  8
0
 62
256
370
-1
 48
1.0
  6
ByLayer
 10
85.0
 20
64.0
 30
0.0
 11
85.0
 21
64.0
 31
0.0
  0
LINE
  5
7D
100
AcDbEntity
100
AcDbLine
  8
0
 62
256
370
-1
 48
1.0
  6
ByLayer
 10
-112.0
 20
66.0
 30
0.0
 11
-115.0
 21
63.0
 31
0.0
  0
LINE
  5
7E
100
AcDbEntity
100
AcDbLine
  8
0
 62
256
370
-1
 48
1.0
  6
ByLayer
 10
-115.0
 20
34.0
 30
0.0
 11
-112.0
 21
31.0
 31
0.0
  0
LINE
  5
7F
100
AcDbEntity
100
AcDbLine
  8
0
 62
256
370
-1
 48
1.0
  6
ByLayer
 10
112.0
 20
66.0
 30
0.0
 11
115.0
 21
63.0
 31
0.0
  0
LINE
  5
80
100
AcDbEntity
100
AcDbLine
  8
0
 62
256
370
-1
 48
1.0
  6
ByLayer
 10
112.0
 20
31.0
 30
0.0
 11
115.0
 21
34.0
 31
0.0
  0
ARC
  5
81
100
AcDbEntity
  8
0
 62
256
370
-1
 48
1.0
  6
ByLayer
100
AcDbCircle
 10
-87.0
 20
64.0
 30
0.0
 40
2.0
100
AcDbArc
 50
0.0
 51
90.0
  0
ARC
  5
82
100
AcDbEntity
  8
0
 62
256
370
-1
 48
1.0
  6
ByLayer
100
AcDbCircle
 10
-87.0
 20
33.0
 30
0.0
 40
2.0
100
AcDbArc
 50
270.0
 51
0.0
  0
ARC
  5
83
100
AcDbEntity
  8
0
 62
256
370
-1
 48
1.0
  6
ByLayer
100
AcDbCircle
 10
-83.0
 20
33.0
 30
0.0
 40
2.0
100
AcDbArc
 50
90.0
 51
180.0
  0
ARC
  5
84
100
AcDbEntity
  8
0
 62
256
370
-1
 48
1.0
  6
ByLayer
100
AcDbCircle
 10
-83.0
 20
64.0
 30
0.0
 40
2.0
100
AcDbArc
 50
180.0
 51
270.0
  0
ARC
  5
85
100
AcDbEntity
  8
0
 62
256
370
-1
 48
1.0
  6
ByLayer
100
AcDbCircle
 10
83.0
 20
64.0
 30
0.0
 40
2.0
100
AcDbArc
 50
270.0
 51
0.0
  0
ARC
  5
86
100
AcDbEntity
  8
0
 62
256
370
-1
 48
1.0
  6
ByLayer
100
AcDbCircle
 10
87.0
 20
64.0
 30
0.0
 40
2.0
100
AcDbArc
 50
90.0
 51
180.0
  0
ARC
  5
87
100
AcDbEntity
  8
0
 62
256
370
-1
 48
1.0
  6
ByLayer
100
AcDbCircle
 10
83.0
 20
33.0
 30
0.0
 40
2.0
100
AcDbArc
 50
0.0
 51
90.0
  0
ARC
  5
88
100
AcDbEntity
  8
0
 62
256
370
-1
 48
1.0
  6
ByLayer
100
AcDbCircle
 10
87.0
 20
33.0
 30
0.0
 40
2.0
100
AcDbArc
 50
180.0
 51
270.0
  0
LINE
  5
89
100
AcDbEntity
100
AcDbLine
  8
0
 62
256
370
-1
 48
1.0
  6
ByLayer
 10
-53.0
 20
100.0
 30
0.0
 11
53.0
 21
100.0
 31
0.0
  0
LINE
  5
8A
100
AcDbEntity
100
AcDbLine
  8
0
 62
256
370
-1
 48
1.0
  6
ByLayer
 10
55.0
 20
102.0
 30
0.0
 11
55.0
 21
109.0
 31
0.0
  0
LINE
  5
8B
100
AcDbEntity
100
AcDbLine
  8
0
 62
256
370
-1
 48
1.0
  6
ByLayer
 10
53.0
 20
111.0
 30
0.0
 11
-53.0
 21
111.0
 31
0.0
  0
LINE
  5
8C
100
AcDbEntity
100
AcDbLine
  8
0
 62
256
370
-1
 48
1.0
  6
ByLayer
 10
-55.0
 20
109.0
 30
0.0
 11
-55.0
 21
102.0
 31
0.0
  0
LINE
  5
8D
100
AcDbEntity
100
AcDbLine
  8
0
 62
256
370
-1
 48
1.0
  6
ByLayer
 10
-83.0
 20
125.0
 30
0.0
 11
83.0
 21
125.0
 31
0.0
  0
LINE
  5
8E
100
AcDbEntity
100
AcDbLine
  8
0
 62
256
370
-1
 48
1.0
  6
ByLayer
 10
83.0
 20
152.0
 30
0.0
 11
-83.0
 21
152.0
 31
0.0
  0
LINE
  5
8F
100
AcDbEntity
100
AcDbLine
  8
0
 62
256
370
-1
 48
1.0
  6
ByLayer
 10
-112.0
 20
121.0
 30
0.0
 11
-87.0
 21
121.0
 31
0.0
  0
LINE
  5
90
100
AcDbEntity
100
AcDbLine
  8
0
 62
256
370
-1
 48
1.0
  6
ByLayer
 10
-87.0
 20
156.0
 30
0.0
 11
-112.0
 21
156.0
 31
0.0
  0
LINE
  5
91
100
AcDbEntity
100
AcDbLine
  8
0
 62
256
370
-1
 48
1.0
  6
ByLayer
 10
-115.0
 20
153.0
 30
0.0
 11
-115.0
 21
124.0
 31
0.0
  0
LINE
  5
92
100
AcDbEntity
100
AcDbLine
  8
0
 62
256
370
-1
 48
1.0
  6
ByLayer
 10
87.0
 20
121.0
 30
0.0
 11
112.0
 21
121.0
 31
0.0
  0
LINE
  5
93
100
AcDbEntity
100
AcDbLine
  8
0
 62
256
370
-1
 48
1.0
  6
ByLayer
 10
112.0
 20
156.0
 30
0.0
 11
87.0
 21
156.0
 31
0.0
  0
LINE
  5
94
100
AcDbEntity
100
AcDbLine
  8
0
 62
256
370
-1
 48
1.0
  6
ByLayer
 10
115.0
 20
153.0
 30
0.0
 11
115.0
 21
124.0
 31
0.0
  0
LINE
  5
95
100
AcDbEntity
100
AcDbLine
  8
0
 62
256
370
-1
 48
1.0
  6
ByLayer
 10
125.0
 20
90.0
 30
0.0
 11
-125.0
 21
90.0
 31
0.0
  0
ARC
  5
96
100
AcDbEntity
  8
0
 62
256
370
-1
 48
1.0
  6
ByLayer
100
AcDbCircle
 10
-125.0
 20
95.0
 30
0.0
 40
5.0
100
AcDbArc
 50
180.0
 51
270.0
  0
ARC
  5
97
100
AcDbEntity
  8
0
 62
256
370
-1
 48
1.0
  6
ByLayer
100
AcDbCircle
 10
125.0
 20
95.0
 30
0.0
 40
5.0
100
AcDbArc
 50
270.0
 51
0.0
  0
ARC
  5
98
100
AcDbEntity
  8
0
 62
256
370
-1
 48
1.0
  6
ByLayer
100
AcDbCircle
 10
-53.0
 20
109.0
 30
0.0
 40
2.0
100
AcDbArc
 50
90.0
 51
180.0
  0
ARC
  5
99
100
AcDbEntity
  8
0
 62
256
370
-1
 48
1.0
  6
ByLayer
100
AcDbCircle
 10
-53.0
 20
102.0
 30
0.0
 40
2.0
100
AcDbArc
 50
180.0
 51
270.0
  0
ARC
  5
9A
100
AcDbEntity
  8
0
 62
256
370
-1
 48
1.0
  6
ByLayer
100
AcDbCircle
 10
53.0
 20
102.0
 30
0.0
 40
2.0
100
AcDbArc
 50
270.0
 51
0.0
  0
ARC
  5
9B
100
AcDbEntity
  8
0
 62
256
370
-1
 48
1.0
  6
ByLayer
100
AcDbCircle
 10
53.0
 20
109.0
 30
0.0
 40
2.0
100
AcDbArc
 50
0.0
 51
90.0
  0
LINE
  5
9C
100
AcDbEntity
100
AcDbLine
  8
0
 62
256
370
-1
 48
1.0
  6
ByLayer
 10
-85.0
 20
154.0
 30
0.0
 11
-85.0
 21
154.0
 31
0.0
  0
LINE
  5
9D
100
AcDbEntity
100
AcDbLine
  8
0
 62
256
370
-1
 48
1.0
  6
ByLayer
 10
-85.0
 20
123.0
 30
0.0
 11
-85.0
 21
123.0
 31
0.0
  0
LINE
  5
9E
100
AcDbEntity
100
AcDbLine
  8
0
 62
256
370
-1
 48
1.0
  6
ByLayer
 10
85.0
 20
123.0
 30
0.0
 11
85.0
 21
123.0
 31
0.0
  0
LINE
  5
9F
100
AcDbEntity
100
AcDbLine
  8
0
 62
256
370
-1
 48
1.0
  6
ByLayer
 10
85.0
 20
154.0
 30
0.0
 11
85.0
 21
154.0
 31
0.0
  0
LINE
  5
A0
100
AcDbEntity
100
AcDbLine
  8
0
 62
256
370
-1
 48
1.0
  6
ByLayer
 10
-112.0
 20
156.0
 30
0.0
 11
-115.0
 21
153.0
 31
0.0
  0
LINE
  5
A1
100
AcDbEntity
100
AcDbLine
  8
0
 62
256
370
-1
 48
1.0
  6
ByLayer
 10
-115.0
 20
124.0
 30
0.0
 11
-112.0
 21
121.0
 31
0.0
  0
LINE
  5
A2
100
AcDbEntity
100
AcDbLine
  8
0
 62
256
370
-1
 48
1.0
  6
ByLayer
 10
112.0
 20
156.0
 30
0.0
 11
115.0
 21
153.0
 31
0.0
  0
LINE
  5
A3
100
AcDbEntity
100
AcDbLine
  8
0
 62
256
370
-1
 48
1.0
  6
ByLayer
 10
112.0
 20
121.0
 30
0.0
 11
115.0
 21
124.0
 31
0.0
  0
ARC
  5
A4
100
AcDbEntity
  8
0
 62
256
370
-1
 48
1.0
  6
ByLayer
100
AcDbCircle
 10
-87.0
 20
154.0
 30
0.0
 40
2.0
100
AcDbArc
 50
0.0
 51
90.0
  0
ARC
  5
A5
100
AcDbEntity
  8
0
 62
256
370
-1
 48
1.0
  6
ByLayer
100
AcDbCircle
 10
-87.0
 20
123.0
 30
0.0
 40
2.0
100
AcDbArc
 50
270.0
 51
0.0
  0
ARC
  5
A6
100
AcDbEntity
  8
0
 62
256
370
-1
 48
1.0
  6
ByLayer
100
AcDbCircle
 10
-83.0
 20
123.0
 30
0.0
 40
2.0
100
AcDbArc
 50
90.0
 51
180.0
  0
ARC
  5
A7
100
AcDbEntity
  8
0
 62
256
370
-1
 48
1.0
  6
ByLayer
100
AcDbCircle
 10
-83.0
 20
154.0
 30
0.0
 40
2.0
100
AcDbArc
 50
180.0
 51
270.0
  0
ARC
  5
A8
100
AcDbEntity
  8
0
 62
256
370
-1
 48
1.0
  6
ByLayer
100
AcDbCircle
 10
83.0
 20
154.0
 30
0.0
 40
2.0
100
AcDbArc
 50
270.0
 51
0.0
  0
ARC
  5
A9
100
AcDbEntity
  8
0
 62
256
370
-1
 48
1.0
  6
ByLayer
100
AcDbCircle
 10
87.0
 20
154.0
 30
0.0
 40
2.0
100
AcDbArc
 50
90.0
 51
180.0
  0
ARC
  5
AA
100
AcDbEntity
  8
0
 62
256
370
-1
 48
1.0
  6
ByLayer
100
AcDbCircle
 10
83.0
 20
123.0
 30
0.0
 40
2.0
100
AcDbArc
 50
0.0
 51
90.0
  0
ARC
  5
AB
100
AcDbEntity
  8
0
 62
256
370
-1
 48
1.0
  6
ByLayer
100
AcDbCircle
 10
87.0
 20
123.0
 30
0.0
 40
2.0
100
AcDbArc
 50
180.0
 51
270.0
  0
LINE
  5
AC
100
AcDbEntity
100
AcDbLine
  8
0
 62
256
370
-1
 48
1.0
  6
ByLayer
 10
-53.0
 20
190.0
 30
0.0
 11
53.0
 21
190.0
 31
0.0
  0
LINE
  5
AD
100
AcDbEntity
100
AcDbLine
  8
0
 62
256
370
-1
 48
1.0
  6
ByLayer
 10
55.0
 20
192.0
 30
0.0
 11
55.0
 21
199.0
 31
0.0
  0
LINE
  5
AE
100
AcDbEntity
100
AcDbLine
  8
0
 62
256
370
-1
 48
1.0
  6
ByLayer
 10
53.0
 20
201.0
 30
0.0
 11
-53.0
 21
201.0
 31
0.0
  0
LINE
  5
AF
100
AcDbEntity
100
AcDbLine
  8
0
 62
256
370
-1
 48
1.0
  6
ByLayer
 10
-55.0
 20
199.0
 30
0.0
 11
-55.0
 21
192.0
 31
0.0
  0
LINE
  5
B0
100
AcDbEntity
100
AcDbLine
  8
0
 62
256
370
-1
 48
1.0
  6
ByLayer
 10
-83.0
 20
215.0
 30
0.0
 11
83.0
 21
215.0
 31
0.0
  0
LINE
  5
B1
100
AcDbEntity
100
AcDbLine
  8
0
 62
256
370
-1
 48
1.0
  6
ByLayer
 10
83.0
 20
242.0
 30
0.0
 11
-83.0
 21
242.0
 31
0.0
  0
LINE
  5
B2
100
AcDbEntity
100
AcDbLine
  8
0
 62
256
370
-1
 48
1.0
  6
ByLayer
 10
-112.0
 20
211.0
 30
0.0
 11
-87.0
 21
211.0
 31
0.0
  0
LINE
  5
B3
100
AcDbEntity
100
AcDbLine
  8
0
 62
256
370
-1
 48
1.0
  6
ByLayer
 10
-87.0
 20
246.0
 30
0.0
 11
-112.0
 21
246.0
 31
0.0
  0
LINE
  5
B4
100
AcDbEntity
100
AcDbLine
  8
0
 62
256
370
-1
 48
1.0
  6
ByLayer
 10
-115.0
 20
243.0
 30
0.0
 11
-115.0
 21
214.0
 31
0.0
  0
LINE
  5
B5
100
AcDbEntity
100
AcDbLine
  8
0
 62
256
370
-1
 48
1.0
  6
ByLayer
 10
87.0
 20
211.0
 30
0.0
 11
112.0
 21
211.0
 31
0.0
  0
LINE
  5
B6
100
AcDbEntity
100
AcDbLine
  8
0
 62
256
370
-1
 48
1.0
  6
ByLayer
 10
112.0
 20
246.0
 30
0.0
 11
87.0
 21
246.0
 31
0.0
  0
LINE
  5
B7
100
AcDbEntity
100
AcDbLine
  8
0
 62
256
370
-1
 48
1.0
  6
ByLayer
 10
115.0
 20
243.0
 30
0.0
 11
115.0
 21
214.0
 31
0.0
  0
LINE
  5
B8
100
AcDbEntity
100
AcDbLine
  8
0
 62
256
370
-1
 48
1.0
  6
ByLayer
 10
125.0
 20
180.0
 30
0.0
 11
-125.0
 21
180.0
 31
0.0
  0
ARC
  5
B9
100
AcDbEntity
  8
0
 62
256
370
-1
 48
1.0
  6
ByLayer
100
AcDbCircle
 10
-125.0
 20
185.0
 30
0.0
 40
5.0
100
AcDbArc
 50
180.0
 51
270.0
  0
ARC
  5
BA
100
AcDbEntity
  8
0
 62
256
370
-1
 48
1.0
  6
ByLayer
100
AcDbCircle
 10
125.0
 20
185.0
 30
0.0
 40
5.0
100
AcDbArc
 50
270.0
 51
0.0
  0
ARC
  5
BB
100
AcDbEntity
  8
0
 62
256
370
-1
 48
1.0
  6
ByLayer
100
AcDbCircle
 10
-53.0
 20
199.0
 30
0.0
 40
2.0
100
AcDbArc
 50
90.0
 51
180.0
  0
ARC
  5
BC
100
AcDbEntity
  8
0
 62
256
370
-1
 48
1.0
  6
ByLayer
100
AcDbCircle
 10
-53.0
 20
192.0
 30
0.0
 40
2.0
100
AcDbArc
 50
180.0
 51
270.0
  0
ARC
  5
BD
100
AcDbEntity
  8
0
 62
256
370
-1
 48
1.0
  6
ByLayer
100
AcDbCircle
 10
53.0
 20
192.0
 30
0.0
 40
2.0
100
AcDbArc
 50
270.0
 51
0.0
  0
ARC
  5
BE
100
AcDbEntity
  8
0
 62
256
370
-1
 48
1.0
  6
ByLayer
100
AcDbCircle
 10
53.0
 20
199.0
 30
0.0
 40
2.0
100
AcDbArc
 50
0.0
 51
90.0
  0
LINE
  5
BF
100
AcDbEntity
100
AcDbLine
  8
0
 62
256
370
-1
 48
1.0
  6
ByLayer
 10
-85.0
 20
244.0
 30
0.0
 11
-85.0
 21
244.0
 31
0.0
  0
LINE
  5
C0
100
AcDbEntity
100
AcDbLine
  8
0
 62
256
370
-1
 48
1.0
  6
ByLayer
 10
-85.0
 20
213.0
 30
0.0
 11
-85.0
 21
213.0
 31
0.0
  0
LINE
  5
C1
100
AcDbEntity
100
AcDbLine
  8
0
 62
256
370
-1
 48
1.0
  6
ByLayer
 10
85.0
 20
213.0
 30
0.0
 11
85.0
 21
213.0
 31
0.0
  0
LINE
  5
C2
100
AcDbEntity
100
AcDbLine
  8
0
 62
256
370
-1
 48
1.0
  6
ByLayer
 10
85.0
 20
244.0
 30
0.0
 11
85.0
 21
244.0
 31
0.0
  0
LINE
  5
C3
100
AcDbEntity
100
AcDbLine
  8
0
 62
256
370
-1
 48
1.0
  6
ByLayer
 10
-112.0
 20
246.0
 30
0.0
 11
-115.0
 21
243.0
 31
0.0
  0
LINE
  5
C4
100
AcDbEntity
100
AcDbLine
  8
0
 62
256
370
-1
 48
1.0
  6
ByLayer
 10
-115.0
 20
214.0
 30
0.0
 11
-112.0
 21
211.0
 31
0.0
  0
LINE
  5
C5
100
AcDbEntity
100
AcDbLine
  8
0
 62
256
370
-1
 48
1.0
  6
ByLayer
 10
112.0
 20
246.0
 30
0.0
 11
115.0
 21
243.0
 31
0.0
  0
LINE
  5
C6
100
AcDbEntity
100
AcDbLine
  8
0
 62
256
370
-1
 48
1.0
  6
ByLayer
 10
112.0
 20
211.0
 30
0.0
 11
115.0
 21
214.0
 31
0.0
  0
ARC
  5
C7
100
AcDbEntity
  8
0
 62
256
370
-1
 48
1.0
  6
ByLayer
100
AcDbCircle
 10
-87.0
 20
244.0
 30
0.0
 40
2.0
100
AcDbArc
 50
0.0
 51
90.0
  0
ARC
  5
C8
100
AcDbEntity
  8
0
 62
256
370
-1
 48
1.0
  6
ByLayer
100
AcDbCircle
 10
-87.0
 20
213.0
 30
0.0
 40
2.0
100
AcDbArc
 50
270.0
 51
0.0
  0
ARC
  5
C9
100
AcDbEntity
  8
0
 62
256
370
-1
 48
1.0
  6
ByLayer
100
AcDbCircle
 10
-83.0
 20
213.0
 30
0.0
 40
2.0
100
AcDbArc
 50
90.0
 51
180.0
  0
ARC
  5
CA
100
AcDbEntity
  8
0
 62
256
370
-1
 48
1.0
  6
ByLayer
100
AcDbCircle
 10
-83.0
 20
244.0
 30
0.0
 40
2.0
100
AcDbArc
 50
180.0
 51
270.0
  0
ARC
  5
CB
100
AcDbEntity
  8
0
 62
256
370
-1
 48
1.0
  6
ByLayer
100
AcDbCircle
 10
83.0
 20
244.0
 30
0.0
 40
2.0
100
AcDbArc
 50
270.0
 51
0.0
  0
ARC
  5
CC
100
AcDbEntity
  8
0
 62
256
370
-1
 48
1.0
  6
ByLayer
100
AcDbCircle
 10
87.0
 20
244.0
 30
0.0
 40
2.0
100
AcDbArc
 50
90.0
 51
180.0
  0
ARC
  5
CD
100
AcDbEntity
  8
0
 62
256
370
-1
 48
1.0
  6
ByLayer
100
AcDbCircle
 10
83.0
 20
213.0
 30
0.0
 40
2.0
100
AcDbArc
 50
0.0
 51
90.0
  0
ARC
  5
CE
100
AcDbEntity
  8
0
 62
256
370
-1
 48
1.0
  6
ByLayer
100
AcDbCircle
 10
87.0
 20
213.0
 30
0.0
 40
2.0
100
AcDbArc
 50
180.0
 51
270.0
  0
MTEXT
  5
CF
100
AcDbEntity
100
AcDbMText
  8
0
 62
256
370
-1
 48
1.0
  6
ByLayer
 10
-120.0
 20
192.0
 30
0.0
 40
5.0
 41
0.0
 71
1
 72
1
  1
tube #\fAmerican Typewriter|b0|i0|c0|p0;1
  7
textstyle0
 50
0.0
 73
2
 44
1.0
  0
MTEXT
  5
D0
100
AcDbEntity
100
AcDbMText
  8
0
 62
256
370
-1
 48
1.0
  6
ByLayer
 10
-120.0
 20
102.0
 30
0.0
 40
5.0
 41
0.0
 71
1
 72
1
  1
tube #2
  7
textstyle1
 50
0.0
 73
2
 44
1.0
  0
MTEXT
  5
D1
100
AcDbEntity
100
AcDbMText
  8
0
 62
256
370
-1
 48
1.0
  6
ByLayer
 10
-120.0
 20
12.0
 30
0.0
 40
5.0
 41
0.0
 71
1
 72
1
  1
tube #3
  7
textstyle2
 50
0.0
 73
2
 44
1.0
  0
MTEXT
  5
D2
100
AcDbEntity
100
AcDbMText
  8
0
 62
256
370
-1
 48
1.0
  6
ByLayer
 10
-120.0
 20
168.0
 30
0.0
 40
4.0
 41
0.0
 71
1
 72
1
  1
Makespace Madrid | Gu\U+00eda de supervivencia Maker
  7
textstyle3
 50
0.0
 73
2
 44
1.0
  0
LINE
  5
D3
100
AcDbEntity
100
AcDbLine
  8
0
 62
256
370
-1
 48
1.0
  6
ByLayer
 10
-125.0
 20
175.0
 30
0.0
 11
125.0
 21
175.0
 31
0.0
  0
ARC
  5
D4
100
AcDbEntity
  8
0
 62
256
370
-1
 48
1.0
  6
ByLayer
100
AcDbCircle
 10
-125.0
 20
170.0
 30
0.0
 40
5.0
100
AcDbArc
 50
90.0
 51
180.0
  0
ARC
  5
D5
100
AcDbEntity
  8
0
 62
256
370
-1
 48
1.0
  6
ByLayer
100
AcDbCircle
 10
125.0
 20
170.0
 30
0.0
 40
5.0
100
AcDbArc
 50
0.0
 51
90.0
  0
LINE
  5
D6
100
AcDbEntity
100
AcDbLine
  8
0
 62
256
370
-1
 48
1.0
  6
ByLayer
 10
-125.0
 20
265.0
 30
0.0
 11
125.0
 21
265.0
 31
0.0
  0
ARC
  5
D7
100
AcDbEntity
  8
0
 62
256
370
-1
 48
1.0
  6
ByLayer
100
AcDbCircle
 10
-125.0
 20
260.0
 30
0.0
 40
5.0
100
AcDbArc
 50
90.0
 51
180.0
  0
ARC
  5
D8
100
AcDbEntity
  8
0
 62
256
370
-1
 48
1.0
  6
ByLayer
100
AcDbCircle
 10
125.0
 20
260.0
 30
0.0
 40
5.0
100
AcDbArc
 50
0.0
 51
90.0
  0
MTEXT
  5
D9
100
AcDbEntity
100
AcDbMText
  8
0
 62
256
370
-1
 48
1.0
  6
ByLayer
 10
-120.0
 20
258.0
 30
0.0
 40
4.0
 41
0.0
 71
1
 72
1
  1
Detector de rayos c\U+00f3smicos
  7
textstyle4
 50
0.0
 73
2
 44
1.0
  0
MTEXT
  5
DA
100
AcDbEntity
100
AcDbMText
  8
0
 62
256
370
-1
 48
1.0
  6
ByLayer
 10
-120.0
 20
78.0
 30
0.0
 40
4.0
 41
0.0
 71
1
 72
1
  1
Jos\U+00e9 \U+00c1ngel Jim\U+00e9nez Vadillo
  7
textstyle5
 50
0.0
 73
2
 44
1.0
  0
MTEXT
  5
DB
100
AcDbEntity
100
AcDbMText
  8
0
 62
256
370
-1
 48
1.0
  6
ByLayer
 10
120.0
 20
258.0
 30
0.0
 40
4.0
 41
0.0
 71
3
 72
1
  1
"We are not alone!"
  7
textstyle6
 50
0.0
 73
2
 44
1.0
  0
HATCH
  5
DC
  8
0
 62
256
370
-1
 48
1.0
  6
ByLayer
100
AcDbEntity
100
AcDbHatch
 10
0.0
 20
0.0
 30
0.0
210
0.0
220
0.0
230
1.0
  2
SOLID
 70
1
 71
0
 91
1
 92
1
 93
64
 72
2
 10
110.0000000000001279
 20
14.8612576884513672
 40
1.641244697963554
 50
294.7150320400102146
 51
245.2849679599898707
 73
1
 72
2
 10
109.2824287994444745
 20
13.302223553026117
 40
0.074999999999999
 50
294.715032040010783
 51
22.2104053024059596
 73
0
 72
1
 10
109.3518639457762589
 20
13.2738728836534605
 11
108.3679177114114935
 21
10.8640373391102898
 72
2
 10
108.2984825650797092
 20
10.8923880084828753
 40
0.0749999999999995
 50
22.2104053024049399
 51
112.4999999999996163
 73
0
 72
1
 10
108.2697813076522522
 20
10.8230970435445286
 11
107.7353332802958477
 21
11.0444726648591498
 72
2
 10
107.7066320228683907
 20
10.9751816999208032
 40
0.0750000000000005
 50
67.4999999999997442
 51
124.0803113827821988
 73
1
 72
1
 10
107.6646054418105649
 20
11.0373006703290812
 11
106.4892228502929896
 21
10.242095736445215
 72
2
 10
106.4471962692350218
 20
10.3042147068534931
 40
0.0750000000000005
 50
55.9196886172179077
 51
135.0000000000005116
 73
0
 72
1
 10
106.3941632606460388
 20
10.2511816982645101
 11
105.3899240098132708
 21
11.2554209490972781
 72
2
 10
105.4429570184022538
 20
11.308453957686261
 40
0.075
 50
134.9999999999993747
 51
214.0803113827814741
 73
0
 72
1
 10
105.3808380479939757
 20
11.3504805387441579
 11
106.176042981877842
 21
12.5258631302617331
 72
2
 10
106.1139240114695639
 20
12.56788971131963
 40
0.0749999999999995
 50
325.9196886172172754
 51
22.4999999999996696
 73
1
 72
1
 10
106.1832149764079105
 20
12.5965909687470159
 11
105.6997642328563671
 21
13.7637443105684767
 72
2
 10
105.6304732679180205
 20
13.7350430531410908
 40
0.075
 50
22.50000000000027
 51
79.0803113827827104
 73
1
 72
1
 10
105.6446807326780259
 20
13.8086850788131912
 11
104.2512649305450481
 21
14.0775112785816461
 72
2
 10
104.2654723953049114
 20
14.1511533042538176
 40
0.0750000000000005
 50
100.9196886172178012
 51
180.000000000000199
 73
0
 72
1
 10
104.1904723953048375
 20
14.1511533042538176
 11
104.1904723953048375
 21
15.5713620726489168
 72
2
 10
104.2654723953049114
 20
15.5713620726489168
 40
0.075
 50
180.0000000000001137
 51
259.080311382782611
 73
0
 72
1
 10
104.2512649305450481
 20
15.6450040983210172
 11
105.6446807326780259
 21
15.9138302980894721
 72
2
 10
105.6304732679180205
 20
15.9874723237615726
 40
0.075
 50
280.9196886172176164
 51
337.4999999999998863
 73
1
 72
1
 10
105.6997642328563671
 20
15.9587710663341866
 11
106.1832149764079105
 21
17.1259244081556474
 72
2
 10
106.1139240114695639
 20
17.1546256655830334
 40
0.0750000000000005
 50
337.4999999999997158
 51
34.0803113827821988
 73
1
 72
1
 10
106.176042981877842
 20
17.1966522466409302
 11
105.3808380479939757
 21
18.3720348381585055
 72
2
 10
105.4429570184022538
 20
18.4140614192164023
 40
0.0750000000000015
 50
145.9196886172177869
 51
225.0000000000003979
 73
0
 72
1
 10
105.3899240098132708
 20
18.4670944278053852
 11
106.3941632606460388
 21
19.4713336786381603
 72
2
 10
106.4471962692350218
 20
19.4183006700491774
 40
0.0750000000000005
 50
225.0000000000007105
 51
304.0803113827822131
 73
0
 72
1
 10
106.4892228502929896
 20
19.4804196404574554
 11
107.6646054418105649
 21
18.6852147065735821
 72
2
 10
107.7066320228683907
 20
18.7473336769818602
 40
0.0749999999999995
 50
235.9196886172177301
 51
292.5000000000002274
 73
1
 72
1
 10
107.7353332802958477
 20
18.6780427120435135
 11
108.9024866221173085
 21
19.161493455595064
 72
2
 10
108.8737853646898515
 20
19.2307844205334106
 40
0.074999999999998
 50
292.49999999999892
 51
349.0803113827813036
 73
1
 72
1
 10
108.9474273903620229
 20
19.2165769557735473
 11
109.2162535901304778
 21
20.6099927579064399
 72
2
 10
109.2898956158025072
 20
20.5957852931465766
 40
0.075000000000001
 50
190.919688617217929
 51
270.0
 73
0
 72
1
 10
109.2898956158025072
 20
20.6707852931465936
 11
110.7101043841977486
 21
20.6707852931465936
 72
2
 10
110.7101043841977486
 20
20.5957852931465766
 40
0.075
 50
270.0000000000003979
 51
349.080311382782611
 73
0
 72
1
 10
110.7837464098697779
 20
20.6099927579064399
 11
111.0525726096382328
 21
19.2165769557735473
 72
2
 10
111.1262146353104043
 20
19.2307844205334106
 40
0.075000000000002
 50
190.9196886172171048
 51
247.4999999999996021
 73
1
 72
1
 10
111.0975133778829473
 20
19.161493455595064
 11
112.2646667197044081
 21
18.6780427120435135
 72
2
 10
112.2933679771318651
 20
18.7473336769818602
 40
0.0750000000000005
 50
247.4999999999996874
 51
304.0803113827822699
 73
1
 72
1
 10
112.3353945581896909
 20
18.6852147065735821
 11
113.5107771497072662
 21
19.4804196404574554
 72
2
 10
113.552803730765234
 20
19.4183006700491774
 40
0.075000000000002
 50
235.9196886172177301
 51
314.9999999999992042
 73
0
 72
1
 10
113.605836739354217
 20
19.4713336786381603
 11
114.610075990186985
 21
18.4670944278053852
 72
2
 10
114.557042981598002
 20
18.4140614192164023
 40
0.075000000000001
 50
315.0000000000001137
 51
34.0803113827830089
 73
0
 72
1
 10
114.6191619520062801
 20
18.3720348381585055
 11
113.8239570181224138
 21
17.1966522466409302
 72
2
 10
113.8860759885306919
 20
17.1546256655830334
 40
0.0749999999999985
 50
145.9196886172177017
 51
202.5
 73
1
 72
1
 10
113.8167850235923453
 20
17.1259244081556474
 11
114.3002357671438887
 21
15.9587710663341866
 72
2
 10
114.3695267320822353
 20
15.9874723237615726
 40
0.075
 50
202.5
 51
259.0803113827823836
 73
1
 72
1
 10
114.3553192673222298
 20
15.9138302980894721
 11
115.7487350694552077
 21
15.6450040983210172
 72
2
 10
115.7345276046953444
 20
15.5713620726489168
 40
0.075
 50
280.919688617217389
 51
359.9999999999996021
 73
0
 72
1
 10
115.8095276046954183
 20
15.5713620726489168
 11
115.8095276046954183
 21
14.1511533042538176
 72
2
 10
115.7345276046953444
 20
14.1511533042538176
 40
0.075
 50
0.0000000000004071
 51
79.0803113827825541
 73
0
 72
1
 10
115.7487350694552077
 20
14.0775112785816461
 11
114.3553192673222298
 21
13.8086850788131912
 72
2
 10
114.3695267320822353
 20
13.7350430531410908
 40
0.0750000000000005
 50
100.9196886172182985
 51
157.5000000000007105
 73
1
 72
1
 10
114.3002357671438887
 20
13.7637443105684767
 11
113.8167850235923453
 21
12.5965909687470159
 72
2
 10
113.8860759885306919
 20
12.56788971131963
 40
0.0749999999999995
 50
157.4999999999998863
 51
214.0803113827822131
 73
1
 72
1
 10
113.8239570181224138
 20
12.5258631302617331
 11
114.6191619520062801
 21
11.3504805387441579
 72
2
 10
114.557042981598002
 20
11.308453957686261
 40
0.0750000000000005
 50
325.9196886172177869
 51
44.9999999999992824
 73
0
 72
1
 10
114.610075990186985
 20
11.2554209490972781
 11
113.605836739354217
 21
10.2511816982645101
 72
2
 10
113.552803730765234
 20
10.3042147068534931
 40
0.075
 50
44.9999999999997442
 51
124.0803113827817867
 73
0
 72
1
 10
113.5107771497072662
 20
10.242095736445215
 11
112.3353945581896909
 21
11.0373006703290812
 72
2
 10
112.2933679771318651
 20
10.9751816999208032
 40
0.0749999999999995
 50
55.9196886172177301
 51
112.500000000000199
 73
1
 72
1
 10
112.2646667197044081
 20
11.0444726648591498
 11
111.7302186923480036
 21
10.8230970435445286
 72
2
 10
111.7015174349205466
 20
10.8923880084828753
 40
0.075
 50
67.5000000000002274
 51
157.7895946975949073
 73
0
 72
1
 10
111.6320822885887623
 20
10.8640373391102898
 11
110.6481360542239969
 21
13.2738728836534605
 72
2
 10
110.7175712005557813
 20
13.302223553026117
 40
0.075
 50
157.7895946975943104
 51
245.2849679599895865
 73
0
 97
0
 75
0
 76
1
 98
0
1001
ACAD
1010
0.0
1020
0.0
1030
0
  0
MTEXT
  5
DD
100
AcDbEntity
100
AcDbMText
  8
0
 62
256
370
-1
 48
1.0
  6
ByLayer
 10
120.0
 20
168.0
 30
0.0
 40
4.0
 41
0.0
 71
3
 72
1
  1
[Open Source Hardware]
  7
textstyle7
 50
0.0
 73
2
 44
1.0
  0
MTEXT
  5
DE
100
AcDbEntity
100
AcDbMText
  8
0
 62
256
370
-1
 48
1.0
  6
ByLayer
 10
120.0
 20
78.0
 30
0.0
 40
4.0
 41
0.0
 71
3
 72
1
  1
Creative Commons BY
  7
textstyle8
 50
0.0
 73
2
 44
1.0
  0
LINE
  5
DF
100
AcDbEntity
100
AcDbLine
  8
0
 62
256
370
-1
 48
1.0
  6
ByLayer
 10
-131.0
 20
232.5
 30
0.0
 11
-139.0
 21
232.5
 31
0.0
  0
LINE
  5
E0
100
AcDbEntity
100
AcDbLine
  8
0
 62
256
370
-1
 48
1.0
  6
ByLayer
 10
-140.0
 20
231.5
 30
0.0
 11
-140.0
 21
193.4999999999999716
 31
0.0
  0
LINE
  5
E1
100
AcDbEntity
100
AcDbLine
  8
0
 62
256
370
-1
 48
1.0
  6
ByLayer
 10
-133.1999999999999886
 20
193.4999999999999716
 30
0.0
 11
-133.1999999999999886
 21
211.4999999999999716
 31
0.0
  0
LINE
  5
E2
100
AcDbEntity
100
AcDbLine
  8
0
 62
256
370
-1
 48
1.0
  6
ByLayer
 10
-132.1999999999999886
 20
212.5
 30
0.0
 11
-131.0
 21
212.5
 31
0.0
  0
LINE
  5
E3
100
AcDbEntity
100
AcDbLine
  8
0
 62
256
370
-1
 48
1.0
  6
ByLayer
 10
-139.0
 20
192.5
 30
0.0
 11
-134.1999999999999886
 21
192.5
 31
0.0
  0
ARC
  5
E4
100
AcDbEntity
  8
0
 62
256
370
-1
 48
1.0
  6
ByLayer
100
AcDbCircle
 10
-134.1999999999999886
 20
193.4999999999999716
 30
0.0
 40
1.0
100
AcDbArc
 50
270.0
 51
0.0
  0
ARC
  5
E5
100
AcDbEntity
  8
0
 62
256
370
-1
 48
1.0
  6
ByLayer
100
AcDbCircle
 10
-139.0
 20
193.4999999999999716
 30
0.0
 40
1.0
100
AcDbArc
 50
180.0
 51
270.0
  0
ARC
  5
E6
100
AcDbEntity
  8
0
 62
256
370
-1
 48
1.0
  6
ByLayer
100
AcDbCircle
 10
-139.0
 20
231.5
 30
0.0
 40
1.0
100
AcDbArc
 50
90.0
 51
180.0
  0
ARC
  5
E7
100
AcDbEntity
  8
0
 62
256
370
-1
 48
1.0
  6
ByLayer
100
AcDbCircle
 10
-132.1999999999999886
 20
211.4999999999999716
 30
0.0
 40
1.0
100
AcDbArc
 50
90.0
 51
180.0
  0
LINE
  5
E8
100
AcDbEntity
100
AcDbLine
  8
0
 62
256
370
-1
 48
1.0
  6
ByLayer
 10
-130.0
 20
185.0
 30
0.0
 11
-130.0
 21
211.5
 31
0.0
  0
LINE
  5
E9
100
AcDbEntity
100
AcDbLine
  8
0
 62
256
370
-1
 48
1.0
  6
ByLayer
 10
-130.0
 20
233.5
 30
0.0
 11
-130.0
 21
260.0
 31
0.0
  0
LINE
  5
EA
100
AcDbEntity
100
AcDbLine
  8
0
 62
256
370
-1
 48
1.0
  6
ByLayer
 10
-131.0
 20
142.5
 30
0.0
 11
-139.0
 21
142.5
 31
0.0
  0
LINE
  5
EB
100
AcDbEntity
100
AcDbLine
  8
0
 62
256
370
-1
 48
1.0
  6
ByLayer
 10
-140.0
 20
141.5
 30
0.0
 11
-140.0
 21
103.4999999999999716
 31
0.0
  0
LINE
  5
EC
100
AcDbEntity
100
AcDbLine
  8
0
 62
256
370
-1
 48
1.0
  6
ByLayer
 10
-133.1999999999999886
 20
103.4999999999999716
 30
0.0
 11
-133.1999999999999886
 21
121.4999999999999716
 31
0.0
  0
LINE
  5
ED
100
AcDbEntity
100
AcDbLine
  8
0
 62
256
370
-1
 48
1.0
  6
ByLayer
 10
-132.1999999999999886
 20
122.5
 30
0.0
 11
-131.0
 21
122.5
 31
0.0
  0
LINE
  5
EE
100
AcDbEntity
100
AcDbLine
  8
0
 62
256
370
-1
 48
1.0
  6
ByLayer
 10
-139.0
 20
102.5
 30
0.0
 11
-134.1999999999999886
 21
102.5
 31
0.0
  0
ARC
  5
EF
100
AcDbEntity
  8
0
 62
256
370
-1
 48
1.0
  6
ByLayer
100
AcDbCircle
 10
-134.1999999999999886
 20
103.4999999999999716
 30
0.0
 40
1.0
100
AcDbArc
 50
270.0
 51
0.0
  0
ARC
  5
F0
100
AcDbEntity
  8
0
 62
256
370
-1
 48
1.0
  6
ByLayer
100
AcDbCircle
 10
-139.0
 20
103.4999999999999716
 30
0.0
 40
1.0
100
AcDbArc
 50
180.0
 51
270.0
  0
ARC
  5
F1
100
AcDbEntity
  8
0
 62
256
370
-1
 48
1.0
  6
ByLayer
100
AcDbCircle
 10
-139.0
 20
141.5
 30
0.0
 40
1.0
100
AcDbArc
 50
90.0
 51
180.0
  0
ARC
  5
F2
100
AcDbEntity
  8
0
 62
256
370
-1
 48
1.0
  6
ByLayer
100
AcDbCircle
 10
-132.1999999999999886
 20
121.4999999999999716
 30
0.0
 40
1.0
100
AcDbArc
 50
90.0
 51
180.0
  0
LINE
  5
F3
100
AcDbEntity
100
AcDbLine
  8
0
 62
256
370
-1
 48
1.0
  6
ByLayer
 10
-131.0
 20
52.5
 30
0.0
 11
-139.0
 21
52.5
 31
0.0
  0
LINE
  5
F4
100
AcDbEntity
100
AcDbLine
  8
0
 62
256
370
-1
 48
1.0
  6
ByLayer
 10
-140.0
 20
51.5
 30
0.0
 11
-140.0
 21
13.4999999999999716
 31
0.0
  0
LINE
  5
F5
100
AcDbEntity
100
AcDbLine
  8
0
 62
256
370
-1
 48
1.0
  6
ByLayer
 10
-133.1999999999999886
 20
13.4999999999999716
 30
0.0
 11
-133.1999999999999886
 21
31.4999999999999716
 31
0.0
  0
LINE
  5
F6
100
AcDbEntity
100
AcDbLine
  8
0
 62
256
370
-1
 48
1.0
  6
ByLayer
 10
-132.1999999999999886
 20
32.5
 30
0.0
 11
-131.0
 21
32.5
 31
0.0
  0
LINE
  5
F7
100
AcDbEntity
100
AcDbLine
  8
0
 62
256
370
-1
 48
1.0
  6
ByLayer
 10
-139.0
 20
12.5
 30
0.0
 11
-134.1999999999999886
 21
12.5
 31
0.0
  0
ARC
  5
F8
100
AcDbEntity
  8
0
 62
256
370
-1
 48
1.0
  6
ByLayer
100
AcDbCircle
 10
-134.1999999999999886
 20
13.4999999999999716
 30
0.0
 40
1.0
100
AcDbArc
 50
270.0
 51
0.0
  0
ARC
  5
F9
100
AcDbEntity
  8
0
 62
256
370
-1
 48
1.0
  6
ByLayer
100
AcDbCircle
 10
-139.0
 20
13.4999999999999716
 30
0.0
 40
1.0
100
AcDbArc
 50
180.0
 51
270.0
  0
ARC
  5
FA
100
AcDbEntity
  8
0
 62
256
370
-1
 48
1.0
  6
ByLayer
100
AcDbCircle
 10
-139.0
 20
51.5
 30
0.0
 40
1.0
100
AcDbArc
 50
90.0
 51
180.0
  0
ARC
  5
FB
100
AcDbEntity
  8
0
 62
256
370
-1
 48
1.0
  6
ByLayer
100
AcDbCircle
 10
-132.1999999999999886
 20
31.4999999999999716
 30
0.0
 40
1.0
100
AcDbArc
 50
90.0
 51
180.0
  0
LINE
  5
FC
100
AcDbEntity
100
AcDbLine
  8
0
 62
256
370
-1
 48
1.0
  6
ByLayer
 10
-130.0
 20
95.0
 30
0.0
 11
-130.0
 21
121.4999999999999716
 31
0.0
  0
LINE
  5
FD
100
AcDbEntity
100
AcDbLine
  8
0
 62
256
370
-1
 48
1.0
  6
ByLayer
 10
-130.0
 20
143.5
 30
0.0
 11
-130.0
 21
170.0
 31
0.0
  0
LINE
  5
FE
100
AcDbEntity
100
AcDbLine
  8
0
 62
256
370
-1
 48
1.0
  6
ByLayer
 10
-130.0
 20
5.0000000000000009
 30
0.0
 11
-130.0
 21
31.5
 31
0.0
  0
LINE
  5
FF
100
AcDbEntity
100
AcDbLine
  8
0
 62
256
370
-1
 48
1.0
  6
ByLayer
 10
-130.0
 20
53.5
 30
0.0
 11
-130.0
 21
80.0
 31
0.0
  0
ARC
  5
100
100
AcDbEntity
  8
0
 62
256
370
-1
 48
1.0
  6
ByLayer
100
AcDbCircle
 10
-131.0
 20
233.5
 30
0.0
 40
1.0
100
AcDbArc
 50
270.0
 51
0.0
  0
ARC
  5
101
100
AcDbEntity
  8
0
 62
256
370
-1
 48
1.0
  6
ByLayer
100
AcDbCircle
 10
-131.0
 20
211.5
 30
0.0
 40
1.0
100
AcDbArc
 50
0.0
 51
90.0
  0
ARC
  5
102
100
AcDbEntity
  8
0
 62
256
370
-1
 48
1.0
  6
ByLayer
100
AcDbCircle
 10
-131.0
 20
143.5
 30
0.0
 40
1.0
100
AcDbArc
 50
270.0
 51
0.0
  0
ARC
  5
103
100
AcDbEntity
  8
0
 62
256
370
-1
 48
1.0
  6
ByLayer
100
AcDbCircle
 10
-131.0
 20
121.4999999999999716
 30
0.0
 40
1.0
100
AcDbArc
 50
0.0
 51
90.0
  0
ARC
  5
104
100
AcDbEntity
  8
0
 62
256
370
-1
 48
1.0
  6
ByLayer
100
AcDbCircle
 10
-131.0
 20
53.5
 30
0.0
 40
1.0
100
AcDbArc
 50
270.0
 51
0.0
  0
ARC
  5
105
100
AcDbEntity
  8
0
 62
256
370
-1
 48
1.0
  6
ByLayer
100
AcDbCircle
 10
-131.0
 20
31.5
 30
0.0
 40
1.0
100
AcDbArc
 50
0.0
 51
90.0
  0
LINE
  5
106
100
AcDbEntity
100
AcDbLine
  8
0
 62
256
370
-1
 48
1.0
  6
ByLayer
 10
132.1999999999999886
 20
212.4999999999999716
 30
0.0
 11
131.0
 21
212.4999999999999716
 31
0.0
  0
LINE
  5
107
100
AcDbEntity
100
AcDbLine
  8
0
 62
256
370
-1
 48
1.0
  6
ByLayer
 10
139.0
 20
192.5
 30
0.0
 11
134.1999999999999886
 21
192.5000000000000284
 31
0.0
  0
ARC
  5
108
100
AcDbEntity
  8
0
 62
256
370
-1
 48
1.0
  6
ByLayer
100
AcDbCircle
 10
131.0000000000000284
 20
233.4999999999999432
 30
0.0
 40
1.0
100
AcDbArc
 50
180.0
 51
270.0
  0
ARC
  5
109
100
AcDbEntity
  8
0
 62
256
370
-1
 48
1.0
  6
ByLayer
100
AcDbCircle
 10
131.0
 20
211.4999999999999716
 30
0.0
 40
1.0
100
AcDbArc
 50
90.0
 51
180.0
  0
ARC
  5
10A
100
AcDbEntity
  8
0
 62
256
370
-1
 48
1.0
  6
ByLayer
100
AcDbCircle
 10
134.1999999999999886
 20
193.5000000000000284
 30
0.0
 40
1.0
100
AcDbArc
 50
180.0
 51
270.0
  0
ARC
  5
10B
100
AcDbEntity
  8
0
 62
256
370
-1
 48
1.0
  6
ByLayer
100
AcDbCircle
 10
139.0
 20
193.4999999999999432
 30
0.0
 40
1.0
100
AcDbArc
 50
270.0
 51
0.0
  0
ARC
  5
10C
100
AcDbEntity
  8
0
 62
256
370
-1
 48
1.0
  6
ByLayer
100
AcDbCircle
 10
139.0
 20
231.5
 30
0.0
 40
1.0
100
AcDbArc
 50
0.0
 51
90.0
  0
ARC
  5
10D
100
AcDbEntity
  8
0
 62
256
370
-1
 48
1.0
  6
ByLayer
100
AcDbCircle
 10
132.1999999999999886
 20
211.4999999999999432
 30
0.0
 40
1.0
100
AcDbArc
 50
0.0
 51
90.0
  0
LINE
  5
10E
100
AcDbEntity
100
AcDbLine
  8
0
 62
256
370
-1
 48
1.0
  6
ByLayer
 10
131.0000000000000284
 20
232.5
 30
0.0
 11
139.0
 21
232.5000000000000568
 31
0.0
  0
LINE
  5
10F
100
AcDbEntity
100
AcDbLine
  8
0
 62
256
370
-1
 48
1.0
  6
ByLayer
 10
140.0
 20
231.4999999999999432
 30
0.0
 11
140.0
 21
193.4999999999999432
 31
0.0
  0
LINE
  5
110
100
AcDbEntity
100
AcDbLine
  8
0
 62
256
370
-1
 48
1.0
  6
ByLayer
 10
133.1999999999999886
 20
193.5000000000000284
 30
0.0
 11
133.2000000000000171
 21
211.4999999999998863
 31
0.0
  0
LINE
  5
111
100
AcDbEntity
100
AcDbLine
  8
0
 62
256
370
-1
 48
1.0
  6
ByLayer
 10
130.0
 20
260.0
 30
0.0
 11
130.0
 21
233.4999999999999432
 31
0.0
  0
LINE
  5
112
100
AcDbEntity
100
AcDbLine
  8
0
 62
256
370
-1
 48
1.0
  6
ByLayer
 10
130.0
 20
211.4999999999999716
 30
0.0
 11
130.0
 21
185.0
 31
0.0
  0
LINE
  5
113
100
AcDbEntity
100
AcDbLine
  8
0
 62
256
370
-1
 48
1.0
  6
ByLayer
 10
132.1999999999999886
 20
122.4999999999999716
 30
0.0
 11
131.0
 21
122.4999999999999716
 31
0.0
  0
LINE
  5
114
100
AcDbEntity
100
AcDbLine
  8
0
 62
256
370
-1
 48
1.0
  6
ByLayer
 10
139.0
 20
102.5
 30
0.0
 11
134.1999999999999886
 21
102.5000000000000284
 31
0.0
  0
ARC
  5
115
100
AcDbEntity
  8
0
 62
256
370
-1
 48
1.0
  6
ByLayer
100
AcDbCircle
 10
131.0000000000000284
 20
143.4999999999999432
 30
0.0
 40
1.0
100
AcDbArc
 50
180.0
 51
270.0
  0
ARC
  5
116
100
AcDbEntity
  8
0
 62
256
370
-1
 48
1.0
  6
ByLayer
100
AcDbCircle
 10
131.0
 20
121.4999999999999716
 30
0.0
 40
1.0
100
AcDbArc
 50
90.0
 51
180.0
  0
ARC
  5
117
100
AcDbEntity
  8
0
 62
256
370
-1
 48
1.0
  6
ByLayer
100
AcDbCircle
 10
134.1999999999999886
 20
103.5000000000000284
 30
0.0
 40
1.0
100
AcDbArc
 50
180.0
 51
270.0
  0
ARC
  5
118
100
AcDbEntity
  8
0
 62
256
370
-1
 48
1.0
  6
ByLayer
100
AcDbCircle
 10
139.0
 20
103.4999999999999432
 30
0.0
 40
1.0
100
AcDbArc
 50
270.0
 51
0.0
  0
ARC
  5
119
100
AcDbEntity
  8
0
 62
256
370
-1
 48
1.0
  6
ByLayer
100
AcDbCircle
 10
139.0
 20
141.5
 30
0.0
 40
1.0
100
AcDbArc
 50
0.0
 51
90.0
  0
ARC
  5
11A
100
AcDbEntity
  8
0
 62
256
370
-1
 48
1.0
  6
ByLayer
100
AcDbCircle
 10
132.1999999999999886
 20
121.4999999999999432
 30
0.0
 40
1.0
100
AcDbArc
 50
0.0
 51
90.0
  0
LINE
  5
11B
100
AcDbEntity
100
AcDbLine
  8
0
 62
256
370
-1
 48
1.0
  6
ByLayer
 10
131.0000000000000284
 20
142.5
 30
0.0
 11
139.0
 21
142.5000000000000568
 31
0.0
  0
LINE
  5
11C
100
AcDbEntity
100
AcDbLine
  8
0
 62
256
370
-1
 48
1.0
  6
ByLayer
 10
140.0
 20
141.4999999999999432
 30
0.0
 11
140.0
 21
103.4999999999999432
 31
0.0
  0
LINE
  5
11D
100
AcDbEntity
100
AcDbLine
  8
0
 62
256
370
-1
 48
1.0
  6
ByLayer
 10
133.1999999999999886
 20
103.5000000000000284
 30
0.0
 11
133.2000000000000171
 21
121.4999999999998863
 31
0.0
  0
LINE
  5
11E
100
AcDbEntity
100
AcDbLine
  8
0
 62
256
370
-1
 48
1.0
  6
ByLayer
 10
132.1999999999999886
 20
32.4999999999999716
 30
0.0
 11
131.0
 21
32.4999999999999716
 31
0.0
  0
LINE
  5
11F
100
AcDbEntity
100
AcDbLine
  8
0
 62
256
370
-1
 48
1.0
  6
ByLayer
 10
139.0
 20
12.5
 30
0.0
 11
134.1999999999999886
 21
12.5000000000000284
 31
0.0
  0
ARC
  5
120
100
AcDbEntity
  8
0
 62
256
370
-1
 48
1.0
  6
ByLayer
100
AcDbCircle
 10
131.0000000000000284
 20
53.4999999999999432
 30
0.0
 40
1.0
100
AcDbArc
 50
180.0
 51
270.0
  0
ARC
  5
121
100
AcDbEntity
  8
0
 62
256
370
-1
 48
1.0
  6
ByLayer
100
AcDbCircle
 10
131.0
 20
31.4999999999999716
 30
0.0
 40
1.0
100
AcDbArc
 50
90.0
 51
180.0
  0
ARC
  5
122
100
AcDbEntity
  8
0
 62
256
370
-1
 48
1.0
  6
ByLayer
100
AcDbCircle
 10
134.1999999999999886
 20
13.5000000000000284
 30
0.0
 40
1.0
100
AcDbArc
 50
180.0
 51
270.0
  0
ARC
  5
123
100
AcDbEntity
  8
0
 62
256
370
-1
 48
1.0
  6
ByLayer
100
AcDbCircle
 10
139.0
 20
13.4999999999999432
 30
0.0
 40
1.0
100
AcDbArc
 50
270.0
 51
0.0
  0
ARC
  5
124
100
AcDbEntity
  8
0
 62
256
370
-1
 48
1.0
  6
ByLayer
100
AcDbCircle
 10
139.0
 20
51.5
 30
0.0
 40
1.0
100
AcDbArc
 50
0.0
 51
90.0
  0
ARC
  5
125
100
AcDbEntity
  8
0
 62
256
370
-1
 48
1.0
  6
ByLayer
100
AcDbCircle
 10
132.1999999999999886
 20
31.4999999999999432
 30
0.0
 40
1.0
100
AcDbArc
 50
0.0
 51
90.0
  0
LINE
  5
126
100
AcDbEntity
100
AcDbLine
  8
0
 62
256
370
-1
 48
1.0
  6
ByLayer
 10
131.0000000000000284
 20
52.5
 30
0.0
 11
139.0
 21
52.5000000000000568
 31
0.0
  0
LINE
  5
127
100
AcDbEntity
100
AcDbLine
  8
0
 62
256
370
-1
 48
1.0
  6
ByLayer
 10
140.0
 20
51.4999999999999432
 30
0.0
 11
140.0
 21
13.4999999999999432
 31
0.0
  0
LINE
  5
128
100
AcDbEntity
100
AcDbLine
  8
0
 62
256
370
-1
 48
1.0
  6
ByLayer
 10
133.1999999999999886
 20
13.5000000000000284
 30
0.0
 11
133.2000000000000171
 21
31.4999999999998863
 31
0.0
  0
LINE
  5
129
100
AcDbEntity
100
AcDbLine
  8
0
 62
256
370
-1
 48
1.0
  6
ByLayer
 10
130.0
 20
170.0
 30
0.0
 11
130.0
 21
143.4999999999999432
 31
0.0
  0
LINE
  5
12A
100
AcDbEntity
100
AcDbLine
  8
0
 62
256
370
-1
 48
1.0
  6
ByLayer
 10
130.0
 20
121.4999999999999716
 30
0.0
 11
130.0
 21
95.0
 31
0.0
  0
LINE
  5
12B
100
AcDbEntity
100
AcDbLine
  8
0
 62
256
370
-1
 48
1.0
  6
ByLayer
 10
130.0
 20
80.0
 30
0.0
 11
130.0
 21
53.4999999999999432
 31
0.0
  0
LINE
  5
12C
100
AcDbEntity
100
AcDbLine
  8
0
 62
256
370
-1
 48
1.0
  6
ByLayer
 10
130.0
 20
31.4999999999999716
 30
0.0
 11
130.0
 21
5.0
 31
0.0
  0
LINE
  5
12D
100
AcDbEntity
100
AcDbLine
  8
0
 62
256
370
-1
 48
1.0
  6
ByLayer
 10
151.0000000000000568
 20
0.0
 30
0.0
 11
200.0000000000000568
 21
0.0
 31
0.0
  0
LINE
  5
12E
100
AcDbEntity
100
AcDbLine
  8
0
 62
256
370
-1
 48
1.0
  6
ByLayer
 10
200.0000000000000568
 20
275.0
 30
0.0
 11
190.0000000000000568
 21
275.0
 31
0.0
  0
LINE
  5
12F
100
AcDbEntity
100
AcDbLine
  8
0
 62
256
370
-1
 48
1.0
  6
ByLayer
 10
185.0000000000000568
 20
270.0
 30
0.0
 11
185.0000000000000568
 21
125.0
 31
0.0
  0
LINE
  5
130
100
AcDbEntity
100
AcDbLine
  8
0
 62
256
370
-1
 48
1.0
  6
ByLayer
 10
150.0000000000000568
 20
1.0
 30
0.0
 11
150.0000000000000568
 21
25.0
 31
0.0
  0
LINE
  5
131
100
AcDbEntity
100
AcDbLine
  8
0
 62
256
370
-1
 48
1.0
  6
ByLayer
 10
150.0000000000000568
 20
25.0
 30
0.0
 11
185.0000000000000568
 21
125.0
 31
0.0
  0
LINE
  5
132
100
AcDbEntity
100
AcDbLine
  8
0
 62
256
370
-1
 48
1.0
  6
ByLayer
 10
248.9999999999999432
 20
0.0
 30
0.0
 11
200.0
 21
0.0
 31
0.0
  0
LINE
  5
133
100
AcDbEntity
100
AcDbLine
  8
0
 62
256
370
-1
 48
1.0
  6
ByLayer
 10
200.0000000000000568
 20
275.0
 30
0.0
 11
210.0000000000000568
 21
275.0
 31
0.0
  0
LINE
  5
134
100
AcDbEntity
100
AcDbLine
  8
0
 62
256
370
-1
 48
1.0
  6
ByLayer
 10
215.0000000000000568
 20
270.0
 30
0.0
 11
215.0
 21
125.0
 31
0.0
  0
LINE
  5
135
100
AcDbEntity
100
AcDbLine
  8
0
 62
256
370
-1
 48
1.0
  6
ByLayer
 10
249.9999999999999432
 20
0.9999999999999964
 30
0.0
 11
250.0
 21
25.0
 31
0.0
  0
LINE
  5
136
100
AcDbEntity
100
AcDbLine
  8
0
 62
256
370
-1
 48
1.0
  6
ByLayer
 10
250.0
 20
24.9999999999999432
 30
0.0
 11
215.0
 21
125.0
 31
0.0
  0
ARC
  5
137
100
AcDbEntity
  8
0
 62
256
370
-1
 48
1.0
  6
ByLayer
100
AcDbCircle
 10
190.0000000000000568
 20
270.0
 30
0.0
 40
5.0
100
AcDbArc
 50
90.0
 51
180.0
  0
ARC
  5
138
100
AcDbEntity
  8
0
 62
256
370
-1
 48
1.0
  6
ByLayer
100
AcDbCircle
 10
210.0000000000000568
 20
270.0
 30
0.0
 40
5.0
100
AcDbArc
 50
0.0
 51
90.0
  0
ARC
  5
139
100
AcDbEntity
  8
0
 62
256
370
-1
 48
1.0
  6
ByLayer
100
AcDbCircle
 10
248.9999999999999432
 20
1.0
 30
0.0
 40
1.0
100
AcDbArc
 50
270.0
 51
360.0
  0
ARC
  5
13A
100
AcDbEntity
  8
0
 62
256
370
-1
 48
1.0
  6
ByLayer
100
AcDbCircle
 10
151.0000000000000568
 20
1.0
 30
0.0
 40
1.0
100
AcDbArc
 50
180.0
 51
270.0
  0
LINE
  5
13B
100
AcDbEntity
100
AcDbLine
  8
0
 62
256
370
-1
 48
1.0
  6
ByLayer
 10
198.4000000000000909
 20
217.4000000000000057
 30
0.0
 11
201.6000000000000227
 21
217.4000000000000057
 31
0.0
  0
LINE
  5
13C
100
AcDbEntity
100
AcDbLine
  8
0
 62
256
370
-1
 48
1.0
  6
ByLayer
 10
201.6000000000000227
 20
217.4000000000000057
 30
0.0
 11
201.6000000000000227
 21
257.6000000000000227
 31
0.0
  0
LINE
  5
13D
100
AcDbEntity
100
AcDbLine
  8
0
 62
256
370
-1
 48
1.0
  6
ByLayer
 10
201.6000000000000227
 20
257.6000000000000227
 30
0.0
 11
198.4000000000000909
 21
257.6000000000000227
 31
0.0
  0
LINE
  5
13E
100
AcDbEntity
100
AcDbLine
  8
0
 62
256
370
-1
 48
1.0
  6
ByLayer
 10
198.4000000000000909
 20
257.6000000000000227
 30
0.0
 11
198.4000000000000909
 21
217.4000000000000057
 31
0.0
  0
LINE
  5
13F
100
AcDbEntity
100
AcDbLine
  8
0
 62
256
370
-1
 48
1.0
  6
ByLayer
 10
198.4000000000000909
 20
127.4000000000000057
 30
0.0
 11
201.6000000000000227
 21
127.4000000000000057
 31
0.0
  0
LINE
  5
140
100
AcDbEntity
100
AcDbLine
  8
0
 62
256
370
-1
 48
1.0
  6
ByLayer
 10
201.6000000000000227
 20
127.4000000000000057
 30
0.0
 11
201.6000000000000227
 21
167.5999999999999943
 31
0.0
  0
LINE
  5
141
100
AcDbEntity
100
AcDbLine
  8
0
 62
256
370
-1
 48
1.0
  6
ByLayer
 10
201.6000000000000227
 20
167.5999999999999943
 30
0.0
 11
198.4000000000000909
 21
167.5999999999999943
 31
0.0
  0
LINE
  5
142
100
AcDbEntity
100
AcDbLine
  8
0
 62
256
370
-1
 48
1.0
  6
ByLayer
 10
198.4000000000000909
 20
167.5999999999999943
 30
0.0
 11
198.4000000000000909
 21
127.4000000000000057
 31
0.0
  0
LINE
  5
143
100
AcDbEntity
100
AcDbLine
  8
0
 62
256
370
-1
 48
1.0
  6
ByLayer
 10
198.4000000000000909
 20
37.4000000000000057
 30
0.0
 11
201.6000000000000227
 21
37.4000000000000057
 31
0.0
  0
LINE
  5
144
100
AcDbEntity
100
AcDbLine
  8
0
 62
256
370
-1
 48
1.0
  6
ByLayer
 10
201.6000000000000227
 20
37.4000000000000057
 30
0.0
 11
201.6000000000000227
 21
77.5999999999999943
 31
0.0
  0
LINE
  5
145
100
AcDbEntity
100
AcDbLine
  8
0
 62
256
370
-1
 48
1.0
  6
ByLayer
 10
201.6000000000000227
 20
77.5999999999999943
 30
0.0
 11
198.4000000000000909
 21
77.5999999999999943
 31
0.0
  0
LINE
  5
146
100
AcDbEntity
100
AcDbLine
  8
0
 62
256
370
-1
 48
1.0
  6
ByLayer
 10
198.4000000000000909
 20
77.5999999999999943
 30
0.0
 11
198.4000000000000909
 21
37.4000000000000057
 31
0.0
  0
LINE
  5
147
100
AcDbEntity
100
AcDbLine
  8
0
 62
256
370
-1
 48
1.0
  6
ByLayer
 10
329.0
 20
274.9999999999998863
 30
0.0
 11
280.0
 21
274.9999999999998863
 31
0.0
  0
LINE
  5
148
100
AcDbEntity
100
AcDbLine
  8
0
 62
256
370
-1
 48
1.0
  6
ByLayer
 10
280.0
 20
0.0
 30
0.0
 11
289.9999999999998863
 21
-0.0000000000000426
 31
0.0
  0
LINE
  5
149
100
AcDbEntity
100
AcDbLine
  8
0
 62
256
370
-1
 48
1.0
  6
ByLayer
 10
295.0
 20
5.0000000000001421
 30
0.0
 11
295.0
 21
149.9999999999998579
 31
0.0
  0
LINE
  5
14A
100
AcDbEntity
100
AcDbLine
  8
0
 62
256
370
-1
 48
1.0
  6
ByLayer
 10
330.0000000000001137
 20
273.9999999999997726
 30
0.0
 11
329.9999999999998863
 21
250.0000000000000284
 31
0.0
  0
LINE
  5
14B
100
AcDbEntity
100
AcDbLine
  8
0
 62
256
370
-1
 48
1.0
  6
ByLayer
 10
329.9999999999998863
 20
250.0000000000000284
 30
0.0
 11
295.0
 21
149.9999999999998579
 31
0.0
  0
LINE
  5
14C
100
AcDbEntity
100
AcDbLine
  8
0
 62
256
370
-1
 48
1.0
  6
ByLayer
 10
231.0
 20
275.0
 30
0.0
 11
280.0
 21
275.0
 31
0.0
  0
LINE
  5
14D
100
AcDbEntity
100
AcDbLine
  8
0
 62
256
370
-1
 48
1.0
  6
ByLayer
 10
280.0
 20
0.0
 30
0.0
 11
270.0
 21
0.0000000000000284
 31
0.0
  0
LINE
  5
14E
100
AcDbEntity
100
AcDbLine
  8
0
 62
256
370
-1
 48
1.0
  6
ByLayer
 10
264.9999999999998863
 20
4.9999999999999716
 30
0.0
 11
265.0000000000001137
 21
149.999999999999801
 31
0.0
  0
LINE
  5
14F
100
AcDbEntity
100
AcDbLine
  8
0
 62
256
370
-1
 48
1.0
  6
ByLayer
 10
230.0000000000002274
 20
273.9999999999998863
 30
0.0
 11
230.0000000000001137
 21
249.9999999999999716
 31
0.0
  0
LINE
  5
150
100
AcDbEntity
100
AcDbLine
  8
0
 62
256
370
-1
 48
1.0
  6
ByLayer
 10
230.0000000000001137
 20
250.0000000000000284
 30
0.0
 11
265.0000000000001137
 21
149.999999999999801
 31
0.0
  0
ARC
  5
151
100
AcDbEntity
  8
0
 62
256
370
-1
 48
1.0
  6
ByLayer
100
AcDbCircle
 10
290.0
 20
5.0
 30
0.0
 40
5.0
100
AcDbArc
 50
270.0
 51
0.0
  0
ARC
  5
152
100
AcDbEntity
  8
0
 62
256
370
-1
 48
1.0
  6
ByLayer
100
AcDbCircle
 10
270.0
 20
5.0000000000000284
 30
0.0
 40
5.0
100
AcDbArc
 50
180.0
 51
270.0
  0
ARC
  5
153
100
AcDbEntity
  8
0
 62
256
370
-1
 48
1.0
  6
ByLayer
100
AcDbCircle
 10
231.0000000000002274
 20
273.9999999999998863
 30
0.0
 40
1.0
100
AcDbArc
 50
90.0
 51
180.0
  0
ARC
  5
154
100
AcDbEntity
  8
0
 62
256
370
-1
 48
1.0
  6
ByLayer
100
AcDbCircle
 10
329.0000000000001137
 20
273.9999999999997726
 30
0.0
 40
1.0
100
AcDbArc
 50
0.0
 51
90.0
  0
LINE
  5
155
100
AcDbEntity
100
AcDbLine
  8
0
 62
256
370
-1
 48
1.0
  6
ByLayer
 10
281.5999999999999091
 20
57.600000000000108
 30
0.0
 11
278.3999999999999773
 21
57.5999999999999091
 31
0.0
  0
LINE
  5
156
100
AcDbEntity
100
AcDbLine
  8
0
 62
256
370
-1
 48
1.0
  6
ByLayer
 10
278.3999999999999773
 20
57.5999999999999091
 30
0.0
 11
278.3999999999999773
 21
17.3999999999999204
 31
0.0
  0
LINE
  5
157
100
AcDbEntity
100
AcDbLine
  8
0
 62
256
370
-1
 48
1.0
  6
ByLayer
 10
278.3999999999999773
 20
17.3999999999999204
 30
0.0
 11
281.5999999999999091
 21
17.4000000000000057
 31
0.0
  0
LINE
  5
158
100
AcDbEntity
100
AcDbLine
  8
0
 62
256
370
-1
 48
1.0
  6
ByLayer
 10
281.5999999999999091
 20
17.4000000000000057
 30
0.0
 11
281.5999999999999091
 21
57.600000000000108
 31
0.0
  0
LINE
  5
159
100
AcDbEntity
100
AcDbLine
  8
0
 62
256
370
-1
 48
1.0
  6
ByLayer
 10
281.5999999999999091
 20
147.5999999999999375
 30
0.0
 11
278.4000000000000909
 21
147.5999999999998238
 31
0.0
  0
LINE
  5
15A
100
AcDbEntity
100
AcDbLine
  8
0
 62
256
370
-1
 48
1.0
  6
ByLayer
 10
278.4000000000000909
 20
147.5999999999998238
 30
0.0
 11
278.3999999999999773
 21
107.399999999999892
 31
0.0
  0
LINE
  5
15B
100
AcDbEntity
100
AcDbLine
  8
0
 62
256
370
-1
 48
1.0
  6
ByLayer
 10
278.3999999999999773
 20
107.399999999999892
 30
0.0
 11
281.5999999999999091
 21
107.3999999999997215
 31
0.0
  0
LINE
  5
15C
100
AcDbEntity
100
AcDbLine
  8
0
 62
256
370
-1
 48
1.0
  6
ByLayer
 10
281.5999999999999091
 20
107.3999999999997215
 30
0.0
 11
281.5999999999999091
 21
147.5999999999999375
 31
0.0
  0
LINE
  5
15D
100
AcDbEntity
100
AcDbLine
  8
0
 62
256
370
-1
 48
1.0
  6
ByLayer
 10
281.5999999999999091
 20
237.6000000000000512
 30
0.0
 11
278.4000000000000909
 21
237.5999999999999375
 31
0.0
  0
LINE
  5
15E
100
AcDbEntity
100
AcDbLine
  8
0
 62
256
370
-1
 48
1.0
  6
ByLayer
 10
278.4000000000000909
 20
237.5999999999999375
 30
0.0
 11
278.4000000000000909
 21
197.3999999999999488
 31
0.0
  0
LINE
  5
15F
100
AcDbEntity
100
AcDbLine
  8
0
 62
256
370
-1
 48
1.0
  6
ByLayer
 10
278.4000000000000909
 20
197.3999999999999488
 30
0.0
 11
281.5999999999999091
 21
197.3999999999999488
 31
0.0
  0
LINE
  5
160
100
AcDbEntity
100
AcDbLine
  8
0
 62
256
370
-1
 48
1.0
  6
ByLayer
 10
281.5999999999999091
 20
197.3999999999999488
 30
0.0
 11
281.5999999999999091
 21
237.6000000000000512
 31
0.0
  0
LINE
  5
161
100
AcDbEntity
100
AcDbLine
  8
0
 62
256
370
-1
 48
1.0
  6
ByLayer
 10
-47.5
 20
210.0
 30
0.0
 11
-32.5
 21
210.0
 31
0.0
  0
LINE
  5
162
100
AcDbEntity
100
AcDbLine
  8
0
 62
256
370
-1
 48
1.0
  6
ByLayer
 10
-32.5
 20
210.0
 30
0.0
 11
-32.5
 21
208.0
 31
0.0
  0
LINE
  5
163
100
AcDbEntity
100
AcDbLine
  8
0
 62
256
370
-1
 48
1.0
  6
ByLayer
 10
-32.5
 20
208.0
 30
0.0
 11
-47.5
 21
208.0
 31
0.0
  0
LINE
  5
164
100
AcDbEntity
100
AcDbLine
  8
0
 62
256
370
-1
 48
1.0
  6
ByLayer
 10
-47.5
 20
208.0
 30
0.0
 11
-47.5
 21
210.0
 31
0.0
  0
LINE
  5
165
100
AcDbEntity
100
AcDbLine
  8
0
 62
256
370
-1
 48
1.0
  6
ByLayer
 10
-47.5
 20
249.0
 30
0.0
 11
-32.5
 21
249.0
 31
0.0
  0
LINE
  5
166
100
AcDbEntity
100
AcDbLine
  8
0
 62
256
370
-1
 48
1.0
  6
ByLayer
 10
-32.5
 20
249.0
 30
0.0
 11
-32.5
 21
247.0
 31
0.0
  0
LINE
  5
167
100
AcDbEntity
100
AcDbLine
  8
0
 62
256
370
-1
 48
1.0
  6
ByLayer
 10
-32.5
 20
247.0
 30
0.0
 11
-47.5
 21
247.0
 31
0.0
  0
LINE
  5
168
100
AcDbEntity
100
AcDbLine
  8
0
 62
256
370
-1
 48
1.0
  6
ByLayer
 10
-47.5
 20
247.0
 30
0.0
 11
-47.5
 21
249.0
 31
0.0
  0
LINE
  5
169
100
AcDbEntity
100
AcDbLine
  8
0
 62
256
370
-1
 48
1.0
  6
ByLayer
 10
32.5
 20
210.0
 30
0.0
 11
47.5
 21
210.0
 31
0.0
  0
LINE
  5
16A
100
AcDbEntity
100
AcDbLine
  8
0
 62
256
370
-1
 48
1.0
  6
ByLayer
 10
47.5
 20
210.0
 30
0.0
 11
47.5
 21
208.0
 31
0.0
  0
LINE
  5
16B
100
AcDbEntity
100
AcDbLine
  8
0
 62
256
370
-1
 48
1.0
  6
ByLayer
 10
47.5
 20
208.0
 30
0.0
 11
32.5
 21
208.0
 31
0.0
  0
LINE
  5
16C
100
AcDbEntity
100
AcDbLine
  8
0
 62
256
370
-1
 48
1.0
  6
ByLayer
 10
32.5
 20
208.0
 30
0.0
 11
32.5
 21
210.0
 31
0.0
  0
LINE
  5
16D
100
AcDbEntity
100
AcDbLine
  8
0
 62
256
370
-1
 48
1.0
  6
ByLayer
 10
32.5
 20
249.0
 30
0.0
 11
47.5
 21
249.0
 31
0.0
  0
LINE
  5
16E
100
AcDbEntity
100
AcDbLine
  8
0
 62
256
370
-1
 48
1.0
  6
ByLayer
 10
47.5
 20
249.0
 30
0.0
 11
47.5
 21
247.0
 31
0.0
  0
LINE
  5
16F
100
AcDbEntity
100
AcDbLine
  8
0
 62
256
370
-1
 48
1.0
  6
ByLayer
 10
47.5
 20
247.0
 30
0.0
 11
32.5
 21
247.0
 31
0.0
  0
LINE
  5
170
100
AcDbEntity
100
AcDbLine
  8
0
 62
256
370
-1
 48
1.0
  6
ByLayer
 10
32.5
 20
247.0
 30
0.0
 11
32.5
 21
249.0
 31
0.0
  0
ENDSEC
  0
SECTION
  2
OBJECTS
  0
DICTIONARY
  5
C
100
AcDbDictionary
280
0
281
1
  3
ACAD_GROUP
350
D
  3
ACAD_LAYOUT
350
1A
  3
ACAD_MLINESTYLE
350
17
  3
ACAD_PLOTSETTINGS
350
19
  3
ACAD_PLOTSTYLENAME
350
E
  3
AcDbVariableDictionary
350
171
  3
QCAD_OBJECTS
350
172
  0
DICTIONARY
  5
D
100
AcDbDictionary
280
0
281
1
  0
ACDBDICTIONARYWDFLT
  5
E
100
AcDbDictionary
281
1
  3
Normal
350
F
100
AcDbDictionaryWithDefault
340
F
  0
ACDBPLACEHOLDER
  5
F
  0
DICTIONARY
  5
17
100
AcDbDictionary
280
0
281
1
  3
Standard
350
18
  0
MLINESTYLE
  5
18
100
AcDbMlineStyle
  2
STANDARD
 70
0
  3

 62
256
 51
90.0
 52
90.0
 71
2
 49
0.5
 62
256
  6
BYLAYER
 49
-0.5
 62
256
  6
BYLAYER
  0
DICTIONARY
  5
19
100
AcDbDictionary
280
0
281
1
  0
DICTIONARY
  5
1A
100
AcDbDictionary
281
1
  3
Layout1
350
1E
  3
Layout2
350
26
  3
Model
350
22
  0
LAYOUT
  5
1E
100
AcDbPlotSettings
  1

  2
none_device
  4

  6

 40
0.0
 41
0.0
 42
0.0
 43
0.0
 44
0.0
 45
0.0
 46
0.0
 47
0.0
 48
0.0
 49
0.0
140
0.0
141
0.0
142
1.0
143
1.0
 70
688
 72
0
 73
0
 74
5
  7

 75
16
147
1.0
148
0.0
149
0.0
100
AcDbLayout
  1
Layout1
 70
1
 71
1
 10
0.0
 20
0.0
 11
420.0
 21
297.0
 12
0.0
 22
0.0
 32
0.0
 14
100000000000000000000.0
 24
100000000000000000000.0
 34
100000000000000000000.0
 15
-100000000000000000000.0
 25
-100000000000000000000.0
 35
-100000000000000000000.0
146
0.0
 13
0.0
 23
0.0
 33
0.0
 16
1.0
 26
0.0
 36
0.0
 17
0.0
 27
1.0
 37
0.0
 76
0
330
1B
  0
LAYOUT
  5
22
100
AcDbPlotSettings
  1

  2
none_device
  4

  6

 40
0.0
 41
0.0
 42
0.0
 43
0.0
 44
0.0
 45
0.0
 46
0.0
 47
0.0
 48
0.0
 49
0.0
140
0.0
141
0.0
142
1.0
143
1.0
 70
1712
 72
0
 73
0
 74
0
  7

 75
0
147
1.0
148
0.0
149
0.0
100
AcDbLayout
  1
Model
 70
1
 71
0
 10
0.0
 20
0.0
 11
12.0
 21
9.0
 12
0.0
 22
0.0
 32
0.0
 14
0.0
 24
0.0
 34
0.0
 15
0.0
 25
0.0
 35
0.0
146
0.0
 13
0.0
 23
0.0
 33
0.0
 16
1.0
 26
0.0
 36
0.0
 17
0.0
 27
1.0
 37
0.0
 76
0
330
1F
  0
LAYOUT
  5
26
100
AcDbPlotSettings
  1

  2
none_device
  4

  6

 40
0.0
 41
0.0
 42
0.0
 43
0.0
 44
0.0
 45
0.0
 46
0.0
 47
0.0
 48
0.0
 49
0.0
140
0.0
141
0.0
142
1.0
143
1.0
 70
688
 72
0
 73
0
 74
5
  7

 75
16
147
1.0
148
0.0
149
0.0
100
AcDbLayout
  1
Layout2
 70
1
 71
2
 10
0.0
 20
0.0
 11
12.0
 21
9.0
 12
0.0
 22
0.0
 32
0.0
 14
0.0
 24
0.0
 34
0.0
 15
0.0
 25
0.0
 35
0.0
146
0.0
 13
0.0
 23
0.0
 33
0.0
 16
1.0
 26
0.0
 36
0.0
 17
0.0
 27
1.0
 37
0.0
 76
0
330
23
  0
DICTIONARY
  5
171
100
AcDbDictionary
281
1
  3
DIMASSOC
350
174
  3
HIDETEXT
350
173
  0
DICTIONARYVAR
  5
173
100
DictionaryVariables
280
0
  1
2
  0
DICTIONARYVAR
  5
174
100
DictionaryVariables
280
0
  1
1
  0
DICTIONARY
  5
172
100
AcDbDictionary
281
1
  3
Grid/DisplayGrid00
350
175
  3
Grid/DisplayGrid01
350
176
  3
Grid/DisplayGrid02
350
177
  3
Grid/DisplayGrid03
350
178
  3
Grid/GridSpacingX00
350
179
  3
Grid/GridSpacingX01
350
17A
  3
Grid/GridSpacingX02
350
17B
  3
Grid/GridSpacingX03
350
17C
  3
Grid/GridSpacingY00
350
17D
  3
Grid/GridSpacingY01
350
17E
  3
Grid/GridSpacingY02
350
17F
  3
Grid/GridSpacingY03
350
180
  3
Grid/IsometricGrid00
350
181
  3
Grid/IsometricGrid01
350
182
  3
Grid/IsometricGrid02
350
183
  3
Grid/IsometricGrid03
350
184
  3
Grid/IsometricProjection00
350
185
  3
Grid/IsometricProjection01
350
186
  3
Grid/IsometricProjection02
350
187
  3
Grid/IsometricProjection03
350
188
  3
Grid/MetaGridSpacingX00
350
189
  3
Grid/MetaGridSpacingX01
350
18A
  3
Grid/MetaGridSpacingX02
350
18B
  3
Grid/MetaGridSpacingX03
350
18C
  3
Grid/MetaGridSpacingY00
350
18D
  3
Grid/MetaGridSpacingY01
350
18E
  3
Grid/MetaGridSpacingY02
350
18F
  3
Grid/MetaGridSpacingY03
350
190
  3
MultiPageSettings/Columns
350
191
  3
MultiPageSettings/GlueMarginsBottom
350
192
  3
MultiPageSettings/GlueMarginsLeft
350
193
  3
MultiPageSettings/GlueMarginsRight
350
194
  3
MultiPageSettings/GlueMarginsTop
350
195
  3
MultiPageSettings/PrintCropMarks
350
196
  3
MultiPageSettings/Rows
350
197
  3
PageSettings/OffsetX
350
198
  3
PageSettings/OffsetY
350
199
  3
PageSettings/PageOrientation
350
19A
  3
PageSettings/PaperHeight
350
19B
  3
PageSettings/PaperWidth
350
19C
  3
PageSettings/Scale
350
19D
  3
PageSettings/ShowPaperBorders
350
19E
  3
UnitSettings/PaperUnit
350
19F
  0
XRECORD
  5
175
330
172
100
AcDbXrecord
280
1
290
1
  0
XRECORD
  5
176
330
172
100
AcDbXrecord
280
1
290
1
  0
XRECORD
  5
177
330
172
100
AcDbXrecord
280
1
290
1
  0
XRECORD
  5
178
330
172
100
AcDbXrecord
280
1
290
1
  0
XRECORD
  5
179
330
172
100
AcDbXrecord
280
1
1000
auto
  0
XRECORD
  5
17A
330
172
100
AcDbXrecord
280
1
1000
auto
  0
XRECORD
  5
17B
330
172
100
AcDbXrecord
280
1
1000
auto
  0
XRECORD
  5
17C
330
172
100
AcDbXrecord
280
1
1000
auto
  0
XRECORD
  5
17D
330
172
100
AcDbXrecord
280
1
1000
auto
  0
XRECORD
  5
17E
330
172
100
AcDbXrecord
280
1
1000
auto
  0
XRECORD
  5
17F
330
172
100
AcDbXrecord
280
1
1000
auto
  0
XRECORD
  5
180
330
172
100
AcDbXrecord
280
1
1000
auto
  0
XRECORD
  5
181
330
172
100
AcDbXrecord
280
1
290
0
  0
XRECORD
  5
182
330
172
100
AcDbXrecord
280
1
290
0
  0
XRECORD
  5
183
330
172
100
AcDbXrecord
280
1
290
0
  0
XRECORD
  5
184
330
172
100
AcDbXrecord
280
1
290
0
  0
XRECORD
  5
185
330
172
100
AcDbXrecord
280
1
 90
0
  0
XRECORD
  5
186
330
172
100
AcDbXrecord
280
1
 90
0
  0
XRECORD
  5
187
330
172
100
AcDbXrecord
280
1
 90
0
  0
XRECORD
  5
188
330
172
100
AcDbXrecord
280
1
 90
0
  0
XRECORD
  5
189
330
172
100
AcDbXrecord
280
1
1000
auto
  0
XRECORD
  5
18A
330
172
100
AcDbXrecord
280
1
1000
auto
  0
XRECORD
  5
18B
330
172
100
AcDbXrecord
280
1
1000
auto
  0
XRECORD
  5
18C
330
172
100
AcDbXrecord
280
1
1000
auto
  0
XRECORD
  5
18D
330
172
100
AcDbXrecord
280
1
1000
auto
  0
XRECORD
  5
18E
330
172
100
AcDbXrecord
280
1
1000
auto
  0
XRECORD
  5
18F
330
172
100
AcDbXrecord
280
1
1000
auto
  0
XRECORD
  5
190
330
172
100
AcDbXrecord
280
1
1000
auto
  0
XRECORD
  5
191
330
172
100
AcDbXrecord
280
1
 90
1
  0
XRECORD
  5
192
330
172
100
AcDbXrecord
280
1
 40
10.0
  0
XRECORD
  5
193
330
172
100
AcDbXrecord
280
1
 40
10.0
  0
XRECORD
  5
194
330
172
100
AcDbXrecord
280
1
 40
10.0
  0
XRECORD
  5
195
330
172
100
AcDbXrecord
280
1
 40
10.0
  0
XRECORD
  5
196
330
172
100
AcDbXrecord
280
1
290
0
  0
XRECORD
  5
197
330
172
100
AcDbXrecord
280
1
 90
1
  0
XRECORD
  5
198
330
172
100
AcDbXrecord
280
1
 40
0.0
  0
XRECORD
  5
199
330
172
100
AcDbXrecord
280
1
 40
0.0
  0
XRECORD
  5
19A
330
172
100
AcDbXrecord
280
1
1000
Portrait
  0
XRECORD
  5
19B
330
172
100
AcDbXrecord
280
1
 40
297.0
  0
XRECORD
  5
19C
330
172
100
AcDbXrecord
280
1
 40
210.0
  0
XRECORD
  5
19D
330
172
100
AcDbXrecord
280
1
1000
1:1
  0
XRECORD
  5
19E
330
172
100
AcDbXrecord
280
1
290
1
  0
XRECORD
  5
19F
330
172
100
AcDbXrecord
280
1
 90
4
  0
ENDSEC
  0
EOF
